STARTFONT 2.1
COMMENT $XFree86$
COMMENT ISO10646-1 extension by Markus Kuhn <mkuhn@acm.org>, 2001-03-20
FONT -B&H-LucidaTypewriter-Medium-R-Normal-Sans-20-140-100-100-M-120-ISO10646-1
SIZE 14 100 100
FONTBOUNDINGBOX 18 29 -4 -7
STARTPROPERTIES 22
FONTNAME_REGISTRY ""
FOUNDRY "B&H"
FAMILY_NAME "LucidaTypewriter"
WEIGHT_NAME "Medium"
SLANT "R"
SETWIDTH_NAME "Normal"
ADD_STYLE_NAME "Sans"
PIXEL_SIZE 20
POINT_SIZE 140
RESOLUTION_X 100
RESOLUTION_Y 100
SPACING "M"
AVERAGE_WIDTH 120
CHARSET_REGISTRY "ISO10646"
CHARSET_ENCODING "1"
FONT_ASCENT 18
FONT_DESCENT 4
DEFAULT_CHAR 0
COPYRIGHT "Copyright Bigelow & Holmes 1986, 1985."
FACE_NAME "Lucida Sans Typewriter"
X_HEIGHT 11
CAP_HEIGHT 14
ENDPROPERTIES
CHARS 873
STARTCHAR char0
ENCODING 0
SWIDTH 602 0
DWIDTH 12 0
BBX 9 13 1 0
BITMAP
AA80
0000
8080
0000
8080
0000
8080
0000
8080
0000
8080
0000
AA80
ENDCHAR
STARTCHAR space
ENCODING 32
SWIDTH 602 0
DWIDTH 12 0
BBX 1 1 0 0
BITMAP
00
ENDCHAR
STARTCHAR exclam
ENCODING 33
SWIDTH 602 0
DWIDTH 12 0
BBX 2 14 5 0
BITMAP
C0
C0
C0
C0
C0
C0
80
80
80
80
00
00
80
80
ENDCHAR
STARTCHAR quotedbl
ENCODING 34
SWIDTH 602 0
DWIDTH 12 0
BBX 6 4 3 10
BITMAP
CC
CC
84
84
ENDCHAR
STARTCHAR numbersign
ENCODING 35
SWIDTH 602 0
DWIDTH 12 0
BBX 11 14 1 0
BITMAP
04C0
0C80
0880
0880
7FE0
1100
1100
1100
FFC0
2200
2200
2200
2400
4400
ENDCHAR
STARTCHAR dollar
ENCODING 36
SWIDTH 602 0
DWIDTH 12 0
BBX 7 18 3 -2
BITMAP
10
10
7E
D2
D0
D0
D0
70
38
1C
1E
16
16
16
DC
FC
10
10
ENDCHAR
STARTCHAR percent
ENCODING 37
SWIDTH 602 0
DWIDTH 12 0
BBX 12 14 0 0
BITMAP
7830
CC60
8440
8480
CD80
7B00
0200
05E0
0B30
1A10
1210
2210
4330
C1E0
ENDCHAR
STARTCHAR ampersand
ENCODING 38
SWIDTH 602 0
DWIDTH 12 0
BBX 11 14 1 0
BITMAP
1E00
3300
3300
3300
3600
1C00
3800
4C60
CE60
C640
C7C0
C380
6380
3EE0
ENDCHAR
STARTCHAR quotesingle
ENCODING 39
SWIDTH 602 0
DWIDTH 12 0
BBX 3 5 4 9
BITMAP
E0
E0
E0
40
40
ENDCHAR
STARTCHAR parenleft
ENCODING 40
SWIDTH 602 0
DWIDTH 12 0
BBX 7 17 3 -3
BITMAP
0E
1C
30
60
60
C0
C0
C0
C0
C0
C0
40
60
20
30
1C
06
ENDCHAR
STARTCHAR parenright
ENCODING 41
SWIDTH 602 0
DWIDTH 12 0
BBX 7 17 2 -3
BITMAP
C0
70
18
0C
0C
06
06
06
06
06
06
06
0C
0C
18
70
C0
ENDCHAR
STARTCHAR asterisk
ENCODING 42
SWIDTH 602 0
DWIDTH 12 0
BBX 9 8 1 6
BITMAP
0800
0800
C980
F780
0000
3600
7600
2300
ENDCHAR
STARTCHAR plus
ENCODING 43
SWIDTH 602 0
DWIDTH 12 0
BBX 9 11 1 0
BITMAP
0800
0800
0800
0800
0800
FF80
0800
0800
0800
0800
0800
ENDCHAR
STARTCHAR comma
ENCODING 44
SWIDTH 602 0
DWIDTH 12 0
BBX 3 6 4 -3
BITMAP
E0
E0
E0
20
60
C0
ENDCHAR
STARTCHAR hyphen
ENCODING 45
SWIDTH 602 0
DWIDTH 12 0
BBX 10 1 1 4
BITMAP
FFC0
ENDCHAR
STARTCHAR period
ENCODING 46
SWIDTH 602 0
DWIDTH 12 0
BBX 3 3 4 0
BITMAP
E0
E0
E0
ENDCHAR
STARTCHAR slash
ENCODING 47
SWIDTH 602 0
DWIDTH 12 0
BBX 11 17 0 -3
BITMAP
0060
0040
0080
0080
0100
0100
0200
0600
0400
0C00
0800
1000
1000
2000
2000
4000
C000
ENDCHAR
STARTCHAR zero
ENCODING 48
SWIDTH 602 0
DWIDTH 12 0
BBX 10 14 1 0
BITMAP
1E00
2300
6180
4080
C0C0
C0C0
C0C0
C0C0
C0C0
C0C0
4080
6180
2100
1E00
ENDCHAR
STARTCHAR one
ENCODING 49
SWIDTH 602 0
DWIDTH 12 0
BBX 10 14 2 0
BITMAP
0400
7C00
8C00
0C00
0C00
0C00
0C00
0C00
0C00
0C00
0C00
0C00
0C00
FFC0
ENDCHAR
STARTCHAR two
ENCODING 50
SWIDTH 602 0
DWIDTH 12 0
BBX 8 14 2 0
BITMAP
7C
86
03
03
03
03
06
0C
18
30
60
60
C0
FF
ENDCHAR
STARTCHAR three
ENCODING 51
SWIDTH 602 0
DWIDTH 12 0
BBX 8 14 2 0
BITMAP
FC
87
03
03
03
06
78
0E
03
03
03
03
86
FC
ENDCHAR
STARTCHAR four
ENCODING 52
SWIDTH 602 0
DWIDTH 12 0
BBX 10 14 1 0
BITMAP
0300
0700
0700
0B00
1300
3300
2300
4300
C300
FFC0
0300
0300
0300
0300
ENDCHAR
STARTCHAR five
ENCODING 53
SWIDTH 602 0
DWIDTH 12 0
BBX 7 14 3 0
BITMAP
FE
80
80
80
80
F0
1C
0C
06
06
06
06
8C
F8
ENDCHAR
STARTCHAR six
ENCODING 54
SWIDTH 602 0
DWIDTH 12 0
BBX 9 14 2 0
BITMAP
1F00
3100
6000
4000
C000
DE00
E300
C180
C180
C180
C180
4180
6300
1E00
ENDCHAR
STARTCHAR seven
ENCODING 55
SWIDTH 602 0
DWIDTH 12 0
BBX 9 14 2 0
BITMAP
FF80
FF80
0100
0300
0200
0400
0400
0800
1800
1000
3000
3000
6000
6000
ENDCHAR
STARTCHAR eight
ENCODING 56
SWIDTH 602 0
DWIDTH 12 0
BBX 9 14 2 0
BITMAP
1E00
3300
6100
6100
7300
3E00
1C00
2F00
4380
C180
C180
C180
6300
3E00
ENDCHAR
STARTCHAR nine
ENCODING 57
SWIDTH 602 0
DWIDTH 12 0
BBX 9 14 2 0
BITMAP
3C00
6300
C100
C180
C180
C180
C180
6380
3D80
0180
0100
0300
4600
7C00
ENDCHAR
STARTCHAR colon
ENCODING 58
SWIDTH 602 0
DWIDTH 12 0
BBX 3 11 4 0
BITMAP
E0
E0
E0
00
00
00
00
00
E0
E0
E0
ENDCHAR
STARTCHAR semicolon
ENCODING 59
SWIDTH 602 0
DWIDTH 12 0
BBX 3 14 4 -3
BITMAP
E0
E0
E0
00
00
00
00
00
E0
E0
E0
20
60
C0
ENDCHAR
STARTCHAR less
ENCODING 60
SWIDTH 602 0
DWIDTH 12 0
BBX 9 11 0 0
BITMAP
0080
0180
0600
1800
6000
C000
6000
1800
0600
0180
0080
ENDCHAR
STARTCHAR equal
ENCODING 61
SWIDTH 602 0
DWIDTH 12 0
BBX 10 5 1 3
BITMAP
FFC0
0000
0000
0000
FFC0
ENDCHAR
STARTCHAR greater
ENCODING 62
SWIDTH 602 0
DWIDTH 12 0
BBX 9 11 1 0
BITMAP
8000
C000
3000
0C00
0300
0180
0300
0C00
3000
C000
8000
ENDCHAR
STARTCHAR question
ENCODING 63
SWIDTH 602 0
DWIDTH 12 0
BBX 9 14 2 0
BITMAP
FE00
8300
8180
0180
0100
0200
0400
0800
1800
1800
0000
0000
1800
1800
ENDCHAR
STARTCHAR at
ENCODING 64
SWIDTH 602 0
DWIDTH 12 0
BBX 11 14 1 0
BITMAP
0F80
30C0
6040
43C0
8440
8840
8840
88C0
88C0
89C0
4760
4000
3080
1F00
ENDCHAR
STARTCHAR A
ENCODING 65
SWIDTH 602 0
DWIDTH 12 0
BBX 12 14 0 0
BITMAP
0600
0700
0B00
0B00
0980
1180
1180
10C0
20C0
3FC0
2060
4060
4070
C030
ENDCHAR
STARTCHAR B
ENCODING 66
SWIDTH 602 0
DWIDTH 12 0
BBX 9 14 2 0
BITMAP
FE00
C700
C300
C300
C300
C600
FC00
C600
C300
C180
C180
C180
C300
FE00
ENDCHAR
STARTCHAR C
ENCODING 67
SWIDTH 602 0
DWIDTH 12 0
BBX 10 14 1 0
BITMAP
0FC0
3840
6000
6000
C000
C000
C000
C000
C000
C000
6000
6000
3840
0FC0
ENDCHAR
STARTCHAR D
ENCODING 68
SWIDTH 602 0
DWIDTH 12 0
BBX 10 14 1 0
BITMAP
FE00
C300
C180
C0C0
C0C0
C0C0
C0C0
C0C0
C0C0
C0C0
C180
C180
C300
FE00
ENDCHAR
STARTCHAR E
ENCODING 69
SWIDTH 602 0
DWIDTH 12 0
BBX 9 14 2 0
BITMAP
FF80
C000
C000
C000
C000
C000
FF00
C000
C000
C000
C000
C000
C000
FF80
ENDCHAR
STARTCHAR F
ENCODING 70
SWIDTH 602 0
DWIDTH 12 0
BBX 9 14 2 0
BITMAP
FF80
C000
C000
C000
C000
C000
FF00
C000
C000
C000
C000
C000
C000
C000
ENDCHAR
STARTCHAR G
ENCODING 71
SWIDTH 602 0
DWIDTH 12 0
BBX 10 14 1 0
BITMAP
0FC0
3040
6000
6000
C000
C000
C000
C000
C0C0
C0C0
60C0
60C0
38C0
0FC0
ENDCHAR
STARTCHAR H
ENCODING 72
SWIDTH 602 0
DWIDTH 12 0
BBX 9 14 1 0
BITMAP
C180
C180
C180
C180
C180
C180
FF80
C180
C180
C180
C180
C180
C180
C180
ENDCHAR
STARTCHAR I
ENCODING 73
SWIDTH 602 0
DWIDTH 12 0
BBX 8 14 2 0
BITMAP
FF
18
18
18
18
18
18
18
18
18
18
18
18
FF
ENDCHAR
STARTCHAR J
ENCODING 74
SWIDTH 602 0
DWIDTH 12 0
BBX 7 14 2 0
BITMAP
7E
06
06
06
06
06
06
06
06
06
06
06
8C
F8
ENDCHAR
STARTCHAR K
ENCODING 75
SWIDTH 602 0
DWIDTH 12 0
BBX 10 14 2 0
BITMAP
C180
C300
C200
C400
C800
D800
D000
F800
DC00
CE00
C600
C300
C380
C1C0
ENDCHAR
STARTCHAR L
ENCODING 76
SWIDTH 602 0
DWIDTH 12 0
BBX 9 14 2 0
BITMAP
C000
C000
C000
C000
C000
C000
C000
C000
C000
C000
C000
C000
C000
FF80
ENDCHAR
STARTCHAR M
ENCODING 77
SWIDTH 602 0
DWIDTH 12 0
BBX 10 14 1 0
BITMAP
C0C0
C0C0
E1C0
A140
A140
A140
9240
9240
9240
9240
8C40
8C40
8C40
8040
ENDCHAR
STARTCHAR N
ENCODING 78
SWIDTH 602 0
DWIDTH 12 0
BBX 9 14 1 0
BITMAP
C080
E080
E080
F080
B080
9880
9880
8C80
8E80
8680
8780
8380
8180
8180
ENDCHAR
STARTCHAR O
ENCODING 79
SWIDTH 602 0
DWIDTH 12 0
BBX 11 14 0 0
BITMAP
1F00
3180
60C0
60C0
C060
C060
C060
C060
C060
C060
60C0
60C0
3180
1F00
ENDCHAR
STARTCHAR P
ENCODING 80
SWIDTH 602 0
DWIDTH 12 0
BBX 9 14 2 0
BITMAP
FE00
C380
C180
C180
C180
C180
C300
FC00
C000
C000
C000
C000
C000
C000
ENDCHAR
STARTCHAR Q
ENCODING 81
SWIDTH 602 0
DWIDTH 12 0
BBX 12 17 0 -3
BITMAP
1F00
3180
60C0
60C0
C060
C060
C060
C060
C060
C060
60E0
60C0
31C0
1F80
0180
00F0
0020
ENDCHAR
STARTCHAR R
ENCODING 82
SWIDTH 602 0
DWIDTH 12 0
BBX 10 14 2 0
BITMAP
FC00
C700
C300
C300
C300
C700
FE00
CC00
CC00
C600
C700
C300
C180
C1C0
ENDCHAR
STARTCHAR S
ENCODING 83
SWIDTH 602 0
DWIDTH 12 0
BBX 9 14 2 0
BITMAP
3F00
6100
C000
C000
E000
7000
3C00
0F00
0380
0180
0180
0180
8300
7E00
ENDCHAR
STARTCHAR T
ENCODING 84
SWIDTH 602 0
DWIDTH 12 0
BBX 12 14 0 0
BITMAP
FFF0
0600
0600
0600
0600
0600
0600
0600
0600
0600
0600
0600
0600
0600
ENDCHAR
STARTCHAR U
ENCODING 85
SWIDTH 602 0
DWIDTH 12 0
BBX 9 14 2 0
BITMAP
C080
C080
C080
C080
C080
C080
C080
C080
C080
C080
C080
C080
6100
3E00
ENDCHAR
STARTCHAR V
ENCODING 86
SWIDTH 602 0
DWIDTH 12 0
BBX 12 14 0 0
BITMAP
C030
6020
6020
6040
3040
3040
3080
1880
1880
1900
0D00
0F00
0E00
0600
ENDCHAR
STARTCHAR W
ENCODING 87
SWIDTH 602 0
DWIDTH 12 0
BBX 12 14 0 0
BITMAP
8010
8610
8610
CE30
CB20
CB20
CB20
4B20
5160
51E0
71E0
71C0
60C0
60C0
ENDCHAR
STARTCHAR X
ENCODING 88
SWIDTH 602 0
DWIDTH 12 0
BBX 12 14 0 0
BITMAP
E020
7040
30C0
1880
1D00
0F00
0600
0700
0B00
1980
11C0
20C0
6060
C070
ENDCHAR
STARTCHAR Y
ENCODING 89
SWIDTH 602 0
DWIDTH 12 0
BBX 12 14 0 0
BITMAP
E030
6020
7040
3080
1880
1D00
0F00
0600
0600
0600
0600
0600
0600
0600
ENDCHAR
STARTCHAR Z
ENCODING 90
SWIDTH 602 0
DWIDTH 12 0
BBX 10 14 1 0
BITMAP
FFC0
01C0
0180
0380
0700
0600
0E00
1C00
1800
3000
7000
6000
C000
FFC0
ENDCHAR
STARTCHAR bracketleft
ENCODING 91
SWIDTH 602 0
DWIDTH 12 0
BBX 5 17 5 -3
BITMAP
F8
80
80
80
80
80
80
80
80
80
80
80
80
80
80
80
F8
ENDCHAR
STARTCHAR backslash
ENCODING 92
SWIDTH 602 0
DWIDTH 12 0
BBX 11 17 0 -3
BITMAP
C000
4000
2000
2000
1000
1000
0800
0C00
0400
0600
0200
0100
0100
0080
0080
0040
0060
ENDCHAR
STARTCHAR bracketright
ENCODING 93
SWIDTH 602 0
DWIDTH 12 0
BBX 5 17 2 -3
BITMAP
F8
08
08
08
08
08
08
08
08
08
08
08
08
08
08
08
F8
ENDCHAR
STARTCHAR asciicircum
ENCODING 94
SWIDTH 602 0
DWIDTH 12 0
BBX 10 10 1 3
BITMAP
0400
0C00
0C00
1200
1200
2100
2100
4080
4080
C0C0
ENDCHAR
STARTCHAR underscore
ENCODING 95
SWIDTH 602 0
DWIDTH 12 0
BBX 12 1 0 -2
BITMAP
FFF0
ENDCHAR
STARTCHAR grave
ENCODING 96
SWIDTH 602 0
DWIDTH 12 0
BBX 4 3 4 11
BITMAP
C0
60
30
ENDCHAR
STARTCHAR a
ENCODING 97
SWIDTH 602 0
DWIDTH 12 0
BBX 10 11 1 0
BITMAP
7E00
4300
0300
0300
0300
3F00
6300
C300
C300
C700
7DC0
ENDCHAR
STARTCHAR b
ENCODING 98
SWIDTH 602 0
DWIDTH 12 0
BBX 9 14 2 0
BITMAP
C000
C000
C000
DE00
F300
E180
C180
C180
C180
C180
C180
C300
E300
DE00
ENDCHAR
STARTCHAR c
ENCODING 99
SWIDTH 602 0
DWIDTH 12 0
BBX 9 11 2 0
BITMAP
1F80
7080
6000
C000
C000
C000
C000
C000
6000
7080
1F80
ENDCHAR
STARTCHAR d
ENCODING 100
SWIDTH 602 0
DWIDTH 12 0
BBX 9 14 1 0
BITMAP
0180
0180
0180
3D80
6380
6180
C180
C180
C180
C180
C180
C380
6780
3D80
ENDCHAR
STARTCHAR e
ENCODING 101
SWIDTH 602 0
DWIDTH 12 0
BBX 9 11 2 0
BITMAP
1E00
6300
6180
C180
C180
FF80
C000
C000
4000
6080
1F80
ENDCHAR
STARTCHAR f
ENCODING 102
SWIDTH 602 0
DWIDTH 12 0
BBX 10 16 2 0
BITMAP
0FC0
1C00
1800
1800
1800
FFC0
1800
1800
1800
1800
1800
1800
1800
1800
1800
1800
ENDCHAR
STARTCHAR g
ENCODING 103
SWIDTH 602 0
DWIDTH 12 0
BBX 9 15 1 -4
BITMAP
1E80
6380
6180
C180
C180
C180
C180
C180
C380
6780
3D80
0180
0180
4300
7E00
ENDCHAR
STARTCHAR h
ENCODING 104
SWIDTH 602 0
DWIDTH 12 0
BBX 9 14 2 0
BITMAP
C000
C000
C000
CF00
DF80
F180
C180
C180
C180
C180
C180
C180
C180
C180
ENDCHAR
STARTCHAR i
ENCODING 105
SWIDTH 602 0
DWIDTH 12 0
BBX 6 14 2 0
BITMAP
0C
0C
00
FC
0C
0C
0C
0C
0C
0C
0C
0C
0C
0C
ENDCHAR
STARTCHAR j
ENCODING 106
SWIDTH 602 0
DWIDTH 12 0
BBX 7 18 2 -4
BITMAP
06
06
00
7E
06
06
06
06
06
06
06
06
06
06
06
06
8C
F8
ENDCHAR
STARTCHAR k
ENCODING 107
SWIDTH 602 0
DWIDTH 12 0
BBX 10 14 2 0
BITMAP
C000
C000
C000
C100
C200
C400
C800
D000
F800
DC00
CE00
C700
C380
C1C0
ENDCHAR
STARTCHAR l
ENCODING 108
SWIDTH 602 0
DWIDTH 12 0
BBX 6 14 2 0
BITMAP
FC
0C
0C
0C
0C
0C
0C
0C
0C
0C
0C
0C
0C
0C
ENDCHAR
STARTCHAR m
ENCODING 109
SWIDTH 602 0
DWIDTH 12 0
BBX 11 11 1 0
BITMAP
B9C0
A720
C620
8420
8420
8420
8420
8420
8420
8420
8420
ENDCHAR
STARTCHAR n
ENCODING 110
SWIDTH 602 0
DWIDTH 12 0
BBX 9 11 2 0
BITMAP
CF00
DF80
F180
C180
C180
C180
C180
C180
C180
C180
C180
ENDCHAR
STARTCHAR o
ENCODING 111
SWIDTH 602 0
DWIDTH 12 0
BBX 10 11 1 0
BITMAP
1E00
7380
6180
C0C0
C0C0
C0C0
C0C0
C0C0
6180
7380
1E00
ENDCHAR
STARTCHAR p
ENCODING 112
SWIDTH 602 0
DWIDTH 12 0
BBX 9 15 2 -4
BITMAP
DE00
F300
E180
C180
C180
C180
C180
C180
C300
E300
DE00
C000
C000
C000
C000
ENDCHAR
STARTCHAR q
ENCODING 113
SWIDTH 602 0
DWIDTH 12 0
BBX 9 15 1 -4
BITMAP
3D80
6380
6180
C180
C180
C180
C180
C180
C380
6780
3D80
0180
0180
0180
0180
ENDCHAR
STARTCHAR r
ENCODING 114
SWIDTH 602 0
DWIDTH 12 0
BBX 8 11 3 0
BITMAP
DF
F1
E1
C0
C0
C0
C0
C0
C0
C0
C0
ENDCHAR
STARTCHAR s
ENCODING 115
SWIDTH 602 0
DWIDTH 12 0
BBX 8 11 2 0
BITMAP
3E
62
C0
C0
F8
3E
0F
03
03
86
FC
ENDCHAR
STARTCHAR t
ENCODING 116
SWIDTH 602 0
DWIDTH 12 0
BBX 10 13 1 0
BITMAP
1800
1800
FFC0
1800
1800
1800
1800
1800
1800
1800
1800
1C00
0FC0
ENDCHAR
STARTCHAR u
ENCODING 117
SWIDTH 602 0
DWIDTH 12 0
BBX 9 11 1 0
BITMAP
C180
C180
C180
C180
C180
C180
C180
C180
C780
7D80
7980
ENDCHAR
STARTCHAR v
ENCODING 118
SWIDTH 602 0
DWIDTH 12 0
BBX 11 11 0 0
BITMAP
C060
6040
6040
7080
3080
3100
1900
1B00
1E00
0E00
0C00
ENDCHAR
STARTCHAR w
ENCODING 119
SWIDTH 602 0
DWIDTH 12 0
BBX 12 11 0 0
BITMAP
C010
C610
C620
6620
6920
6920
6960
6940
71C0
30C0
30C0
ENDCHAR
STARTCHAR x
ENCODING 120
SWIDTH 602 0
DWIDTH 12 0
BBX 10 11 1 0
BITMAP
E080
6100
3100
3A00
1C00
0C00
1E00
1700
2300
6180
C1C0
ENDCHAR
STARTCHAR y
ENCODING 121
SWIDTH 602 0
DWIDTH 12 0
BBX 11 15 1 -4
BITMAP
C060
6040
6040
7080
3080
3100
1900
1A00
0E00
0E00
0C00
0400
0800
1800
7000
ENDCHAR
STARTCHAR z
ENCODING 122
SWIDTH 602 0
DWIDTH 12 0
BBX 9 11 1 0
BITMAP
FF80
0100
0200
0600
0400
0800
1000
2000
6000
4000
FF80
ENDCHAR
STARTCHAR braceleft
ENCODING 123
SWIDTH 602 0
DWIDTH 12 0
BBX 8 17 2 -3
BITMAP
0F
18
18
18
08
08
08
18
E0
18
08
08
18
18
18
18
0F
ENDCHAR
STARTCHAR bar
ENCODING 124
SWIDTH 602 0
DWIDTH 12 0
BBX 1 17 5 -3
BITMAP
80
80
80
80
80
80
80
80
80
80
80
80
80
80
80
80
80
ENDCHAR
STARTCHAR braceright
ENCODING 125
SWIDTH 602 0
DWIDTH 12 0
BBX 7 17 2 -3
BITMAP
F0
18
18
18
18
10
10
18
0E
18
10
10
18
18
18
18
F0
ENDCHAR
STARTCHAR asciitilde
ENCODING 126
SWIDTH 602 0
DWIDTH 12 0
BBX 10 5 1 3
BITMAP
7040
5840
8C40
8680
8380
ENDCHAR
STARTCHAR space
ENCODING 160
SWIDTH 602 0
DWIDTH 12 0
BBX 1 1 0 0
BITMAP
00
ENDCHAR
STARTCHAR exclamdown
ENCODING 161
SWIDTH 602 0
DWIDTH 12 0
BBX 2 15 5 -4
BITMAP
80
80
00
00
80
80
80
80
C0
C0
C0
C0
C0
C0
C0
ENDCHAR
STARTCHAR cent
ENCODING 162
SWIDTH 602 0
DWIDTH 12 0
BBX 8 14 2 0
BITMAP
08
08
3F
69
E8
C8
C8
C8
C8
48
69
3F
08
08
ENDCHAR
STARTCHAR sterling
ENCODING 163
SWIDTH 602 0
DWIDTH 12 0
BBX 8 14 2 0
BITMAP
0F
10
30
30
30
30
FC
30
30
30
30
60
E0
FF
ENDCHAR
STARTCHAR currency
ENCODING 164
SWIDTH 602 0
DWIDTH 12 0
BBX 10 10 1 2
BITMAP
8040
7F80
6180
4080
4080
4080
4080
6180
7F80
8040
ENDCHAR
STARTCHAR yen
ENCODING 165
SWIDTH 602 0
DWIDTH 12 0
BBX 12 14 0 0
BITMAP
E030
6060
3040
3880
1D80
0D00
0600
3FC0
0600
3FC0
0600
0600
0600
0600
ENDCHAR
STARTCHAR brokenbar
ENCODING 166
SWIDTH 602 0
DWIDTH 12 0
BBX 1 17 5 -3
BITMAP
80
80
80
80
80
80
80
00
00
00
80
80
80
80
80
80
80
ENDCHAR
STARTCHAR section
ENCODING 167
SWIDTH 602 0
DWIDTH 12 0
BBX 8 18 2 -4
BITMAP
3E
42
80
80
E0
F8
FC
8E
82
C2
F2
7C
1E
07
03
03
86
FC
ENDCHAR
STARTCHAR dieresis
ENCODING 168
SWIDTH 602 0
DWIDTH 12 0
BBX 6 1 3 13
BITMAP
CC
ENDCHAR
STARTCHAR copyright
ENCODING 169
SWIDTH 602 0
DWIDTH 12 0
BBX 11 14 0 0
BITMAP
1F00
20C0
4040
8F20
9120
A020
A020
A020
A020
9120
8F20
4040
6080
1F00
ENDCHAR
STARTCHAR ordfeminine
ENCODING 170
SWIDTH 602 0
DWIDTH 12 0
BBX 7 7 3 7
BITMAP
78
C4
04
7C
84
84
7E
ENDCHAR
STARTCHAR guillemotleft
ENCODING 171
SWIDTH 602 0
DWIDTH 12 0
BBX 10 9 1 1
BITMAP
0840
1880
3100
6200
C400
6200
3100
1880
0840
ENDCHAR
STARTCHAR logicalnot
ENCODING 172
SWIDTH 602 0
DWIDTH 12 0
BBX 10 5 1 3
BITMAP
FFC0
0040
0040
0040
0040
ENDCHAR
STARTCHAR hyphen
ENCODING 173
SWIDTH 602 0
DWIDTH 12 0
BBX 8 1 2 6
BITMAP
FF
ENDCHAR
STARTCHAR registered
ENCODING 174
SWIDTH 602 0
DWIDTH 12 0
BBX 7 8 3 6
BITMAP
38
44
BA
BA
B2
AA
44
38
ENDCHAR
STARTCHAR macron
ENCODING 175
SWIDTH 602 0
DWIDTH 12 0
BBX 6 1 3 13
BITMAP
FC
ENDCHAR
STARTCHAR degree
ENCODING 176
SWIDTH 602 0
DWIDTH 12 0
BBX 3 3 4 11
BITMAP
E0
A0
E0
ENDCHAR
STARTCHAR plusminus
ENCODING 177
SWIDTH 602 0
DWIDTH 12 0
BBX 9 11 1 0
BITMAP
0800
0800
0800
0800
FF80
0800
0800
0800
0000
0000
FF80
ENDCHAR
STARTCHAR twosuperior
ENCODING 178
SWIDTH 602 0
DWIDTH 12 0
BBX 4 7 -2 7
BITMAP
E0
90
10
20
40
80
F0
ENDCHAR
STARTCHAR threesuperior
ENCODING 179
SWIDTH 602 0
DWIDTH 12 0
BBX 4 7 -2 7
BITMAP
E0
10
10
60
10
10
E0
ENDCHAR
STARTCHAR acute
ENCODING 180
SWIDTH 602 0
DWIDTH 12 0
BBX 4 3 4 11
BITMAP
30
60
C0
ENDCHAR
STARTCHAR mu
ENCODING 181
SWIDTH 602 0
DWIDTH 12 0
BBX 9 14 1 -3
BITMAP
C180
C180
C180
C180
C180
C180
C180
C380
C780
FD80
F980
C000
C000
C000
ENDCHAR
STARTCHAR paragraph
ENCODING 182
SWIDTH 602 0
DWIDTH 12 0
BBX 8 17 1 -3
BITMAP
7F
F9
F9
F9
F9
79
39
09
09
09
09
09
09
09
09
09
09
ENDCHAR
STARTCHAR periodcentered
ENCODING 183
SWIDTH 602 0
DWIDTH 12 0
BBX 2 2 5 5
BITMAP
C0
C0
ENDCHAR
STARTCHAR cedilla
ENCODING 184
SWIDTH 602 0
DWIDTH 12 0
BBX 3 5 5 -4
BITMAP
C0
40
20
20
E0
ENDCHAR
STARTCHAR onesuperior
ENCODING 185
SWIDTH 602 0
DWIDTH 12 0
BBX 5 7 -1 7
BITMAP
E0
A0
20
20
20
20
F8
ENDCHAR
STARTCHAR ordmasculine
ENCODING 186
SWIDTH 602 0
DWIDTH 12 0
BBX 8 7 2 7
BITMAP
3C
66
C3
C3
C3
66
3C
ENDCHAR
STARTCHAR guillemotright
ENCODING 187
SWIDTH 602 0
DWIDTH 12 0
BBX 10 9 1 1
BITMAP
8400
4600
2300
1180
08C0
1180
2300
4600
8400
ENDCHAR
STARTCHAR onequarter
ENCODING 188
SWIDTH 602 0
DWIDTH 12 0
BBX 12 14 2 0
BITMAP
E030
A060
2040
2080
2100
2300
FA00
0460
0860
08A0
1120
21F0
6020
C020
ENDCHAR
STARTCHAR onehalf
ENCODING 189
SWIDTH 602 0
DWIDTH 12 0
BBX 12 14 2 0
BITMAP
E030
A060
2040
2080
2100
2300
FA00
04E0
0890
0810
1020
2040
6080
C0F0
ENDCHAR
STARTCHAR threequarters
ENCODING 190
SWIDTH 602 0
DWIDTH 12 0
BBX 12 14 2 0
BITMAP
E030
1060
1040
6080
1100
1300
E200
0460
0860
08A0
1120
21F0
6020
C020
ENDCHAR
STARTCHAR questiondown
ENCODING 191
SWIDTH 602 0
DWIDTH 12 0
BBX 9 15 1 -4
BITMAP
0C00
0C00
0000
0000
0C00
0C00
0C00
1800
3000
6000
C000
C000
C080
6080
3F80
ENDCHAR
STARTCHAR Agrave
ENCODING 192
SWIDTH 602 0
DWIDTH 12 0
BBX 12 18 0 0
BITMAP
0C00
0600
0300
0000
0600
0700
0B00
0B00
0980
1180
1180
10C0
20C0
3FC0
2060
4060
4070
C030
ENDCHAR
STARTCHAR Aacute
ENCODING 193
SWIDTH 602 0
DWIDTH 12 0
BBX 12 18 0 0
BITMAP
0300
0600
0C00
0000
0600
0700
0B00
0B00
0980
1180
1180
10C0
20C0
3FC0
2060
4060
4070
C030
ENDCHAR
STARTCHAR Acircumflex
ENCODING 194
SWIDTH 602 0
DWIDTH 12 0
BBX 12 18 0 0
BITMAP
0700
0D80
18C0
0000
0600
0700
0B00
0B00
0980
1180
1180
10C0
20C0
3FC0
2060
4060
4070
C030
ENDCHAR
STARTCHAR Atilde
ENCODING 195
SWIDTH 602 0
DWIDTH 12 0
BBX 12 17 0 0
BITMAP
1EC0
1BC0
0000
0600
0700
0B00
0B00
0980
1180
1180
10C0
20C0
3FC0
2060
4060
4070
C030
ENDCHAR
STARTCHAR Adieresis
ENCODING 196
SWIDTH 602 0
DWIDTH 12 0
BBX 12 16 0 0
BITMAP
1980
0000
0600
0700
0B00
0B00
0980
1180
1180
10C0
20C0
3FC0
2060
4060
4070
C030
ENDCHAR
STARTCHAR Aring
ENCODING 197
SWIDTH 602 0
DWIDTH 12 0
BBX 12 18 0 0
BITMAP
0E00
0A00
0E00
0000
0600
0700
0B00
0B00
0980
1180
1180
10C0
20C0
3FC0
2060
4060
4070
C030
ENDCHAR
STARTCHAR AE
ENCODING 198
SWIDTH 602 0
DWIDTH 12 0
BBX 12 14 0 0
BITMAP
03E0
0700
0700
0700
0B00
0B00
1300
13E0
1300
2300
3F00
4300
4300
C3F0
ENDCHAR
STARTCHAR Ccedilla
ENCODING 199
SWIDTH 602 0
DWIDTH 12 0
BBX 10 18 1 -4
BITMAP
0FC0
3840
6000
6000
C000
C000
C000
C000
C000
C000
6000
6000
3840
0FC0
0400
0200
0200
0E00
ENDCHAR
STARTCHAR Egrave
ENCODING 200
SWIDTH 602 0
DWIDTH 12 0
BBX 9 18 2 0
BITMAP
3000
1800
0C00
0000
FF80
C000
C000
C000
C000
C000
FF00
C000
C000
C000
C000
C000
C000
FF80
ENDCHAR
STARTCHAR Eacute
ENCODING 201
SWIDTH 602 0
DWIDTH 12 0
BBX 9 18 2 0
BITMAP
0C00
1800
3000
0000
FF80
C000
C000
C000
C000
C000
FF00
C000
C000
C000
C000
C000
C000
FF80
ENDCHAR
STARTCHAR Ecircumflex
ENCODING 202
SWIDTH 602 0
DWIDTH 12 0
BBX 9 18 2 0
BITMAP
1C00
3600
6300
0000
FF80
C000
C000
C000
C000
C000
FF00
C000
C000
C000
C000
C000
C000
FF80
ENDCHAR
STARTCHAR Edieresis
ENCODING 203
SWIDTH 602 0
DWIDTH 12 0
BBX 9 16 2 0
BITMAP
6600
0000
FF80
C000
C000
C000
C000
C000
FF00
C000
C000
C000
C000
C000
C000
FF80
ENDCHAR
STARTCHAR Igrave
ENCODING 204
SWIDTH 602 0
DWIDTH 12 0
BBX 8 18 2 0
BITMAP
30
18
0C
00
FF
18
18
18
18
18
18
18
18
18
18
18
18
FF
ENDCHAR
STARTCHAR Iacute
ENCODING 205
SWIDTH 602 0
DWIDTH 12 0
BBX 8 18 2 0
BITMAP
0C
18
30
00
FF
18
18
18
18
18
18
18
18
18
18
18
18
FF
ENDCHAR
STARTCHAR Icircumflex
ENCODING 206
SWIDTH 602 0
DWIDTH 12 0
BBX 8 18 2 0
BITMAP
38
6C
C6
00
FF
18
18
18
18
18
18
18
18
18
18
18
18
FF
ENDCHAR
STARTCHAR Idieresis
ENCODING 207
SWIDTH 602 0
DWIDTH 12 0
BBX 8 16 2 0
BITMAP
66
00
FF
18
18
18
18
18
18
18
18
18
18
18
18
FF
ENDCHAR
STARTCHAR Eth
ENCODING 208
SWIDTH 602 0
DWIDTH 12 0
BBX 11 14 0 0
BITMAP
7F00
6180
60C0
6060
6060
6060
F860
6060
6060
6060
60C0
60C0
6180
7F00
ENDCHAR
STARTCHAR Ntilde
ENCODING 209
SWIDTH 602 0
DWIDTH 12 0
BBX 9 17 1 0
BITMAP
7B00
6F00
0000
C080
E080
E080
F080
B080
9880
9880
8C80
8E80
8680
8780
8380
8180
8180
ENDCHAR
STARTCHAR Ograve
ENCODING 210
SWIDTH 602 0
DWIDTH 12 0
BBX 11 18 0 0
BITMAP
0C00
0600
0300
0000
1F00
3180
60C0
60C0
C060
C060
C060
C060
C060
C060
60C0
60C0
3180
1F00
ENDCHAR
STARTCHAR Oacute
ENCODING 211
SWIDTH 602 0
DWIDTH 12 0
BBX 11 18 0 0
BITMAP
0600
0C00
1800
0000
1F00
3180
60C0
60C0
C060
C060
C060
C060
C060
C060
60C0
60C0
3180
1F00
ENDCHAR
STARTCHAR Ocircumflex
ENCODING 212
SWIDTH 602 0
DWIDTH 12 0
BBX 11 18 0 0
BITMAP
0E00
1B00
3180
0000
1F00
3180
60C0
60C0
C060
C060
C060
C060
C060
C060
60C0
60C0
3180
1F00
ENDCHAR
STARTCHAR Otilde
ENCODING 213
SWIDTH 602 0
DWIDTH 12 0
BBX 11 17 0 0
BITMAP
3D80
3780
0000
1F00
3180
60C0
60C0
C060
C060
C060
C060
C060
C060
60C0
60C0
3180
1F00
ENDCHAR
STARTCHAR Odieresis
ENCODING 214
SWIDTH 602 0
DWIDTH 12 0
BBX 11 16 0 0
BITMAP
3300
0000
1F00
3180
60C0
60C0
C060
C060
C060
C060
C060
C060
60C0
60C0
3180
1F00
ENDCHAR
STARTCHAR multiply
ENCODING 215
SWIDTH 602 0
DWIDTH 12 0
BBX 10 11 1 0
BITMAP
C040
40C0
2100
1200
1E00
0C00
1E00
3200
2100
C080
80C0
ENDCHAR
STARTCHAR Oslash
ENCODING 216
SWIDTH 602 0
DWIDTH 12 0
BBX 11 14 1 0
BITMAP
1F60
31C0
60C0
61C0
C360
C260
C460
C460
C860
D060
50C0
60C0
7180
DF00
ENDCHAR
STARTCHAR Ugrave
ENCODING 217
SWIDTH 602 0
DWIDTH 12 0
BBX 9 18 2 0
BITMAP
1800
0C00
0600
0000
C080
C080
C080
C080
C080
C080
C080
C080
C080
C080
C080
C080
6100
3E00
ENDCHAR
STARTCHAR Uacute
ENCODING 218
SWIDTH 602 0
DWIDTH 12 0
BBX 9 18 2 0
BITMAP
0C00
1800
3000
0000
C080
C080
C080
C080
C080
C080
C080
C080
C080
C080
C080
C080
6100
3E00
ENDCHAR
STARTCHAR Ucircumflex
ENCODING 219
SWIDTH 602 0
DWIDTH 12 0
BBX 9 18 2 0
BITMAP
1C00
3600
6300
0000
C080
C080
C080
C080
C080
C080
C080
C080
C080
C080
C080
C080
6100
3E00
ENDCHAR
STARTCHAR Udieresis
ENCODING 220
SWIDTH 602 0
DWIDTH 12 0
BBX 9 16 2 0
BITMAP
6600
0000
C080
C080
C080
C080
C080
C080
C080
C080
C080
C080
C080
C080
6100
3E00
ENDCHAR
STARTCHAR Yacute
ENCODING 221
SWIDTH 602 0
DWIDTH 12 0
BBX 12 18 0 0
BITMAP
0300
0600
0C00
0000
E030
6020
7040
3080
1880
1D00
0F00
0600
0600
0600
0600
0600
0600
0600
ENDCHAR
STARTCHAR Thorn
ENCODING 222
SWIDTH 602 0
DWIDTH 12 0
BBX 9 14 2 0
BITMAP
C000
C000
C000
FE00
C380
C180
C180
C180
C180
C300
FC00
C000
C000
C000
ENDCHAR
STARTCHAR germandbls
ENCODING 223
SWIDTH 602 0
DWIDTH 12 0
BBX 10 16 2 0
BITMAP
7E00
C700
C300
C300
C600
C400
C800
C800
CE00
C700
C380
C1C0
C0C0
C0C0
D0C0
DF80
ENDCHAR
STARTCHAR agrave
ENCODING 224
SWIDTH 602 0
DWIDTH 12 0
BBX 10 15 1 0
BITMAP
1800
0C00
0600
0000
7E00
4300
0300
0300
0300
3F00
6300
C300
C300
C700
7DC0
ENDCHAR
STARTCHAR aacute
ENCODING 225
SWIDTH 602 0
DWIDTH 12 0
BBX 10 15 1 0
BITMAP
0C00
1800
3000
0000
7E00
4300
0300
0300
0300
3F00
6300
C300
C300
C700
7DC0
ENDCHAR
STARTCHAR acircumflex
ENCODING 226
SWIDTH 602 0
DWIDTH 12 0
BBX 10 15 1 0
BITMAP
1C00
3600
6300
0000
7E00
4300
0300
0300
0300
3F00
6300
C300
C300
C700
7DC0
ENDCHAR
STARTCHAR atilde
ENCODING 227
SWIDTH 602 0
DWIDTH 12 0
BBX 10 14 1 0
BITMAP
7B00
6F00
0000
7E00
4300
0300
0300
0300
3F00
6300
C300
C300
C700
7DC0
ENDCHAR
STARTCHAR adieresis
ENCODING 228
SWIDTH 602 0
DWIDTH 12 0
BBX 10 13 1 0
BITMAP
3300
0000
7E00
4300
0300
0300
0300
3F00
6300
C300
C300
C700
7DC0
ENDCHAR
STARTCHAR aring
ENCODING 229
SWIDTH 602 0
DWIDTH 12 0
BBX 10 15 1 0
BITMAP
1C00
1400
1C00
0000
7E00
4300
0300
0300
0300
3F00
6300
C300
C300
C700
7DC0
ENDCHAR
STARTCHAR ae
ENCODING 230
SWIDTH 602 0
DWIDTH 12 0
BBX 11 11 1 0
BITMAP
7B80
4E40
0C60
0C60
0C60
7FE0
EC00
CC00
CC00
CE20
7BE0
ENDCHAR
STARTCHAR ccedilla
ENCODING 231
SWIDTH 602 0
DWIDTH 12 0
BBX 9 15 2 -4
BITMAP
1F80
7080
6000
C000
C000
C000
C000
C000
6000
7080
1F80
0800
0400
0400
1C00
ENDCHAR
STARTCHAR egrave
ENCODING 232
SWIDTH 602 0
DWIDTH 12 0
BBX 9 15 2 0
BITMAP
1800
0C00
0600
0000
1E00
6300
6180
C180
C180
FF80
C000
C000
4000
6080
1F80
ENDCHAR
STARTCHAR eacute
ENCODING 233
SWIDTH 602 0
DWIDTH 12 0
BBX 9 15 2 0
BITMAP
0C00
1800
3000
0000
1E00
6300
6180
C180
C180
FF80
C000
C000
4000
6080
1F80
ENDCHAR
STARTCHAR ecircumflex
ENCODING 234
SWIDTH 602 0
DWIDTH 12 0
BBX 9 15 2 0
BITMAP
1C00
3600
6300
0000
1E00
6300
6180
C180
C180
FF80
C000
C000
4000
6080
1F80
ENDCHAR
STARTCHAR edieresis
ENCODING 235
SWIDTH 602 0
DWIDTH 12 0
BBX 9 13 2 0
BITMAP
6600
0000
1E00
6300
6180
C180
C180
FF80
C000
C000
4000
6080
1F80
ENDCHAR
STARTCHAR igrave
ENCODING 236
SWIDTH 602 0
DWIDTH 12 0
BBX 7 15 2 0
BITMAP
18
0C
06
00
FC
0C
0C
0C
0C
0C
0C
0C
0C
0C
0C
ENDCHAR
STARTCHAR iacute
ENCODING 237
SWIDTH 602 0
DWIDTH 12 0
BBX 6 15 2 0
BITMAP
0C
18
30
00
FC
0C
0C
0C
0C
0C
0C
0C
0C
0C
0C
ENDCHAR
STARTCHAR icircumflex
ENCODING 238
SWIDTH 602 0
DWIDTH 12 0
BBX 8 15 2 0
BITMAP
1C
36
63
00
FC
0C
0C
0C
0C
0C
0C
0C
0C
0C
0C
ENDCHAR
STARTCHAR idieresis
ENCODING 239
SWIDTH 602 0
DWIDTH 12 0
BBX 7 13 2 0
BITMAP
66
00
FC
0C
0C
0C
0C
0C
0C
0C
0C
0C
0C
ENDCHAR
STARTCHAR eth
ENCODING 240
SWIDTH 602 0
DWIDTH 12 0
BBX 10 14 1 0
BITMAP
FE00
3C00
4200
1F00
7180
6180
C0C0
C0C0
C0C0
C0C0
C0C0
6180
7180
1E00
ENDCHAR
STARTCHAR ntilde
ENCODING 241
SWIDTH 602 0
DWIDTH 12 0
BBX 9 14 2 0
BITMAP
7B00
6F00
0000
CF00
DF80
F180
C180
C180
C180
C180
C180
C180
C180
C180
ENDCHAR
STARTCHAR ograve
ENCODING 242
SWIDTH 602 0
DWIDTH 12 0
BBX 10 15 1 0
BITMAP
1800
0C00
0600
0000
1E00
7380
6180
C0C0
C0C0
C0C0
C0C0
C0C0
6180
7380
1E00
ENDCHAR
STARTCHAR oacute
ENCODING 243
SWIDTH 602 0
DWIDTH 12 0
BBX 10 15 1 0
BITMAP
0600
0C00
1800
0000
1E00
7380
6180
C0C0
C0C0
C0C0
C0C0
C0C0
6180
7380
1E00
ENDCHAR
STARTCHAR ocircumflex
ENCODING 244
SWIDTH 602 0
DWIDTH 12 0
BBX 10 15 1 0
BITMAP
1C00
3600
6300
0000
1E00
7380
6180
C0C0
C0C0
C0C0
C0C0
C0C0
6180
7380
1E00
ENDCHAR
STARTCHAR otilde
ENCODING 245
SWIDTH 602 0
DWIDTH 12 0
BBX 10 14 1 0
BITMAP
7B00
6F00
0000
1E00
7380
6180
C0C0
C0C0
C0C0
C0C0
C0C0
6180
7380
1E00
ENDCHAR
STARTCHAR odieresis
ENCODING 246
SWIDTH 602 0
DWIDTH 12 0
BBX 10 13 1 0
BITMAP
3300
0000
1E00
7380
6180
C0C0
C0C0
C0C0
C0C0
C0C0
6180
7380
1E00
ENDCHAR
STARTCHAR divide
ENCODING 247
SWIDTH 602 0
DWIDTH 12 0
BBX 10 11 1 0
BITMAP
0C00
0C00
0000
0000
0000
FFC0
0000
0000
0000
0C00
0C00
ENDCHAR
STARTCHAR oslash
ENCODING 248
SWIDTH 602 0
DWIDTH 12 0
BBX 10 11 1 0
BITMAP
1FC0
7180
6380
C2C0
C4C0
CCC0
C8C0
D0C0
7180
6180
FE00
ENDCHAR
STARTCHAR ugrave
ENCODING 249
SWIDTH 602 0
DWIDTH 12 0
BBX 9 15 1 0
BITMAP
1800
0C00
0600
0000
C180
C180
C180
C180
C180
C180
C180
C180
C780
7D80
7980
ENDCHAR
STARTCHAR uacute
ENCODING 250
SWIDTH 602 0
DWIDTH 12 0
BBX 9 15 1 0
BITMAP
0C00
1800
3000
0000
C180
C180
C180
C180
C180
C180
C180
C180
C780
7D80
7980
ENDCHAR
STARTCHAR ucircumflex
ENCODING 251
SWIDTH 602 0
DWIDTH 12 0
BBX 9 15 1 0
BITMAP
1C00
3600
6300
0000
C180
C180
C180
C180
C180
C180
C180
C180
C780
7D80
7980
ENDCHAR
STARTCHAR udieresis
ENCODING 252
SWIDTH 602 0
DWIDTH 12 0
BBX 9 13 1 0
BITMAP
3300
0000
C180
C180
C180
C180
C180
C180
C180
C180
C780
7D80
7980
ENDCHAR
STARTCHAR yacute
ENCODING 253
SWIDTH 602 0
DWIDTH 12 0
BBX 11 19 1 -4
BITMAP
0600
0C00
1800
0000
C060
6040
6040
7080
3080
3100
1900
1A00
0E00
0E00
0C00
0400
0800
1800
7000
ENDCHAR
STARTCHAR thorn
ENCODING 254
SWIDTH 602 0
DWIDTH 12 0
BBX 9 17 2 -4
BITMAP
C000
C000
DE00
F300
E180
C180
C180
C180
C180
C180
C300
E300
DE00
C000
C000
C000
C000
ENDCHAR
STARTCHAR ydieresis
ENCODING 255
SWIDTH 602 0
DWIDTH 12 0
BBX 11 17 1 -4
BITMAP
3300
0000
C060
6040
6040
7080
3080
3100
1900
1A00
0E00
0E00
0C00
0400
0800
1800
7000
ENDCHAR
STARTCHAR Amacron
ENCODING 256
SWIDTH 602 0
DWIDTH 12 0
BBX 12 16 0 0
BITMAP
1F80
0000
0600
0700
0B00
0B00
0980
1180
1180
10C0
20C0
3FC0
2060
4060
4070
C030
ENDCHAR
STARTCHAR amacron
ENCODING 257
SWIDTH 602 0
DWIDTH 12 0
BBX 10 13 1 0
BITMAP
3F00
0000
7E00
4300
0300
0300
0300
3F00
6300
C300
C300
C700
7DC0
ENDCHAR
STARTCHAR Abreve
ENCODING 258
SWIDTH 602 0
DWIDTH 12 0
BBX 12 18 0 0
BITMAP
10C0
0D80
0700
0000
0600
0700
0B00
0B00
0980
1180
1180
10C0
20C0
3FC0
2060
4060
4070
C030
ENDCHAR
STARTCHAR abreve
ENCODING 259
SWIDTH 602 0
DWIDTH 12 0
BBX 10 15 1 0
BITMAP
4300
3600
1C00
0000
7E00
4300
0300
0300
0300
3F00
6300
C300
C300
C700
7DC0
ENDCHAR
STARTCHAR Aogonek
ENCODING 260
SWIDTH 602 0
DWIDTH 12 0
BBX 12 18 0 -4
BITMAP
0600
0700
0B00
0B00
0980
1180
1180
10C0
20C0
3FC0
2060
4060
4070
C030
0100
0200
0200
0380
ENDCHAR
STARTCHAR aogonek
ENCODING 261
SWIDTH 602 0
DWIDTH 12 0
BBX 10 15 1 -4
BITMAP
7E00
4300
0300
0300
0300
3F00
6300
C300
C300
C700
7DC0
0400
0800
0800
0E00
ENDCHAR
STARTCHAR Cacute
ENCODING 262
SWIDTH 602 0
DWIDTH 12 0
BBX 10 18 1 0
BITMAP
0300
0600
0C00
0000
0FC0
3840
6000
6000
C000
C000
C000
C000
C000
C000
6000
6000
3840
0FC0
ENDCHAR
STARTCHAR cacute
ENCODING 263
SWIDTH 602 0
DWIDTH 12 0
BBX 9 15 2 0
BITMAP
0600
0C00
1800
0000
1F80
7080
6000
C000
C000
C000
C000
C000
6000
7080
1F80
ENDCHAR
STARTCHAR Ccircumflex
ENCODING 264
SWIDTH 602 0
DWIDTH 12 0
BBX 10 18 1 0
BITMAP
0E00
1B00
3180
0000
0FC0
3840
6000
6000
C000
C000
C000
C000
C000
C000
6000
6000
3840
0FC0
ENDCHAR
STARTCHAR ccircumflex
ENCODING 265
SWIDTH 602 0
DWIDTH 12 0
BBX 9 15 2 0
BITMAP
1C00
3600
6300
0000
1F80
7080
6000
C000
C000
C000
C000
C000
6000
7080
1F80
ENDCHAR
STARTCHAR Cdotaccent
ENCODING 266
SWIDTH 602 0
DWIDTH 12 0
BBX 10 17 1 0
BITMAP
0C00
0C00
0000
0FC0
3840
6000
6000
C000
C000
C000
C000
C000
C000
6000
6000
3840
0FC0
ENDCHAR
STARTCHAR cdotaccent
ENCODING 267
SWIDTH 602 0
DWIDTH 12 0
BBX 9 14 2 0
BITMAP
0C00
0C00
0000
1F80
7080
6000
C000
C000
C000
C000
C000
6000
7080
1F80
ENDCHAR
STARTCHAR Ccaron
ENCODING 268
SWIDTH 602 0
DWIDTH 12 0
BBX 10 18 1 0
BITMAP
3180
1B00
0E00
0000
0FC0
3840
6000
6000
C000
C000
C000
C000
C000
C000
6000
6000
3840
0FC0
ENDCHAR
STARTCHAR ccaron
ENCODING 269
SWIDTH 602 0
DWIDTH 12 0
BBX 9 15 2 0
BITMAP
6300
3600
1C00
0000
1F80
7080
6000
C000
C000
C000
C000
C000
6000
7080
1F80
ENDCHAR
STARTCHAR Dcaron
ENCODING 270
SWIDTH 602 0
DWIDTH 12 0
BBX 10 18 1 0
BITMAP
6300
3600
1C00
0000
FE00
C300
C180
C0C0
C0C0
C0C0
C0C0
C0C0
C0C0
C0C0
C180
C180
C300
FE00
ENDCHAR
STARTCHAR dcaron
ENCODING 271
SWIDTH 602 0
DWIDTH 12 0
BBX 9 18 1 0
BITMAP
3180
1B00
0E00
0000
0180
0180
0180
3D80
6380
6180
C180
C180
C180
C180
C180
C380
6780
3D80
ENDCHAR
STARTCHAR Dcroat
ENCODING 272
SWIDTH 602 0
DWIDTH 12 0
BBX 11 14 0 0
BITMAP
7F00
6180
60C0
6060
6060
6060
F860
6060
6060
6060
60C0
60C0
6180
7F00
ENDCHAR
STARTCHAR dcroat
ENCODING 273
SWIDTH 602 0
DWIDTH 12 0
BBX 10 14 1 0
BITMAP
0180
3FC0
0180
3D80
6380
6180
C180
C180
C180
C180
C180
C380
6780
3D80
ENDCHAR
STARTCHAR Emacron
ENCODING 274
SWIDTH 602 0
DWIDTH 12 0
BBX 9 16 2 0
BITMAP
7E00
0000
FF80
C000
C000
C000
C000
C000
FF00
C000
C000
C000
C000
C000
C000
FF80
ENDCHAR
STARTCHAR emacron
ENCODING 275
SWIDTH 602 0
DWIDTH 12 0
BBX 9 13 2 0
BITMAP
3F00
0000
1E00
6300
6180
C180
C180
FF80
C000
C000
4000
6080
1F80
ENDCHAR
STARTCHAR Ebreve
ENCODING 276
SWIDTH 602 0
DWIDTH 12 0
BBX 9 18 2 0
BITMAP
8600
6C00
3800
0000
FF80
C000
C000
C000
C000
C000
FF00
C000
C000
C000
C000
C000
C000
FF80
ENDCHAR
STARTCHAR ebreve
ENCODING 277
SWIDTH 602 0
DWIDTH 12 0
BBX 9 15 2 0
BITMAP
4300
3600
1C00
0000
1E00
6300
6180
C180
C180
FF80
C000
C000
4000
6080
1F80
ENDCHAR
STARTCHAR Edotaccent
ENCODING 278
SWIDTH 602 0
DWIDTH 12 0
BBX 9 17 2 0
BITMAP
1800
1800
0000
FF80
C000
C000
C000
C000
C000
FF00
C000
C000
C000
C000
C000
C000
FF80
ENDCHAR
STARTCHAR edotaccent
ENCODING 279
SWIDTH 602 0
DWIDTH 12 0
BBX 9 14 2 0
BITMAP
0C00
0C00
0000
1E00
6300
6180
C180
C180
FF80
C000
C000
4000
6080
1F80
ENDCHAR
STARTCHAR Eogonek
ENCODING 280
SWIDTH 602 0
DWIDTH 12 0
BBX 9 18 2 -4
BITMAP
FF80
C000
C000
C000
C000
C000
FF00
C000
C000
C000
C000
C000
C000
FF80
1000
2000
2000
3800
ENDCHAR
STARTCHAR eogonek
ENCODING 281
SWIDTH 602 0
DWIDTH 12 0
BBX 9 15 2 -4
BITMAP
1E00
6300
6180
C180
C180
FF80
C000
C000
4000
6080
1F80
0400
0800
0800
0E00
ENDCHAR
STARTCHAR Ecaron
ENCODING 282
SWIDTH 602 0
DWIDTH 12 0
BBX 9 18 2 0
BITMAP
C600
6C00
3800
0000
FF80
C000
C000
C000
C000
C000
FF00
C000
C000
C000
C000
C000
C000
FF80
ENDCHAR
STARTCHAR ecaron
ENCODING 283
SWIDTH 602 0
DWIDTH 12 0
BBX 9 15 2 0
BITMAP
6300
3600
1C00
0000
1E00
6300
6180
C180
C180
FF80
C000
C000
4000
6080
1F80
ENDCHAR
STARTCHAR Gcircumflex
ENCODING 284
SWIDTH 602 0
DWIDTH 12 0
BBX 10 18 1 0
BITMAP
0E00
1B00
3180
0000
0FC0
3040
6000
6000
C000
C000
C000
C000
C0C0
C0C0
60C0
60C0
38C0
0FC0
ENDCHAR
STARTCHAR gcircumflex
ENCODING 285
SWIDTH 602 0
DWIDTH 12 0
BBX 9 19 1 -4
BITMAP
1C00
3600
6300
0000
1E80
6380
6180
C180
C180
C180
C180
C180
C380
6780
3D80
0180
0180
4300
7E00
ENDCHAR
STARTCHAR Gbreve
ENCODING 286
SWIDTH 602 0
DWIDTH 12 0
BBX 10 18 1 0
BITMAP
2180
1B00
0E00
0000
0FC0
3040
6000
6000
C000
C000
C000
C000
C0C0
C0C0
60C0
60C0
38C0
0FC0
ENDCHAR
STARTCHAR gbreve
ENCODING 287
SWIDTH 602 0
DWIDTH 12 0
BBX 9 19 1 -4
BITMAP
4300
3600
1C00
0000
1E80
6380
6180
C180
C180
C180
C180
C180
C380
6780
3D80
0180
0180
4300
7E00
ENDCHAR
STARTCHAR Gdotaccent
ENCODING 288
SWIDTH 602 0
DWIDTH 12 0
BBX 10 17 1 0
BITMAP
0C00
0C00
0000
0FC0
3040
6000
6000
C000
C000
C000
C000
C0C0
C0C0
60C0
60C0
38C0
0FC0
ENDCHAR
STARTCHAR gdotaccent
ENCODING 289
SWIDTH 602 0
DWIDTH 12 0
BBX 9 18 1 -4
BITMAP
0C00
0C00
0000
1E80
6380
6180
C180
C180
C180
C180
C180
C380
6780
3D80
0180
0180
4300
7E00
ENDCHAR
STARTCHAR Gcommaaccent
ENCODING 290
SWIDTH 602 0
DWIDTH 12 0
BBX 10 21 1 -7
BITMAP
0FC0
3040
6000
6000
C000
C000
C000
C000
C0C0
C0C0
60C0
60C0
38C0
0FC0
0000
0E00
0E00
0E00
0200
0600
0C00
ENDCHAR
STARTCHAR gcommaaccent
ENCODING 291
SWIDTH 602 0
DWIDTH 12 0
BBX 9 21 1 -4
BITMAP
0C00
1800
1000
1C00
1C00
0000
1E80
6380
6180
C180
C180
C180
C180
C180
C380
6780
3D80
0180
0180
4300
7E00
ENDCHAR
STARTCHAR Hcircumflex
ENCODING 292
SWIDTH 602 0
DWIDTH 12 0
BBX 9 18 1 0
BITMAP
1C00
3600
6300
0000
C180
C180
C180
C180
C180
C180
FF80
C180
C180
C180
C180
C180
C180
C180
ENDCHAR
STARTCHAR hcircumflex
ENCODING 293
SWIDTH 602 0
DWIDTH 12 0
BBX 9 18 2 0
BITMAP
3800
6C00
C600
0000
C000
C000
C000
CF00
DF80
F180
C180
C180
C180
C180
C180
C180
C180
C180
ENDCHAR
STARTCHAR Hbar
ENCODING 294
SWIDTH 602 0
DWIDTH 12 0
BBX 9 14 1 0
BITMAP
C180
C180
FF80
C180
C180
C180
FF80
C180
C180
C180
C180
C180
C180
C180
ENDCHAR
STARTCHAR hbar
ENCODING 295
SWIDTH 602 0
DWIDTH 12 0
BBX 11 14 0 0
BITMAP
3000
FF00
3000
33C0
37E0
3C60
3060
3060
3060
3060
3060
3060
3060
3060
ENDCHAR
STARTCHAR Itilde
ENCODING 296
SWIDTH 602 0
DWIDTH 12 0
BBX 8 17 2 0
BITMAP
F6
DE
00
FF
18
18
18
18
18
18
18
18
18
18
18
18
FF
ENDCHAR
STARTCHAR itilde
ENCODING 297
SWIDTH 602 0
DWIDTH 12 0
BBX 7 14 2 0
BITMAP
F6
DE
00
FC
0C
0C
0C
0C
0C
0C
0C
0C
0C
0C
ENDCHAR
STARTCHAR Imacron
ENCODING 298
SWIDTH 602 0
DWIDTH 12 0
BBX 8 16 2 0
BITMAP
7E
00
FF
18
18
18
18
18
18
18
18
18
18
18
18
FF
ENDCHAR
STARTCHAR imacron
ENCODING 299
SWIDTH 602 0
DWIDTH 12 0
BBX 7 13 2 0
BITMAP
7E
00
FC
0C
0C
0C
0C
0C
0C
0C
0C
0C
0C
ENDCHAR
STARTCHAR Ibreve
ENCODING 300
SWIDTH 602 0
DWIDTH 12 0
BBX 8 18 2 0
BITMAP
43
36
1C
00
FF
18
18
18
18
18
18
18
18
18
18
18
18
FF
ENDCHAR
STARTCHAR ibreve
ENCODING 301
SWIDTH 602 0
DWIDTH 12 0
BBX 7 15 2 0
BITMAP
86
6C
38
00
FC
0C
0C
0C
0C
0C
0C
0C
0C
0C
0C
ENDCHAR
STARTCHAR Iogonek
ENCODING 302
SWIDTH 602 0
DWIDTH 12 0
BBX 8 18 2 -4
BITMAP
FF
18
18
18
18
18
18
18
18
18
18
18
18
FF
08
10
10
1C
ENDCHAR
STARTCHAR iogonek
ENCODING 303
SWIDTH 602 0
DWIDTH 12 0
BBX 6 18 2 -4
BITMAP
0C
0C
00
FC
0C
0C
0C
0C
0C
0C
0C
0C
0C
0C
08
10
10
1C
ENDCHAR
STARTCHAR Idotaccent
ENCODING 304
SWIDTH 602 0
DWIDTH 12 0
BBX 8 17 2 0
BITMAP
18
18
00
FF
18
18
18
18
18
18
18
18
18
18
18
18
FF
ENDCHAR
STARTCHAR dotlessi
ENCODING 305
SWIDTH 602 0
DWIDTH 12 0
BBX 6 11 2 0
BITMAP
FC
0C
0C
0C
0C
0C
0C
0C
0C
0C
0C
ENDCHAR
STARTCHAR IJ
ENCODING 306
SWIDTH 602 0
DWIDTH 12 0
BBX 11 14 2 0
BITMAP
FFE0
1860
1860
1860
1860
1860
1860
1860
1860
1860
1860
1860
18C0
FF80
ENDCHAR
STARTCHAR ij
ENCODING 307
SWIDTH 602 0
DWIDTH 12 0
BBX 9 18 2 -4
BITMAP
0D80
0D80
0000
FF80
0D80
0D80
0D80
0D80
0D80
0D80
0D80
0D80
0D80
0D80
0180
0180
2300
3E00
ENDCHAR
STARTCHAR Jcircumflex
ENCODING 308
SWIDTH 602 0
DWIDTH 12 0
BBX 8 18 2 0
BITMAP
1C
36
63
00
7E
06
06
06
06
06
06
06
06
06
06
06
8C
F8
ENDCHAR
STARTCHAR jcircumflex
ENCODING 309
SWIDTH 602 0
DWIDTH 12 0
BBX 8 19 2 -4
BITMAP
1C
36
63
00
7E
06
06
06
06
06
06
06
06
06
06
06
06
8C
F8
ENDCHAR
STARTCHAR Kcommaaccent
ENCODING 310
SWIDTH 602 0
DWIDTH 12 0
BBX 10 21 2 -7
BITMAP
C180
C300
C200
C400
C800
D800
D000
F800
DC00
CE00
C600
C300
C380
C1C0
0000
1C00
1C00
1C00
0400
0C00
1800
ENDCHAR
STARTCHAR kcommaaccent
ENCODING 311
SWIDTH 602 0
DWIDTH 12 0
BBX 10 21 2 -7
BITMAP
C000
C000
C000
C100
C200
C400
C800
D000
F800
DC00
CE00
C700
C380
C1C0
0000
1C00
1C00
1C00
0400
0C00
1800
ENDCHAR
STARTCHAR kgreenlandic
ENCODING 312
SWIDTH 602 0
DWIDTH 12 0
BBX 10 11 2 0
BITMAP
C100
C200
C400
C800
D000
F800
DC00
CE00
C700
C380
C1C0
ENDCHAR
STARTCHAR Lacute
ENCODING 313
SWIDTH 602 0
DWIDTH 12 0
BBX 9 18 2 0
BITMAP
1800
3000
6000
0000
C000
C000
C000
C000
C000
C000
C000
C000
C000
C000
C000
C000
C000
FF80
ENDCHAR
STARTCHAR lacute
ENCODING 314
SWIDTH 602 0
DWIDTH 12 0
BBX 6 18 2 0
BITMAP
0C
18
30
00
FC
0C
0C
0C
0C
0C
0C
0C
0C
0C
0C
0C
0C
0C
ENDCHAR
STARTCHAR Lcommaaccent
ENCODING 315
SWIDTH 602 0
DWIDTH 12 0
BBX 9 21 2 -7
BITMAP
C000
C000
C000
C000
C000
C000
C000
C000
C000
C000
C000
C000
C000
FF80
0000
3800
3800
3800
0800
1800
3000
ENDCHAR
STARTCHAR lcommaaccent
ENCODING 316
SWIDTH 602 0
DWIDTH 12 0
BBX 6 21 2 -7
BITMAP
FC
0C
0C
0C
0C
0C
0C
0C
0C
0C
0C
0C
0C
0C
00
1C
1C
1C
04
0C
18
ENDCHAR
STARTCHAR Lcaron
ENCODING 317
SWIDTH 602 0
DWIDTH 12 0
BBX 10 18 1 0
BITMAP
C600
6C00
3800
0000
6000
6000
6000
6000
6000
6000
6000
6000
6000
6000
6000
6000
6000
7FC0
ENDCHAR
STARTCHAR lcaron
ENCODING 318
SWIDTH 602 0
DWIDTH 12 0
BBX 7 18 2 0
BITMAP
C6
6C
38
00
FC
0C
0C
0C
0C
0C
0C
0C
0C
0C
0C
0C
0C
0C
ENDCHAR
STARTCHAR Ldot
ENCODING 319
SWIDTH 602 0
DWIDTH 12 0
BBX 9 14 2 0
BITMAP
C000
C000
C000
C000
C000
C000
C000
C600
C600
C000
C000
C000
C000
FF80
ENDCHAR
STARTCHAR ldot
ENCODING 320
SWIDTH 602 0
DWIDTH 12 0
BBX 8 14 2 0
BITMAP
FC
0C
0C
0C
0C
0C
0C
0F
0F
0C
0C
0C
0C
0C
ENDCHAR
STARTCHAR Lslash
ENCODING 321
SWIDTH 602 0
DWIDTH 12 0
BBX 11 14 0 0
BITMAP
3000
3000
3000
3000
3000
3400
3800
7000
B000
3000
3000
3000
3000
3FE0
ENDCHAR
STARTCHAR lslash
ENCODING 322
SWIDTH 602 0
DWIDTH 12 0
BBX 8 14 2 0
BITMAP
FC
0C
0C
0D
0D
0E
0C
3C
2C
0C
0C
0C
0C
0C
ENDCHAR
STARTCHAR Nacute
ENCODING 323
SWIDTH 602 0
DWIDTH 12 0
BBX 9 18 1 0
BITMAP
0C00
1800
3000
0000
C080
E080
E080
F080
B080
9880
9880
8C80
8E80
8680
8780
8380
8180
8180
ENDCHAR
STARTCHAR nacute
ENCODING 324
SWIDTH 602 0
DWIDTH 12 0
BBX 9 15 2 0
BITMAP
0600
0C00
1800
0000
CF00
DF80
F180
C180
C180
C180
C180
C180
C180
C180
C180
ENDCHAR
STARTCHAR Ncommaaccent
ENCODING 325
SWIDTH 602 0
DWIDTH 12 0
BBX 9 21 1 -7
BITMAP
C080
E080
E080
F080
B080
9880
9880
8C80
8E80
8680
8780
8380
8180
8180
0000
0E00
0E00
0E00
0200
0600
0C00
ENDCHAR
STARTCHAR ncommaaccent
ENCODING 326
SWIDTH 602 0
DWIDTH 12 0
BBX 9 18 2 -7
BITMAP
CF00
DF80
F180
C180
C180
C180
C180
C180
C180
C180
C180
0000
1C00
1C00
1C00
0400
0C00
1800
ENDCHAR
STARTCHAR Ncaron
ENCODING 327
SWIDTH 602 0
DWIDTH 12 0
BBX 9 18 1 0
BITMAP
C600
6C00
3800
0000
C080
E080
E080
F080
B080
9880
9880
8C80
8E80
8680
8780
8380
8180
8180
ENDCHAR
STARTCHAR ncaron
ENCODING 328
SWIDTH 602 0
DWIDTH 12 0
BBX 9 15 2 0
BITMAP
6300
3600
1C00
0000
CF00
DF80
F180
C180
C180
C180
C180
C180
C180
C180
C180
ENDCHAR
STARTCHAR napostrophe
ENCODING 329
SWIDTH 602 0
DWIDTH 12 0
BBX 11 14 0 0
BITMAP
E000
E000
6000
F3C0
B7E0
3C60
3060
3060
3060
3060
3060
3060
3060
3060
ENDCHAR
STARTCHAR Eng
ENCODING 330
SWIDTH 602 0
DWIDTH 12 0
BBX 9 18 1 -4
BITMAP
C080
E080
E080
F080
B080
9880
9880
8C80
8E80
8780
8780
8380
8180
8180
0180
0180
2300
3E00
ENDCHAR
STARTCHAR eng
ENCODING 331
SWIDTH 602 0
DWIDTH 12 0
BBX 9 15 2 -4
BITMAP
CF00
DF80
F180
C180
C180
C180
C180
C180
C180
C180
C180
0180
0180
2300
3E00
ENDCHAR
STARTCHAR Omacron
ENCODING 332
SWIDTH 602 0
DWIDTH 12 0
BBX 11 16 0 0
BITMAP
1F80
0000
1F00
3180
60C0
60C0
C060
C060
C060
C060
C060
C060
60C0
60C0
3180
1F00
ENDCHAR
STARTCHAR omacron
ENCODING 333
SWIDTH 602 0
DWIDTH 12 0
BBX 10 13 1 0
BITMAP
3F00
0000
1E00
7380
6180
C0C0
C0C0
C0C0
C0C0
C0C0
6180
7380
1E00
ENDCHAR
STARTCHAR Obreve
ENCODING 334
SWIDTH 602 0
DWIDTH 12 0
BBX 11 18 0 0
BITMAP
2180
1B00
0E00
0000
1F00
3180
60C0
60C0
C060
C060
C060
C060
C060
C060
60C0
60C0
3180
1F00
ENDCHAR
STARTCHAR obreve
ENCODING 335
SWIDTH 602 0
DWIDTH 12 0
BBX 10 15 1 0
BITMAP
2180
1B00
0E00
0000
1E00
7380
6180
C0C0
C0C0
C0C0
C0C0
C0C0
6180
7380
1E00
ENDCHAR
STARTCHAR Ohungarumlaut
ENCODING 336
SWIDTH 602 0
DWIDTH 12 0
BBX 11 18 0 0
BITMAP
06C0
0D80
1B00
0000
1F00
3180
60C0
60C0
C060
C060
C060
C060
C060
C060
60C0
60C0
3180
1F00
ENDCHAR
STARTCHAR ohungarumlaut
ENCODING 337
SWIDTH 602 0
DWIDTH 12 0
BBX 10 15 1 0
BITMAP
0D80
1B00
3600
0000
1E00
7380
6180
C0C0
C0C0
C0C0
C0C0
C0C0
6180
7380
1E00
ENDCHAR
STARTCHAR OE
ENCODING 338
SWIDTH 602 0
DWIDTH 12 0
BBX 11 14 1 0
BITMAP
3FC0
6600
C600
C600
C600
C600
C7C0
C600
C600
C600
C600
4600
6600
3FE0
ENDCHAR
STARTCHAR oe
ENCODING 339
SWIDTH 602 0
DWIDTH 12 0
BBX 12 11 0 0
BITMAP
3DC0
6F20
C630
C630
C630
C7F0
C600
C600
4600
6F10
3DF0
ENDCHAR
STARTCHAR Racute
ENCODING 340
SWIDTH 602 0
DWIDTH 12 0
BBX 10 18 2 0
BITMAP
0600
0C00
1800
0000
FC00
C700
C300
C300
C300
C700
FE00
CC00
CC00
C600
C700
C300
C180
C1C0
ENDCHAR
STARTCHAR racute
ENCODING 341
SWIDTH 602 0
DWIDTH 12 0
BBX 8 15 3 0
BITMAP
0C
18
30
00
DF
F1
E1
C0
C0
C0
C0
C0
C0
C0
C0
ENDCHAR
STARTCHAR Rcommaaccent
ENCODING 342
SWIDTH 602 0
DWIDTH 12 0
BBX 10 21 2 -7
BITMAP
FC00
C700
C300
C300
C300
C700
FE00
CC00
CC00
C600
C700
C300
C180
C1C0
0000
1C00
1C00
1C00
0400
0C00
1800
ENDCHAR
STARTCHAR rcommaaccent
ENCODING 343
SWIDTH 602 0
DWIDTH 12 0
BBX 8 18 3 -7
BITMAP
DF
F1
E1
C0
C0
C0
C0
C0
C0
C0
C0
00
70
70
70
10
30
60
ENDCHAR
STARTCHAR Rcaron
ENCODING 344
SWIDTH 602 0
DWIDTH 12 0
BBX 10 18 2 0
BITMAP
6300
3600
1C00
0000
FC00
C700
C300
C300
C300
C700
FE00
CC00
CC00
C600
C700
C300
C180
C1C0
ENDCHAR
STARTCHAR rcaron
ENCODING 345
SWIDTH 602 0
DWIDTH 12 0
BBX 8 15 3 0
BITMAP
C6
6C
38
00
DF
F1
E1
C0
C0
C0
C0
C0
C0
C0
C0
ENDCHAR
STARTCHAR Sacute
ENCODING 346
SWIDTH 602 0
DWIDTH 12 0
BBX 9 18 2 0
BITMAP
0600
0C00
1800
0000
3F00
6100
C000
C000
E000
7000
3C00
0F00
0380
0180
0180
0180
8300
7E00
ENDCHAR
STARTCHAR sacute
ENCODING 347
SWIDTH 602 0
DWIDTH 12 0
BBX 8 15 2 0
BITMAP
0C
18
30
00
3E
62
C0
C0
F8
3E
0F
03
03
86
FC
ENDCHAR
STARTCHAR Scircumflex
ENCODING 348
SWIDTH 602 0
DWIDTH 12 0
BBX 9 18 2 0
BITMAP
3800
6C00
C600
0000
3F00
6100
C000
C000
E000
7000
3C00
0F00
0380
0180
0180
0180
8300
7E00
ENDCHAR
STARTCHAR scircumflex
ENCODING 349
SWIDTH 602 0
DWIDTH 12 0
BBX 8 15 2 0
BITMAP
38
6C
C6
00
3E
62
C0
C0
F8
3E
0F
03
03
86
FC
ENDCHAR
STARTCHAR Scedilla
ENCODING 350
SWIDTH 602 0
DWIDTH 12 0
BBX 9 18 2 -4
BITMAP
3F00
6100
C000
C000
E000
7000
3C00
0F00
0380
0180
0180
0180
8300
7E00
0400
0200
0200
0E00
ENDCHAR
STARTCHAR scedilla
ENCODING 351
SWIDTH 602 0
DWIDTH 12 0
BBX 8 15 2 -4
BITMAP
3E
62
C0
C0
F8
3E
0F
03
03
86
FC
08
04
04
1C
ENDCHAR
STARTCHAR Scaron
ENCODING 352
SWIDTH 602 0
DWIDTH 12 0
BBX 9 18 2 0
BITMAP
6300
3600
1C00
0000
3F00
6100
C000
C000
E000
7000
3C00
0F00
0380
0180
0180
0180
8300
7E00
ENDCHAR
STARTCHAR scaron
ENCODING 353
SWIDTH 602 0
DWIDTH 12 0
BBX 8 15 2 0
BITMAP
C6
6C
38
00
3E
62
C0
C0
F8
3E
0F
03
03
86
FC
ENDCHAR
STARTCHAR Tcommaaccent
ENCODING 354
SWIDTH 602 0
DWIDTH 12 0
BBX 12 18 0 -4
BITMAP
FFF0
0600
0600
0600
0600
0600
0600
0600
0600
0600
0600
0600
0600
0600
0200
0100
0100
0700
ENDCHAR
STARTCHAR tcommaaccent
ENCODING 355
SWIDTH 602 0
DWIDTH 12 0
BBX 10 17 1 -4
BITMAP
1800
1800
FFC0
1800
1800
1800
1800
1800
1800
1800
1800
1C00
0FC0
0400
0200
0200
0E00
ENDCHAR
STARTCHAR Tcaron
ENCODING 356
SWIDTH 602 0
DWIDTH 12 0
BBX 12 18 0 0
BITMAP
18C0
0D80
0700
0000
FFF0
0600
0600
0600
0600
0600
0600
0600
0600
0600
0600
0600
0600
0600
ENDCHAR
STARTCHAR tcaron
ENCODING 357
SWIDTH 602 0
DWIDTH 12 0
BBX 10 17 1 0
BITMAP
6300
3600
1C00
0000
1800
1800
FFC0
1800
1800
1800
1800
1800
1800
1800
1800
1C00
0FC0
ENDCHAR
STARTCHAR Tbar
ENCODING 358
SWIDTH 602 0
DWIDTH 12 0
BBX 12 14 0 0
BITMAP
FFF0
0600
0600
0600
0600
0600
3FC0
0600
0600
0600
0600
0600
0600
0600
ENDCHAR
STARTCHAR tbar
ENCODING 359
SWIDTH 602 0
DWIDTH 12 0
BBX 10 13 1 0
BITMAP
1800
1800
FFC0
1800
1800
1800
7F80
1800
1800
1800
1800
1C00
0FC0
ENDCHAR
STARTCHAR Utilde
ENCODING 360
SWIDTH 602 0
DWIDTH 12 0
BBX 9 17 2 0
BITMAP
F600
DE00
0000
C080
C080
C080
C080
C080
C080
C080
C080
C080
C080
C080
C080
6100
3E00
ENDCHAR
STARTCHAR utilde
ENCODING 361
SWIDTH 602 0
DWIDTH 12 0
BBX 9 14 1 0
BITMAP
7B00
6F00
0000
C180
C180
C180
C180
C180
C180
C180
C180
C780
7D80
7980
ENDCHAR
STARTCHAR Umacron
ENCODING 362
SWIDTH 602 0
DWIDTH 12 0
BBX 9 16 2 0
BITMAP
7E00
0000
C080
C080
C080
C080
C080
C080
C080
C080
C080
C080
C080
C080
6100
3E00
ENDCHAR
STARTCHAR umacron
ENCODING 363
SWIDTH 602 0
DWIDTH 12 0
BBX 9 13 1 0
BITMAP
3F00
0000
C180
C180
C180
C180
C180
C180
C180
C180
C780
7D80
7980
ENDCHAR
STARTCHAR Ubreve
ENCODING 364
SWIDTH 602 0
DWIDTH 12 0
BBX 9 18 2 0
BITMAP
8600
6C00
3800
0000
C080
C080
C080
C080
C080
C080
C080
C080
C080
C080
C080
C080
6100
3E00
ENDCHAR
STARTCHAR ubreve
ENCODING 365
SWIDTH 602 0
DWIDTH 12 0
BBX 9 15 1 0
BITMAP
4300
3600
1C00
0000
C180
C180
C180
C180
C180
C180
C180
C180
C780
7D80
7980
ENDCHAR
STARTCHAR Uring
ENCODING 366
SWIDTH 602 0
DWIDTH 12 0
BBX 9 18 2 0
BITMAP
3800
2800
3800
0000
C080
C080
C080
C080
C080
C080
C080
C080
C080
C080
C080
C080
6100
3E00
ENDCHAR
STARTCHAR uring
ENCODING 367
SWIDTH 602 0
DWIDTH 12 0
BBX 9 15 1 0
BITMAP
1C00
1400
1C00
0000
C180
C180
C180
C180
C180
C180
C180
C180
C780
7D80
7980
ENDCHAR
STARTCHAR Uhungarumlaut
ENCODING 368
SWIDTH 602 0
DWIDTH 12 0
BBX 9 18 2 0
BITMAP
1B00
3600
6C00
0000
C080
C080
C080
C080
C080
C080
C080
C080
C080
C080
C080
C080
6100
3E00
ENDCHAR
STARTCHAR uhungarumlaut
ENCODING 369
SWIDTH 602 0
DWIDTH 12 0
BBX 9 15 1 0
BITMAP
0D80
1B00
3600
0000
C180
C180
C180
C180
C180
C180
C180
C180
C780
7D80
7980
ENDCHAR
STARTCHAR Uogonek
ENCODING 370
SWIDTH 602 0
DWIDTH 12 0
BBX 9 18 2 -4
BITMAP
C080
C080
C080
C080
C080
C080
C080
C080
C080
C080
C080
C080
6100
3E00
0800
1000
1000
1C00
ENDCHAR
STARTCHAR uogonek
ENCODING 371
SWIDTH 602 0
DWIDTH 12 0
BBX 9 15 1 -4
BITMAP
C180
C180
C180
C180
C180
C180
C180
C180
C780
7D80
7980
0400
0800
0800
0E00
ENDCHAR
STARTCHAR Wcircumflex
ENCODING 372
SWIDTH 602 0
DWIDTH 12 0
BBX 12 18 0 0
BITMAP
0E00
1B00
3180
0000
8010
8610
8610
CE30
CB20
CB20
CB20
4B20
5160
51E0
71E0
71C0
60C0
60C0
ENDCHAR
STARTCHAR wcircumflex
ENCODING 373
SWIDTH 602 0
DWIDTH 12 0
BBX 12 15 0 0
BITMAP
0E00
1B00
3180
0000
C010
C610
C620
6620
6920
6920
6960
6940
71C0
30C0
30C0
ENDCHAR
STARTCHAR Ycircumflex
ENCODING 374
SWIDTH 602 0
DWIDTH 12 0
BBX 12 18 0 0
BITMAP
0E00
1B00
3180
0000
E030
6020
7040
3080
1880
1D00
0F00
0600
0600
0600
0600
0600
0600
0600
ENDCHAR
STARTCHAR ycircumflex
ENCODING 375
SWIDTH 602 0
DWIDTH 12 0
BBX 11 19 1 -4
BITMAP
1C00
3600
6300
0000
C060
6040
6040
7080
3080
3100
1900
1A00
0E00
0E00
0C00
0400
0800
1800
7000
ENDCHAR
STARTCHAR Ydieresis
ENCODING 376
SWIDTH 602 0
DWIDTH 12 0
BBX 12 16 0 0
BITMAP
1980
0000
E030
6020
7040
3080
1880
1D00
0F00
0600
0600
0600
0600
0600
0600
0600
ENDCHAR
STARTCHAR Zacute
ENCODING 377
SWIDTH 602 0
DWIDTH 12 0
BBX 10 18 1 0
BITMAP
0180
0300
0600
0000
FFC0
01C0
0180
0380
0700
0600
0E00
1C00
1800
3000
7000
6000
C000
FFC0
ENDCHAR
STARTCHAR zacute
ENCODING 378
SWIDTH 602 0
DWIDTH 12 0
BBX 9 15 1 0
BITMAP
0600
0C00
1800
0000
FF80
0100
0200
0600
0400
0800
1000
2000
6000
4000
FF80
ENDCHAR
STARTCHAR Zdotaccent
ENCODING 379
SWIDTH 602 0
DWIDTH 12 0
BBX 10 17 1 0
BITMAP
0600
0600
0000
FFC0
01C0
0180
0380
0700
0600
0E00
1C00
1800
3000
7000
6000
C000
FFC0
ENDCHAR
STARTCHAR zdotaccent
ENCODING 380
SWIDTH 602 0
DWIDTH 12 0
BBX 9 14 1 0
BITMAP
0C00
0C00
0000
FF80
0100
0200
0600
0400
0800
1000
2000
6000
4000
FF80
ENDCHAR
STARTCHAR Zcaron
ENCODING 381
SWIDTH 602 0
DWIDTH 12 0
BBX 10 18 1 0
BITMAP
6300
3600
1C00
0000
FFC0
01C0
0180
0380
0700
0600
0E00
1C00
1800
3000
7000
6000
C000
FFC0
ENDCHAR
STARTCHAR zcaron
ENCODING 382
SWIDTH 602 0
DWIDTH 12 0
BBX 9 15 1 0
BITMAP
6300
3600
1C00
0000
FF80
0100
0200
0600
0400
0800
1000
2000
6000
4000
FF80
ENDCHAR
STARTCHAR uni0186
ENCODING 390
SWIDTH 602 0
DWIDTH 12 0
BBX 10 14 1 0
BITMAP
FC00
8700
0180
0180
00C0
00C0
00C0
00C0
00C0
00C0
0180
0180
8700
FC00
ENDCHAR
STARTCHAR uni0189
ENCODING 393
SWIDTH 602 0
DWIDTH 12 0
BBX 11 14 0 0
BITMAP
7F00
6180
60C0
6060
6060
6060
F860
6060
6060
6060
60C0
60C0
6180
7F00
ENDCHAR
STARTCHAR uni018E
ENCODING 398
SWIDTH 602 0
DWIDTH 12 0
BBX 9 14 2 0
BITMAP
FF80
0180
0180
0180
0180
0180
0180
7F80
0180
0180
0180
0180
0180
FF80
ENDCHAR
STARTCHAR florin
ENCODING 402
SWIDTH 602 0
DWIDTH 12 0
BBX 9 17 2 -3
BITMAP
0780
0C00
1800
1800
1800
3000
FC00
3000
3000
7000
6000
6000
6000
6000
E000
C000
C000
ENDCHAR
STARTCHAR uni0197
ENCODING 407
SWIDTH 602 0
DWIDTH 12 0
BBX 8 14 2 0
BITMAP
FF
18
18
18
18
18
FF
18
18
18
18
18
18
FF
ENDCHAR
STARTCHAR uni019A
ENCODING 410
SWIDTH 602 0
DWIDTH 12 0
BBX 8 14 1 0
BITMAP
7E
06
06
06
06
06
FF
06
06
06
06
06
06
06
ENDCHAR
STARTCHAR uni019D
ENCODING 413
SWIDTH 602 0
DWIDTH 12 0
BBX 14 18 -4 -4
BITMAP
0604
0704
0704
0784
0584
04C4
04C4
0464
0474
0634
063C
061C
060C
060C
0600
0600
8C00
F800
ENDCHAR
STARTCHAR uni019F
ENCODING 415
SWIDTH 602 0
DWIDTH 12 0
BBX 11 14 0 0
BITMAP
1F00
3180
60C0
60C0
C060
C060
FFE0
C060
C060
C060
60C0
60C0
3180
1F00
ENDCHAR
STARTCHAR Ohorn
ENCODING 416
SWIDTH 602 0
DWIDTH 12 0
BBX 13 14 0 0
BITMAP
1F38
31B8
60D8
60F0
C060
C060
C060
C060
C060
C060
60C0
60C0
3180
1F00
ENDCHAR
STARTCHAR ohorn
ENCODING 417
SWIDTH 602 0
DWIDTH 12 0
BBX 12 11 1 0
BITMAP
1E70
73F0
61B0
C0E0
C0C0
C0C0
C0C0
C0C0
6180
7380
1E00
ENDCHAR
STARTCHAR uni01A7
ENCODING 423
SWIDTH 602 0
DWIDTH 12 0
BBX 9 14 2 0
BITMAP
7E00
4300
0180
0180
0380
0700
1E00
7800
E000
C000
C000
C000
6080
3F00
ENDCHAR
STARTCHAR uni01A8
ENCODING 424
SWIDTH 602 0
DWIDTH 12 0
BBX 8 11 2 0
BITMAP
7C
46
03
03
1F
7C
F0
C0
C0
61
3F
ENDCHAR
STARTCHAR uni01AE
ENCODING 430
SWIDTH 602 0
DWIDTH 12 0
BBX 12 18 0 -4
BITMAP
FFF0
0600
0600
0600
0600
0600
0600
0600
0600
0600
0600
0600
0600
0600
0600
0600
0310
01F0
ENDCHAR
STARTCHAR Uhorn
ENCODING 431
SWIDTH 602 0
DWIDTH 12 0
BBX 11 14 2 0
BITMAP
C0E0
C0E0
C0E0
C0C0
C080
C080
C080
C080
C080
C080
C080
C080
6100
3E00
ENDCHAR
STARTCHAR uhorn
ENCODING 432
SWIDTH 602 0
DWIDTH 12 0
BBX 11 11 1 0
BITMAP
C1E0
C1E0
C1E0
C1C0
C180
C180
C180
C180
C780
7D80
7980
ENDCHAR
STARTCHAR uni01B5
ENCODING 437
SWIDTH 602 0
DWIDTH 12 0
BBX 10 14 1 0
BITMAP
FFC0
01C0
0180
0380
0700
0600
7F80
1C00
1800
3000
7000
6000
C000
FFC0
ENDCHAR
STARTCHAR uni01B6
ENCODING 438
SWIDTH 602 0
DWIDTH 12 0
BBX 9 11 1 0
BITMAP
FF80
0100
0200
0600
0400
7F80
1000
2000
6000
4000
FF80
ENDCHAR
STARTCHAR uni01BB
ENCODING 443
SWIDTH 602 0
DWIDTH 12 0
BBX 8 14 2 0
BITMAP
7C
86
03
03
03
03
FF
0C
18
30
60
60
C0
FF
ENDCHAR
STARTCHAR uni01BC
ENCODING 444
SWIDTH 602 0
DWIDTH 12 0
BBX 7 14 3 0
BITMAP
FE
80
80
80
80
F0
1C
0C
06
06
06
06
8C
F8
ENDCHAR
STARTCHAR uni01C0
ENCODING 448
SWIDTH 602 0
DWIDTH 12 0
BBX 1 17 5 -3
BITMAP
80
80
80
80
80
80
80
80
80
80
80
80
80
80
80
80
80
ENDCHAR
STARTCHAR uni01C2
ENCODING 450
SWIDTH 602 0
DWIDTH 12 0
BBX 10 17 1 -3
BITMAP
0400
0400
0400
0400
0400
0400
FFC0
0400
0400
0400
FFC0
0400
0400
0400
0400
0400
0400
ENDCHAR
STARTCHAR uni01C3
ENCODING 451
SWIDTH 602 0
DWIDTH 12 0
BBX 2 14 5 0
BITMAP
C0
C0
C0
C0
C0
C0
80
80
80
80
00
00
80
80
ENDCHAR
STARTCHAR uni01CD
ENCODING 461
SWIDTH 602 0
DWIDTH 12 0
BBX 12 18 0 0
BITMAP
18C0
0D80
0700
0000
0600
0700
0B00
0B00
0980
1180
1180
10C0
20C0
3FC0
2060
4060
4070
C030
ENDCHAR
STARTCHAR uni01CE
ENCODING 462
SWIDTH 602 0
DWIDTH 12 0
BBX 10 15 1 0
BITMAP
6300
3600
1C00
0000
7E00
4300
0300
0300
0300
3F00
6300
C300
C300
C700
7DC0
ENDCHAR
STARTCHAR uni01CF
ENCODING 463
SWIDTH 602 0
DWIDTH 12 0
BBX 8 18 2 0
BITMAP
63
36
1C
00
FF
18
18
18
18
18
18
18
18
18
18
18
18
FF
ENDCHAR
STARTCHAR uni01D0
ENCODING 464
SWIDTH 602 0
DWIDTH 12 0
BBX 7 15 2 0
BITMAP
C6
6C
38
00
FC
0C
0C
0C
0C
0C
0C
0C
0C
0C
0C
ENDCHAR
STARTCHAR uni01D1
ENCODING 465
SWIDTH 602 0
DWIDTH 12 0
BBX 11 18 0 0
BITMAP
3180
1B00
0E00
0000
1F00
3180
60C0
60C0
C060
C060
C060
C060
C060
C060
60C0
60C0
3180
1F00
ENDCHAR
STARTCHAR uni01D2
ENCODING 466
SWIDTH 602 0
DWIDTH 12 0
BBX 10 15 1 0
BITMAP
3180
1B00
0E00
0000
1E00
7380
6180
C0C0
C0C0
C0C0
C0C0
C0C0
6180
7380
1E00
ENDCHAR
STARTCHAR uni01D3
ENCODING 467
SWIDTH 602 0
DWIDTH 12 0
BBX 9 18 2 0
BITMAP
C600
6C00
3800
0000
C080
C080
C080
C080
C080
C080
C080
C080
C080
C080
C080
C080
6100
3E00
ENDCHAR
STARTCHAR uni01D4
ENCODING 468
SWIDTH 602 0
DWIDTH 12 0
BBX 9 15 1 0
BITMAP
6300
3600
1C00
0000
C180
C180
C180
C180
C180
C180
C180
C180
C780
7D80
7980
ENDCHAR
STARTCHAR uni01D5
ENCODING 469
SWIDTH 602 0
DWIDTH 12 0
BBX 9 18 2 0
BITMAP
7E00
0000
6600
0000
C080
C080
C080
C080
C080
C080
C080
C080
C080
C080
C080
C080
6100
3E00
ENDCHAR
STARTCHAR uni01D6
ENCODING 470
SWIDTH 602 0
DWIDTH 12 0
BBX 9 15 1 0
BITMAP
3F00
0000
3300
0000
C180
C180
C180
C180
C180
C180
C180
C180
C780
7D80
7980
ENDCHAR
STARTCHAR uni01D7
ENCODING 471
SWIDTH 602 0
DWIDTH 12 0
BBX 9 20 2 0
BITMAP
0600
0C00
1800
0000
6600
0000
C080
C080
C080
C080
C080
C080
C080
C080
C080
C080
C080
C080
6100
3E00
ENDCHAR
STARTCHAR uni01D8
ENCODING 472
SWIDTH 602 0
DWIDTH 12 0
BBX 9 17 1 0
BITMAP
0600
0C00
1800
0000
3300
0000
C180
C180
C180
C180
C180
C180
C180
C180
C780
7D80
7980
ENDCHAR
STARTCHAR uni01D9
ENCODING 473
SWIDTH 602 0
DWIDTH 12 0
BBX 9 20 2 0
BITMAP
C600
6C00
3800
0000
6600
0000
C080
C080
C080
C080
C080
C080
C080
C080
C080
C080
C080
C080
6100
3E00
ENDCHAR
STARTCHAR uni01DA
ENCODING 474
SWIDTH 602 0
DWIDTH 12 0
BBX 9 17 1 0
BITMAP
6300
3600
1C00
0000
3300
0000
C180
C180
C180
C180
C180
C180
C180
C180
C780
7D80
7980
ENDCHAR
STARTCHAR uni01DB
ENCODING 475
SWIDTH 602 0
DWIDTH 12 0
BBX 9 20 2 0
BITMAP
6000
3000
1800
0000
6600
0000
C080
C080
C080
C080
C080
C080
C080
C080
C080
C080
C080
C080
6100
3E00
ENDCHAR
STARTCHAR uni01DC
ENCODING 476
SWIDTH 602 0
DWIDTH 12 0
BBX 9 17 1 0
BITMAP
3000
1800
0C00
0000
3300
0000
C180
C180
C180
C180
C180
C180
C180
C180
C780
7D80
7980
ENDCHAR
STARTCHAR uni01DD
ENCODING 477
SWIDTH 602 0
DWIDTH 12 0
BBX 9 11 2 0
BITMAP
FC00
8300
0100
0180
0180
FF80
C180
C180
C300
6300
3C00
ENDCHAR
STARTCHAR uni01DE
ENCODING 478
SWIDTH 602 0
DWIDTH 12 0
BBX 12 18 0 0
BITMAP
1F80
0000
1980
0000
0600
0700
0B00
0B00
0980
1180
1180
10C0
20C0
3FC0
2060
4060
4070
C030
ENDCHAR
STARTCHAR uni01DF
ENCODING 479
SWIDTH 602 0
DWIDTH 12 0
BBX 10 15 1 0
BITMAP
3F00
0000
3300
0000
7E00
4300
0300
0300
0300
3F00
6300
C300
C300
C700
7DC0
ENDCHAR
STARTCHAR uni01E0
ENCODING 480
SWIDTH 602 0
DWIDTH 12 0
BBX 12 19 0 0
BITMAP
1F80
0000
0600
0600
0000
0600
0700
0B00
0B00
0980
1180
1180
10C0
20C0
3FC0
2060
4060
4070
C030
ENDCHAR
STARTCHAR uni01E1
ENCODING 481
SWIDTH 602 0
DWIDTH 12 0
BBX 10 16 1 0
BITMAP
3F00
0000
0C00
0C00
0000
7E00
4300
0300
0300
0300
3F00
6300
C300
C300
C700
7DC0
ENDCHAR
STARTCHAR uni01E2
ENCODING 482
SWIDTH 602 0
DWIDTH 12 0
BBX 12 16 0 0
BITMAP
0FC0
0000
03E0
0700
0700
0700
0B00
0B00
1300
13E0
1300
2300
3F00
4300
4300
C3F0
ENDCHAR
STARTCHAR uni01E3
ENCODING 483
SWIDTH 602 0
DWIDTH 12 0
BBX 11 13 1 0
BITMAP
1F80
0000
7B80
4E40
0C60
0C60
0C60
7FE0
EC00
CC00
CC00
CE20
7BE0
ENDCHAR
STARTCHAR uni01E4
ENCODING 484
SWIDTH 602 0
DWIDTH 12 0
BBX 12 14 1 0
BITMAP
0FC0
3040
6000
6000
C000
C000
C000
C000
C0C0
CFF0
60C0
60C0
38C0
0FC0
ENDCHAR
STARTCHAR uni01E5
ENCODING 485
SWIDTH 602 0
DWIDTH 12 0
BBX 9 15 1 -4
BITMAP
1E80
6380
6180
C180
C180
C180
C180
C180
C380
6780
3D80
FF80
0180
4300
7E00
ENDCHAR
STARTCHAR Gcaron
ENCODING 486
SWIDTH 602 0
DWIDTH 12 0
BBX 10 18 1 0
BITMAP
3180
1B00
0E00
0000
0FC0
3040
6000
6000
C000
C000
C000
C000
C0C0
C0C0
60C0
60C0
38C0
0FC0
ENDCHAR
STARTCHAR gcaron
ENCODING 487
SWIDTH 602 0
DWIDTH 12 0
BBX 9 19 1 -4
BITMAP
6300
3600
1C00
0000
1E80
6380
6180
C180
C180
C180
C180
C180
C380
6780
3D80
0180
0180
4300
7E00
ENDCHAR
STARTCHAR uni01E8
ENCODING 488
SWIDTH 602 0
DWIDTH 12 0
BBX 10 18 2 0
BITMAP
6300
3600
1C00
0000
C180
C300
C200
C400
C800
D800
D000
F800
DC00
CE00
C600
C300
C380
C1C0
ENDCHAR
STARTCHAR uni01E9
ENCODING 489
SWIDTH 602 0
DWIDTH 12 0
BBX 11 18 1 0
BITMAP
C600
6C00
3800
0000
6000
6000
6000
6080
6100
6200
6400
6800
7C00
6E00
6700
6380
61C0
60E0
ENDCHAR
STARTCHAR uni01EA
ENCODING 490
SWIDTH 602 0
DWIDTH 12 0
BBX 11 18 0 -4
BITMAP
1F00
3180
60C0
60C0
C060
C060
C060
C060
C060
C060
60C0
60C0
3180
1F00
0400
0800
0800
0E00
ENDCHAR
STARTCHAR uni01EB
ENCODING 491
SWIDTH 602 0
DWIDTH 12 0
BBX 10 15 1 -4
BITMAP
1E00
7380
6180
C0C0
C0C0
C0C0
C0C0
C0C0
6180
7380
1E00
0400
0800
0800
0E00
ENDCHAR
STARTCHAR uni01EC
ENCODING 492
SWIDTH 602 0
DWIDTH 12 0
BBX 11 20 0 -4
BITMAP
1F80
0000
1F00
3180
60C0
60C0
C060
C060
C060
C060
C060
C060
60C0
60C0
3180
1F00
0400
0800
0800
0E00
ENDCHAR
STARTCHAR uni01ED
ENCODING 493
SWIDTH 602 0
DWIDTH 12 0
BBX 10 17 1 -4
BITMAP
3F00
0000
1E00
7380
6180
C0C0
C0C0
C0C0
C0C0
C0C0
6180
7380
1E00
0400
0800
0800
0E00
ENDCHAR
STARTCHAR uni01F0
ENCODING 496
SWIDTH 602 0
DWIDTH 12 0
BBX 8 19 2 -4
BITMAP
63
36
1C
00
7E
06
06
06
06
06
06
06
06
06
06
06
06
8C
F8
ENDCHAR
STARTCHAR uni01F4
ENCODING 500
SWIDTH 602 0
DWIDTH 12 0
BBX 10 18 1 0
BITMAP
0300
0600
0C00
0000
0FC0
3040
6000
6000
C000
C000
C000
C000
C0C0
C0C0
60C0
60C0
38C0
0FC0
ENDCHAR
STARTCHAR uni01F5
ENCODING 501
SWIDTH 602 0
DWIDTH 12 0
BBX 9 19 1 -4
BITMAP
0300
0600
0C00
0000
1E80
6380
6180
C180
C180
C180
C180
C180
C380
6780
3D80
0180
0180
4300
7E00
ENDCHAR
STARTCHAR uni01F8
ENCODING 504
SWIDTH 602 0
DWIDTH 12 0
BBX 9 18 1 0
BITMAP
6000
3000
1800
0000
C080
E080
E080
F080
B080
9880
9880
8C80
8E80
8680
8780
8380
8180
8180
ENDCHAR
STARTCHAR uni01F9
ENCODING 505
SWIDTH 602 0
DWIDTH 12 0
BBX 9 15 2 0
BITMAP
3000
1800
0C00
0000
CF00
DF80
F180
C180
C180
C180
C180
C180
C180
C180
C180
ENDCHAR
STARTCHAR Aringacute
ENCODING 506
SWIDTH 602 0
DWIDTH 12 0
BBX 12 22 0 0
BITMAP
0300
0600
0C00
0000
0E00
0A00
0E00
0000
0600
0700
0B00
0B00
0980
1180
1180
10C0
20C0
3FC0
2060
4060
4070
C030
ENDCHAR
STARTCHAR aringacute
ENCODING 507
SWIDTH 602 0
DWIDTH 12 0
BBX 10 19 1 0
BITMAP
0600
0C00
1800
0000
1C00
1400
1C00
0000
7E00
4300
0300
0300
0300
3F00
6300
C300
C300
C700
7DC0
ENDCHAR
STARTCHAR AEacute
ENCODING 508
SWIDTH 602 0
DWIDTH 12 0
BBX 12 18 0 0
BITMAP
0180
0300
0600
0000
03E0
0700
0700
0700
0B00
0B00
1300
13E0
1300
2300
3F00
4300
4300
C3F0
ENDCHAR
STARTCHAR aeacute
ENCODING 509
SWIDTH 602 0
DWIDTH 12 0
BBX 11 15 1 0
BITMAP
0300
0600
0C00
0000
7B80
4E40
0C60
0C60
0C60
7FE0
EC00
CC00
CC00
CE20
7BE0
ENDCHAR
STARTCHAR Oslashacute
ENCODING 510
SWIDTH 602 0
DWIDTH 12 0
BBX 11 18 1 0
BITMAP
0180
0300
0600
0000
1F60
31C0
60C0
61C0
C360
C260
C460
C460
C860
D060
50C0
60C0
7180
DF00
ENDCHAR
STARTCHAR oslashacute
ENCODING 511
SWIDTH 602 0
DWIDTH 12 0
BBX 10 15 1 0
BITMAP
0300
0600
0C00
0000
1FC0
7180
6380
C2C0
C4C0
CCC0
C8C0
D0C0
7180
6180
FE00
ENDCHAR
STARTCHAR uni0200
ENCODING 512
SWIDTH 602 0
DWIDTH 12 0
BBX 12 18 0 0
BITMAP
3600
1B00
0D80
0000
0600
0700
0B00
0B00
0980
1180
1180
10C0
20C0
3FC0
2060
4060
4070
C030
ENDCHAR
STARTCHAR uni0201
ENCODING 513
SWIDTH 602 0
DWIDTH 12 0
BBX 10 15 1 0
BITMAP
6C00
3600
1B00
0000
7E00
4300
0300
0300
0300
3F00
6300
C300
C300
C700
7DC0
ENDCHAR
STARTCHAR uni0202
ENCODING 514
SWIDTH 602 0
DWIDTH 12 0
BBX 12 18 0 0
BITMAP
0E00
1B00
2180
0000
0600
0700
0B00
0B00
0980
1180
1180
10C0
20C0
3FC0
2060
4060
4070
C030
ENDCHAR
STARTCHAR uni0203
ENCODING 515
SWIDTH 602 0
DWIDTH 12 0
BBX 10 15 1 0
BITMAP
1C00
3600
4300
0000
7E00
4300
0300
0300
0300
3F00
6300
C300
C300
C700
7DC0
ENDCHAR
STARTCHAR uni0204
ENCODING 516
SWIDTH 602 0
DWIDTH 12 0
BBX 10 18 1 0
BITMAP
D800
6C00
3600
0000
7FC0
6000
6000
6000
6000
6000
7F80
6000
6000
6000
6000
6000
6000
7FC0
ENDCHAR
STARTCHAR uni0205
ENCODING 517
SWIDTH 602 0
DWIDTH 12 0
BBX 9 15 2 0
BITMAP
6C00
3600
1B00
0000
1E00
6300
6180
C180
C180
FF80
C000
C000
4000
6080
1F80
ENDCHAR
STARTCHAR uni0206
ENCODING 518
SWIDTH 602 0
DWIDTH 12 0
BBX 9 18 2 0
BITMAP
3800
6C00
8600
0000
FF80
C000
C000
C000
C000
C000
FF00
C000
C000
C000
C000
C000
C000
FF80
ENDCHAR
STARTCHAR uni0207
ENCODING 519
SWIDTH 602 0
DWIDTH 12 0
BBX 9 15 2 0
BITMAP
1C00
3600
4300
0000
1E00
6300
6180
C180
C180
FF80
C000
C000
4000
6080
1F80
ENDCHAR
STARTCHAR uni0208
ENCODING 520
SWIDTH 602 0
DWIDTH 12 0
BBX 8 18 2 0
BITMAP
D8
6C
36
00
FF
18
18
18
18
18
18
18
18
18
18
18
18
FF
ENDCHAR
STARTCHAR uni0209
ENCODING 521
SWIDTH 602 0
DWIDTH 12 0
BBX 7 15 1 0
BITMAP
D8
6C
36
00
7E
06
06
06
06
06
06
06
06
06
06
ENDCHAR
STARTCHAR uni020A
ENCODING 522
SWIDTH 602 0
DWIDTH 12 0
BBX 8 18 2 0
BITMAP
38
6C
86
00
FF
18
18
18
18
18
18
18
18
18
18
18
18
FF
ENDCHAR
STARTCHAR uni020B
ENCODING 523
SWIDTH 602 0
DWIDTH 12 0
BBX 7 15 2 0
BITMAP
38
6C
86
00
FC
0C
0C
0C
0C
0C
0C
0C
0C
0C
0C
ENDCHAR
STARTCHAR uni020C
ENCODING 524
SWIDTH 602 0
DWIDTH 12 0
BBX 11 18 0 0
BITMAP
6C00
3600
1B00
0000
1F00
3180
60C0
60C0
C060
C060
C060
C060
C060
C060
60C0
60C0
3180
1F00
ENDCHAR
STARTCHAR uni020D
ENCODING 525
SWIDTH 602 0
DWIDTH 12 0
BBX 10 15 1 0
BITMAP
6C00
3600
1B00
0000
1E00
7380
6180
C0C0
C0C0
C0C0
C0C0
C0C0
6180
7380
1E00
ENDCHAR
STARTCHAR uni020E
ENCODING 526
SWIDTH 602 0
DWIDTH 12 0
BBX 11 18 0 0
BITMAP
0E00
1B00
2180
0000
1F00
3180
60C0
60C0
C060
C060
C060
C060
C060
C060
60C0
60C0
3180
1F00
ENDCHAR
STARTCHAR uni020F
ENCODING 527
SWIDTH 602 0
DWIDTH 12 0
BBX 10 15 1 0
BITMAP
1C00
3600
4300
0000
1E00
7380
6180
C0C0
C0C0
C0C0
C0C0
C0C0
6180
7380
1E00
ENDCHAR
STARTCHAR uni0210
ENCODING 528
SWIDTH 602 0
DWIDTH 12 0
BBX 10 18 2 0
BITMAP
D800
6C00
3600
0000
FC00
C700
C300
C300
C300
C700
FE00
CC00
CC00
C600
C700
C300
C180
C1C0
ENDCHAR
STARTCHAR uni0211
ENCODING 529
SWIDTH 602 0
DWIDTH 12 0
BBX 8 15 3 0
BITMAP
D8
6C
36
00
DF
F1
E1
C0
C0
C0
C0
C0
C0
C0
C0
ENDCHAR
STARTCHAR uni0212
ENCODING 530
SWIDTH 602 0
DWIDTH 12 0
BBX 10 18 2 0
BITMAP
3800
6C00
8600
0000
FC00
C700
C300
C300
C300
C700
FE00
CC00
CC00
C600
C700
C300
C180
C1C0
ENDCHAR
STARTCHAR uni0213
ENCODING 531
SWIDTH 602 0
DWIDTH 12 0
BBX 8 15 3 0
BITMAP
38
6C
86
00
DF
F1
E1
C0
C0
C0
C0
C0
C0
C0
C0
ENDCHAR
STARTCHAR uni0214
ENCODING 532
SWIDTH 602 0
DWIDTH 12 0
BBX 9 18 2 0
BITMAP
D800
6C00
3600
0000
C080
C080
C080
C080
C080
C080
C080
C080
C080
C080
C080
C080
6100
3E00
ENDCHAR
STARTCHAR uni0215
ENCODING 533
SWIDTH 602 0
DWIDTH 12 0
BBX 9 15 1 0
BITMAP
D800
6C00
3600
0000
C180
C180
C180
C180
C180
C180
C180
C180
C780
7D80
7980
ENDCHAR
STARTCHAR uni0216
ENCODING 534
SWIDTH 602 0
DWIDTH 12 0
BBX 9 18 2 0
BITMAP
3800
6C00
8600
0000
C080
C080
C080
C080
C080
C080
C080
C080
C080
C080
C080
C080
6100
3E00
ENDCHAR
STARTCHAR uni0217
ENCODING 535
SWIDTH 602 0
DWIDTH 12 0
BBX 9 15 1 0
BITMAP
1C00
3600
4300
0000
C180
C180
C180
C180
C180
C180
C180
C180
C780
7D80
7980
ENDCHAR
STARTCHAR Scommaaccent
ENCODING 536
SWIDTH 602 0
DWIDTH 12 0
BBX 9 21 2 -7
BITMAP
3F00
6100
C000
C000
E000
7000
3C00
0F00
0380
0180
0180
0180
8300
7E00
0000
0E00
0E00
0E00
0200
0600
0C00
ENDCHAR
STARTCHAR scommaaccent
ENCODING 537
SWIDTH 602 0
DWIDTH 12 0
BBX 8 18 2 -7
BITMAP
3E
62
C0
C0
F8
3E
0F
03
03
86
FC
00
1C
1C
1C
04
0C
18
ENDCHAR
STARTCHAR Tcommaaccent
ENCODING 538
SWIDTH 602 0
DWIDTH 12 0
BBX 12 21 0 -7
BITMAP
FFF0
0600
0600
0600
0600
0600
0600
0600
0600
0600
0600
0600
0600
0600
0000
0700
0700
0700
0100
0300
0600
ENDCHAR
STARTCHAR tcommaaccent
ENCODING 539
SWIDTH 602 0
DWIDTH 12 0
BBX 10 20 1 -7
BITMAP
1800
1800
FFC0
1800
1800
1800
1800
1800
1800
1800
1800
1C00
0FC0
0000
0E00
0E00
0E00
0200
0600
0C00
ENDCHAR
STARTCHAR uni021E
ENCODING 542
SWIDTH 602 0
DWIDTH 12 0
BBX 9 18 1 0
BITMAP
6300
3600
1C00
0000
C180
C180
C180
C180
C180
C180
FF80
C180
C180
C180
C180
C180
C180
C180
ENDCHAR
STARTCHAR uni021F
ENCODING 543
SWIDTH 602 0
DWIDTH 12 0
BBX 9 18 2 0
BITMAP
C600
6C00
3800
0000
C000
C000
C000
CF00
DF80
F180
C180
C180
C180
C180
C180
C180
C180
C180
ENDCHAR
STARTCHAR uni0226
ENCODING 550
SWIDTH 602 0
DWIDTH 12 0
BBX 12 17 0 0
BITMAP
0600
0600
0000
0600
0700
0B00
0B00
0980
1180
1180
10C0
20C0
3FC0
2060
4060
4070
C030
ENDCHAR
STARTCHAR uni0227
ENCODING 551
SWIDTH 602 0
DWIDTH 12 0
BBX 10 14 1 0
BITMAP
0C00
0C00
0000
7E00
4300
0300
0300
0300
3F00
6300
C300
C300
C700
7DC0
ENDCHAR
STARTCHAR uni0228
ENCODING 552
SWIDTH 602 0
DWIDTH 12 0
BBX 9 18 2 -4
BITMAP
FF80
C000
C000
C000
C000
C000
FF00
C000
C000
C000
C000
C000
C000
FF80
1000
0800
0800
3800
ENDCHAR
STARTCHAR uni0229
ENCODING 553
SWIDTH 602 0
DWIDTH 12 0
BBX 9 15 2 -4
BITMAP
1E00
6300
6180
C180
C180
FF80
C000
C000
4000
6080
1F80
0400
0200
0200
0E00
ENDCHAR
STARTCHAR uni022A
ENCODING 554
SWIDTH 602 0
DWIDTH 12 0
BBX 11 18 0 0
BITMAP
3F00
0000
3300
0000
1F00
3180
60C0
60C0
C060
C060
C060
C060
C060
C060
60C0
60C0
3180
1F00
ENDCHAR
STARTCHAR uni022B
ENCODING 555
SWIDTH 602 0
DWIDTH 12 0
BBX 10 15 1 0
BITMAP
3F00
0000
3300
0000
1E00
7380
6180
C0C0
C0C0
C0C0
C0C0
C0C0
6180
7380
1E00
ENDCHAR
STARTCHAR uni022C
ENCODING 556
SWIDTH 602 0
DWIDTH 12 0
BBX 11 19 0 0
BITMAP
1F80
0000
3D80
3780
0000
1F00
3180
60C0
60C0
C060
C060
C060
C060
C060
C060
60C0
60C0
3180
1F00
ENDCHAR
STARTCHAR uni022D
ENCODING 557
SWIDTH 602 0
DWIDTH 12 0
BBX 10 16 1 0
BITMAP
3F00
0000
7B00
6F00
0000
1E00
7380
6180
C0C0
C0C0
C0C0
C0C0
C0C0
6180
7380
1E00
ENDCHAR
STARTCHAR uni022E
ENCODING 558
SWIDTH 602 0
DWIDTH 12 0
BBX 11 17 0 0
BITMAP
0600
0600
0000
1F00
3180
60C0
60C0
C060
C060
C060
C060
C060
C060
60C0
60C0
3180
1F00
ENDCHAR
STARTCHAR uni022F
ENCODING 559
SWIDTH 602 0
DWIDTH 12 0
BBX 10 14 1 0
BITMAP
0C00
0C00
0000
1E00
7380
6180
C0C0
C0C0
C0C0
C0C0
C0C0
6180
7380
1E00
ENDCHAR
STARTCHAR uni0230
ENCODING 560
SWIDTH 602 0
DWIDTH 12 0
BBX 11 19 0 0
BITMAP
1F80
0000
0600
0600
0000
1F00
3180
60C0
60C0
C060
C060
C060
C060
C060
C060
60C0
60C0
3180
1F00
ENDCHAR
STARTCHAR uni0231
ENCODING 561
SWIDTH 602 0
DWIDTH 12 0
BBX 10 16 1 0
BITMAP
3F00
0000
0C00
0C00
0000
1E00
7380
6180
C0C0
C0C0
C0C0
C0C0
C0C0
6180
7380
1E00
ENDCHAR
STARTCHAR uni0232
ENCODING 562
SWIDTH 602 0
DWIDTH 12 0
BBX 12 16 0 0
BITMAP
3F00
0000
E030
6020
7040
3080
1880
1D00
0F00
0600
0600
0600
0600
0600
0600
0600
ENDCHAR
STARTCHAR uni0233
ENCODING 563
SWIDTH 602 0
DWIDTH 12 0
BBX 11 17 1 -4
BITMAP
3F00
0000
C060
6040
6040
7080
3080
3100
1900
1A00
0E00
0E00
0C00
0400
0800
1800
7000
ENDCHAR
STARTCHAR uni0250
ENCODING 592
SWIDTH 602 0
DWIDTH 12 0
BBX 10 11 1 0
BITMAP
EF80
38C0
30C0
30C0
3180
3F00
3000
3000
3000
3080
1F80
ENDCHAR
STARTCHAR uni0254
ENCODING 596
SWIDTH 602 0
DWIDTH 12 0
BBX 9 11 2 0
BITMAP
FC00
8700
0300
0180
0180
0180
0180
0180
0300
8700
FC00
ENDCHAR
STARTCHAR uni0258
ENCODING 600
SWIDTH 602 0
DWIDTH 12 0
BBX 9 11 2 0
BITMAP
3C00
6300
C300
C180
C180
FF80
0180
0180
0100
8300
FC00
ENDCHAR
STARTCHAR uni0259
ENCODING 601
SWIDTH 602 0
DWIDTH 12 0
BBX 9 11 2 0
BITMAP
FC00
8300
0100
0180
0180
FF80
C180
C180
C300
6300
3C00
ENDCHAR
STARTCHAR uni025F
ENCODING 607
SWIDTH 602 0
DWIDTH 12 0
BBX 10 16 2 -5
BITMAP
0600
0600
0600
0600
0600
0600
0600
0600
0600
0600
FFC0
0600
0600
0600
0E00
FC00
ENDCHAR
STARTCHAR uni0265
ENCODING 613
SWIDTH 602 0
DWIDTH 12 0
BBX 9 14 2 -3
BITMAP
C180
C180
C180
C180
C180
C180
C180
C180
C780
FD80
7980
0180
0180
0180
ENDCHAR
STARTCHAR uni0275
ENCODING 629
SWIDTH 602 0
DWIDTH 12 0
BBX 10 11 1 0
BITMAP
1E00
7380
6180
C0C0
C0C0
FFC0
C0C0
C0C0
6180
7380
1E00
ENDCHAR
STARTCHAR uni0279
ENCODING 633
SWIDTH 602 0
DWIDTH 12 0
BBX 8 11 3 0
BITMAP
03
03
03
03
03
03
03
03
87
8F
FB
ENDCHAR
STARTCHAR uni0287
ENCODING 647
SWIDTH 602 0
DWIDTH 12 0
BBX 10 13 1 0
BITMAP
FC00
0E00
0600
0600
0600
0600
0600
0600
0600
0600
FFC0
0600
0600
ENDCHAR
STARTCHAR uni0288
ENCODING 648
SWIDTH 602 0
DWIDTH 12 0
BBX 10 17 1 -4
BITMAP
1800
1800
FFC0
1800
1800
1800
1800
1800
1800
1800
1800
1800
1800
1800
1800
0C40
07C0
ENDCHAR
STARTCHAR uni0289
ENCODING 649
SWIDTH 602 0
DWIDTH 12 0
BBX 9 11 1 0
BITMAP
C180
C180
C180
C180
C180
FF80
C180
C180
C780
7D80
7980
ENDCHAR
STARTCHAR uni028C
ENCODING 652
SWIDTH 602 0
DWIDTH 12 0
BBX 11 11 0 0
BITMAP
0600
0E00
0F00
1B00
1300
1180
2180
21C0
40C0
40C0
C060
ENDCHAR
STARTCHAR uni028D
ENCODING 653
SWIDTH 602 0
DWIDTH 12 0
BBX 12 11 0 0
BITMAP
30C0
30C0
38E0
2960
6960
4960
4960
4660
4630
8630
8030
ENDCHAR
STARTCHAR uni028E
ENCODING 654
SWIDTH 602 0
DWIDTH 12 0
BBX 11 15 1 0
BITMAP
01C0
0300
0200
0400
0600
0E00
0E00
0B00
1300
1180
2180
21C0
40C0
40C0
C060
ENDCHAR
STARTCHAR uni029E
ENCODING 670
SWIDTH 602 0
DWIDTH 12 0
BBX 10 14 2 -3
BITMAP
E0C0
70C0
38C0
1CC0
0EC0
07C0
02C0
04C0
08C0
10C0
20C0
00C0
00C0
00C0
ENDCHAR
STARTCHAR uni02BB
ENCODING 699
SWIDTH 602 0
DWIDTH 12 0
BBX 3 5 4 9
BITMAP
60
C0
80
E0
E0
ENDCHAR
STARTCHAR afii57929
ENCODING 700
SWIDTH 602 0
DWIDTH 12 0
BBX 3 5 4 9
BITMAP
E0
E0
60
C0
80
ENDCHAR
STARTCHAR afii64937
ENCODING 701
SWIDTH 602 0
DWIDTH 12 0
BBX 3 5 4 9
BITMAP
E0
E0
C0
60
20
ENDCHAR
STARTCHAR circumflex
ENCODING 710
SWIDTH 602 0
DWIDTH 12 0
BBX 7 3 2 11
BITMAP
38
6C
C6
ENDCHAR
STARTCHAR caron
ENCODING 711
SWIDTH 602 0
DWIDTH 12 0
BBX 7 3 2 11
BITMAP
C6
6C
38
ENDCHAR
STARTCHAR uni02C8
ENCODING 712
SWIDTH 602 0
DWIDTH 12 0
BBX 3 5 4 9
BITMAP
E0
E0
E0
40
40
ENDCHAR
STARTCHAR macron
ENCODING 713
SWIDTH 602 0
DWIDTH 12 0
BBX 6 1 3 13
BITMAP
FC
ENDCHAR
STARTCHAR uni02CA
ENCODING 714
SWIDTH 602 0
DWIDTH 12 0
BBX 4 3 4 11
BITMAP
30
60
C0
ENDCHAR
STARTCHAR uni02CB
ENCODING 715
SWIDTH 602 0
DWIDTH 12 0
BBX 4 3 4 11
BITMAP
C0
60
30
ENDCHAR
STARTCHAR uni02CD
ENCODING 717
SWIDTH 602 0
DWIDTH 12 0
BBX 6 1 3 -2
BITMAP
FC
ENDCHAR
STARTCHAR uni02CE
ENCODING 718
SWIDTH 602 0
DWIDTH 12 0
BBX 4 3 4 -4
BITMAP
C0
60
30
ENDCHAR
STARTCHAR uni02CF
ENCODING 719
SWIDTH 602 0
DWIDTH 12 0
BBX 4 3 4 -4
BITMAP
30
60
C0
ENDCHAR
STARTCHAR breve
ENCODING 728
SWIDTH 602 0
DWIDTH 12 0
BBX 7 3 2 11
BITMAP
86
6C
38
ENDCHAR
STARTCHAR dotaccent
ENCODING 729
SWIDTH 602 0
DWIDTH 12 0
BBX 2 2 5 12
BITMAP
C0
C0
ENDCHAR
STARTCHAR ring
ENCODING 730
SWIDTH 602 0
DWIDTH 12 0
BBX 3 3 4 13
BITMAP
E0
A0
E0
ENDCHAR
STARTCHAR ogonek
ENCODING 731
SWIDTH 602 0
DWIDTH 12 0
BBX 3 4 4 -4
BITMAP
40
80
80
E0
ENDCHAR
STARTCHAR tilde
ENCODING 732
SWIDTH 602 0
DWIDTH 12 0
BBX 7 2 2 12
BITMAP
F6
DE
ENDCHAR
STARTCHAR hungarumlaut
ENCODING 733
SWIDTH 602 0
DWIDTH 12 0
BBX 7 3 3 11
BITMAP
36
6C
D8
ENDCHAR
STARTCHAR uni02EE
ENCODING 750
SWIDTH 602 0
DWIDTH 12 0
BBX 7 4 3 10
BITMAP
C6
C6
42
C6
ENDCHAR
STARTCHAR uni037E
ENCODING 894
SWIDTH 602 0
DWIDTH 12 0
BBX 3 14 4 -3
BITMAP
E0
E0
E0
00
00
00
00
00
E0
E0
E0
20
60
C0
ENDCHAR
STARTCHAR tonos
ENCODING 900
SWIDTH 602 0
DWIDTH 12 0
BBX 4 3 4 11
BITMAP
30
60
C0
ENDCHAR
STARTCHAR dieresistonos
ENCODING 901
SWIDTH 602 0
DWIDTH 12 0
BBX 6 5 3 13
BITMAP
0C
18
30
00
CC
ENDCHAR
STARTCHAR anoteleia
ENCODING 903
SWIDTH 602 0
DWIDTH 12 0
BBX 2 2 5 5
BITMAP
C0
C0
ENDCHAR
STARTCHAR mu
ENCODING 956
SWIDTH 602 0
DWIDTH 12 0
BBX 9 14 1 -3
BITMAP
C180
C180
C180
C180
C180
C180
C180
C380
C780
FD80
F980
C000
C000
C000
ENDCHAR
STARTCHAR uni1E00
ENCODING 7680
SWIDTH 602 0
DWIDTH 12 0
BBX 12 18 0 -4
BITMAP
0600
0700
0B00
0B00
0980
1180
1180
10C0
20C0
3FC0
2060
4060
4070
C030
0000
0700
0500
0700
ENDCHAR
STARTCHAR uni1E01
ENCODING 7681
SWIDTH 602 0
DWIDTH 12 0
BBX 10 15 1 -4
BITMAP
7E00
4300
0300
0300
0300
3F00
6300
C300
C300
C700
7DC0
0000
1C00
1400
1C00
ENDCHAR
STARTCHAR uni1E02
ENCODING 7682
SWIDTH 602 0
DWIDTH 12 0
BBX 9 17 2 0
BITMAP
1800
1800
0000
FE00
C700
C300
C300
C300
C600
FC00
C600
C300
C180
C180
C180
C300
FE00
ENDCHAR
STARTCHAR uni1E03
ENCODING 7683
SWIDTH 602 0
DWIDTH 12 0
BBX 9 17 2 0
BITMAP
3000
3000
0000
C000
C000
C000
DE00
F300
E180
C180
C180
C180
C180
C180
C300
E300
DE00
ENDCHAR
STARTCHAR uni1E04
ENCODING 7684
SWIDTH 602 0
DWIDTH 12 0
BBX 9 17 2 -3
BITMAP
FE00
C700
C300
C300
C300
C600
FC00
C600
C300
C180
C180
C180
C300
FE00
0000
1800
1800
ENDCHAR
STARTCHAR uni1E05
ENCODING 7685
SWIDTH 602 0
DWIDTH 12 0
BBX 9 17 2 -3
BITMAP
C000
C000
C000
DE00
F300
E180
C180
C180
C180
C180
C180
C300
E300
DE00
0000
1800
1800
ENDCHAR
STARTCHAR uni1E06
ENCODING 7686
SWIDTH 602 0
DWIDTH 12 0
BBX 9 16 2 -2
BITMAP
FE00
C700
C300
C300
C300
C600
FC00
C600
C300
C180
C180
C180
C300
FE00
0000
7E00
ENDCHAR
STARTCHAR uni1E07
ENCODING 7687
SWIDTH 602 0
DWIDTH 12 0
BBX 9 16 2 -2
BITMAP
C000
C000
C000
DE00
F300
E180
C180
C180
C180
C180
C180
C300
E300
DE00
0000
7E00
ENDCHAR
STARTCHAR uni1E08
ENCODING 7688
SWIDTH 602 0
DWIDTH 12 0
BBX 10 22 1 -4
BITMAP
0600
0C00
1800
0000
0FC0
3840
6000
6000
C000
C000
C000
C000
C000
C000
6000
6000
3840
0FC0
0400
0200
0200
0E00
ENDCHAR
STARTCHAR uni1E09
ENCODING 7689
SWIDTH 602 0
DWIDTH 12 0
BBX 9 19 2 -4
BITMAP
0600
0C00
1800
0000
1F80
7080
6000
C000
C000
C000
C000
C000
6000
7080
1F80
0800
0400
0400
1C00
ENDCHAR
STARTCHAR uni1E0A
ENCODING 7690
SWIDTH 602 0
DWIDTH 12 0
BBX 10 17 1 0
BITMAP
1800
1800
0000
FE00
C300
C180
C0C0
C0C0
C0C0
C0C0
C0C0
C0C0
C0C0
C180
C180
C300
FE00
ENDCHAR
STARTCHAR uni1E0B
ENCODING 7691
SWIDTH 602 0
DWIDTH 12 0
BBX 9 17 1 0
BITMAP
0600
0600
0000
0180
0180
0180
3D80
6380
6180
C180
C180
C180
C180
C180
C380
6780
3D80
ENDCHAR
STARTCHAR uni1E0C
ENCODING 7692
SWIDTH 602 0
DWIDTH 12 0
BBX 10 17 1 -3
BITMAP
FE00
C300
C180
C0C0
C0C0
C0C0
C0C0
C0C0
C0C0
C0C0
C180
C180
C300
FE00
0000
1800
1800
ENDCHAR
STARTCHAR uni1E0D
ENCODING 7693
SWIDTH 602 0
DWIDTH 12 0
BBX 9 17 1 -3
BITMAP
0180
0180
0180
3D80
6380
6180
C180
C180
C180
C180
C180
C380
6780
3D80
0000
0C00
0C00
ENDCHAR
STARTCHAR uni1E0E
ENCODING 7694
SWIDTH 602 0
DWIDTH 12 0
BBX 10 16 1 -2
BITMAP
FE00
C300
C180
C0C0
C0C0
C0C0
C0C0
C0C0
C0C0
C0C0
C180
C180
C300
FE00
0000
7E00
ENDCHAR
STARTCHAR uni1E0F
ENCODING 7695
SWIDTH 602 0
DWIDTH 12 0
BBX 9 16 1 -2
BITMAP
0180
0180
0180
3D80
6380
6180
C180
C180
C180
C180
C180
C380
6780
3D80
0000
3F00
ENDCHAR
STARTCHAR uni1E10
ENCODING 7696
SWIDTH 602 0
DWIDTH 12 0
BBX 10 18 1 -4
BITMAP
FE00
C300
C180
C0C0
C0C0
C0C0
C0C0
C0C0
C0C0
C0C0
C180
C180
C300
FE00
0800
0400
0400
1C00
ENDCHAR
STARTCHAR uni1E11
ENCODING 7697
SWIDTH 602 0
DWIDTH 12 0
BBX 9 18 1 -4
BITMAP
0180
0180
0180
3D80
6380
6180
C180
C180
C180
C180
C180
C380
6780
3D80
0400
0200
0200
0E00
ENDCHAR
STARTCHAR uni1E12
ENCODING 7698
SWIDTH 602 0
DWIDTH 12 0
BBX 10 18 1 -4
BITMAP
FE00
C300
C180
C0C0
C0C0
C0C0
C0C0
C0C0
C0C0
C0C0
C180
C180
C300
FE00
0000
1C00
3600
6300
ENDCHAR
STARTCHAR uni1E13
ENCODING 7699
SWIDTH 602 0
DWIDTH 12 0
BBX 9 18 1 -4
BITMAP
0180
0180
0180
3D80
6380
6180
C180
C180
C180
C180
C180
C380
6780
3D80
0000
1C00
3600
6300
ENDCHAR
STARTCHAR uni1E14
ENCODING 7700
SWIDTH 602 0
DWIDTH 12 0
BBX 9 20 2 0
BITMAP
6000
3000
1800
0000
7E00
0000
FF80
C000
C000
C000
C000
C000
FF00
C000
C000
C000
C000
C000
C000
FF80
ENDCHAR
STARTCHAR uni1E15
ENCODING 7701
SWIDTH 602 0
DWIDTH 12 0
BBX 9 17 2 0
BITMAP
3000
1800
0C00
0000
3F00
0000
1E00
6300
6180
C180
C180
FF80
C000
C000
4000
6080
1F80
ENDCHAR
STARTCHAR uni1E16
ENCODING 7702
SWIDTH 602 0
DWIDTH 12 0
BBX 9 20 2 0
BITMAP
0600
0C00
1800
0000
7E00
0000
FF80
C000
C000
C000
C000
C000
FF00
C000
C000
C000
C000
C000
C000
FF80
ENDCHAR
STARTCHAR uni1E17
ENCODING 7703
SWIDTH 602 0
DWIDTH 12 0
BBX 9 17 2 0
BITMAP
0600
0C00
1800
0000
3F00
0000
1E00
6300
6180
C180
C180
FF80
C000
C000
4000
6080
1F80
ENDCHAR
STARTCHAR uni1E18
ENCODING 7704
SWIDTH 602 0
DWIDTH 12 0
BBX 9 18 2 -4
BITMAP
FF80
C000
C000
C000
C000
C000
FF00
C000
C000
C000
C000
C000
C000
FF80
0000
3800
6C00
C600
ENDCHAR
STARTCHAR uni1E19
ENCODING 7705
SWIDTH 602 0
DWIDTH 12 0
BBX 9 15 2 -4
BITMAP
1E00
6300
6180
C180
C180
FF80
C000
C000
4000
6080
1F80
0000
1C00
3600
6300
ENDCHAR
STARTCHAR uni1E1A
ENCODING 7706
SWIDTH 602 0
DWIDTH 12 0
BBX 9 17 2 -3
BITMAP
FF80
C000
C000
C000
C000
C000
FF00
C000
C000
C000
C000
C000
C000
FF80
0000
F600
DE00
ENDCHAR
STARTCHAR uni1E1B
ENCODING 7707
SWIDTH 602 0
DWIDTH 12 0
BBX 9 14 2 -3
BITMAP
1E00
6300
6180
C180
C180
FF80
C000
C000
4000
6080
1F80
0000
7B00
6F00
ENDCHAR
STARTCHAR uni1E1C
ENCODING 7708
SWIDTH 602 0
DWIDTH 12 0
BBX 9 22 2 -4
BITMAP
8600
6C00
3800
0000
FF80
C000
C000
C000
C000
C000
FF00
C000
C000
C000
C000
C000
C000
FF80
1000
0800
0800
3800
ENDCHAR
STARTCHAR uni1E1D
ENCODING 7709
SWIDTH 602 0
DWIDTH 12 0
BBX 9 19 2 -4
BITMAP
4300
3600
1C00
0000
1E00
6300
6180
C180
C180
FF80
C000
C000
4000
6080
1F80
0400
0200
0200
0E00
ENDCHAR
STARTCHAR uni1E1E
ENCODING 7710
SWIDTH 602 0
DWIDTH 12 0
BBX 9 17 2 0
BITMAP
1800
1800
0000
FF80
C000
C000
C000
C000
C000
FF00
C000
C000
C000
C000
C000
C000
C000
ENDCHAR
STARTCHAR uni1E1F
ENCODING 7711
SWIDTH 602 0
DWIDTH 12 0
BBX 10 19 2 0
BITMAP
0C00
0C00
0000
0FC0
1C00
1800
1800
1800
FFC0
1800
1800
1800
1800
1800
1800
1800
1800
1800
1800
ENDCHAR
STARTCHAR uni1E20
ENCODING 7712
SWIDTH 602 0
DWIDTH 12 0
BBX 10 16 1 0
BITMAP
3F00
0000
0FC0
3040
6000
6000
C000
C000
C000
C000
C0C0
C0C0
60C0
60C0
38C0
0FC0
ENDCHAR
STARTCHAR uni1E21
ENCODING 7713
SWIDTH 602 0
DWIDTH 12 0
BBX 9 17 1 -4
BITMAP
3F00
0000
1E80
6380
6180
C180
C180
C180
C180
C180
C380
6780
3D80
0180
0180
4300
7E00
ENDCHAR
STARTCHAR uni1E22
ENCODING 7714
SWIDTH 602 0
DWIDTH 12 0
BBX 9 17 1 0
BITMAP
0C00
0C00
0000
C180
C180
C180
C180
C180
C180
FF80
C180
C180
C180
C180
C180
C180
C180
ENDCHAR
STARTCHAR uni1E23
ENCODING 7715
SWIDTH 602 0
DWIDTH 12 0
BBX 9 17 2 0
BITMAP
3000
3000
0000
C000
C000
C000
CF00
DF80
F180
C180
C180
C180
C180
C180
C180
C180
C180
ENDCHAR
STARTCHAR uni1E24
ENCODING 7716
SWIDTH 602 0
DWIDTH 12 0
BBX 9 17 1 -3
BITMAP
C180
C180
C180
C180
C180
C180
FF80
C180
C180
C180
C180
C180
C180
C180
0000
0C00
0C00
ENDCHAR
STARTCHAR uni1E25
ENCODING 7717
SWIDTH 602 0
DWIDTH 12 0
BBX 9 17 2 -3
BITMAP
C000
C000
C000
CF00
DF80
F180
C180
C180
C180
C180
C180
C180
C180
C180
0000
0C00
0C00
ENDCHAR
STARTCHAR uni1E26
ENCODING 7718
SWIDTH 602 0
DWIDTH 12 0
BBX 9 16 1 0
BITMAP
3300
0000
C180
C180
C180
C180
C180
C180
FF80
C180
C180
C180
C180
C180
C180
C180
ENDCHAR
STARTCHAR uni1E27
ENCODING 7719
SWIDTH 602 0
DWIDTH 12 0
BBX 9 16 2 0
BITMAP
CC00
0000
C000
C000
C000
CF00
DF80
F180
C180
C180
C180
C180
C180
C180
C180
C180
ENDCHAR
STARTCHAR uni1E28
ENCODING 7720
SWIDTH 602 0
DWIDTH 12 0
BBX 9 18 1 -4
BITMAP
C180
C180
C180
C180
C180
C180
FF80
C180
C180
C180
C180
C180
C180
D980
0800
0400
0400
1C00
ENDCHAR
STARTCHAR uni1E29
ENCODING 7721
SWIDTH 602 0
DWIDTH 12 0
BBX 9 18 2 -4
BITMAP
C000
C000
C000
CF00
DF80
F180
C180
C180
C180
C180
C180
C180
C180
D980
0800
0400
0400
1C00
ENDCHAR
STARTCHAR uni1E2A
ENCODING 7722
SWIDTH 602 0
DWIDTH 12 0
BBX 9 18 1 -4
BITMAP
C180
C180
C180
C180
C180
C180
FF80
C180
C180
C180
C180
C180
C180
C180
0000
4300
3600
1C00
ENDCHAR
STARTCHAR uni1E2B
ENCODING 7723
SWIDTH 602 0
DWIDTH 12 0
BBX 9 18 2 -4
BITMAP
C000
C000
C000
CF00
DF80
F180
C180
C180
C180
C180
C180
C180
C180
C180
0000
4300
3600
1C00
ENDCHAR
STARTCHAR uni1E2C
ENCODING 7724
SWIDTH 602 0
DWIDTH 12 0
BBX 8 17 2 -3
BITMAP
FF
18
18
18
18
18
18
18
18
18
18
18
18
FF
00
7B
6F
ENDCHAR
STARTCHAR uni1E2D
ENCODING 7725
SWIDTH 602 0
DWIDTH 12 0
BBX 8 17 2 -3
BITMAP
0C
0C
00
FC
0C
0C
0C
0C
0C
0C
0C
0C
0C
0C
00
7B
6F
ENDCHAR
STARTCHAR uni1E2E
ENCODING 7726
SWIDTH 602 0
DWIDTH 12 0
BBX 8 20 2 0
BITMAP
06
0C
18
00
66
00
FF
18
18
18
18
18
18
18
18
18
18
18
18
FF
ENDCHAR
STARTCHAR uni1E2F
ENCODING 7727
SWIDTH 602 0
DWIDTH 12 0
BBX 7 17 2 0
BITMAP
0C
18
30
00
66
00
FC
0C
0C
0C
0C
0C
0C
0C
0C
0C
0C
ENDCHAR
STARTCHAR uni1E30
ENCODING 7728
SWIDTH 602 0
DWIDTH 12 0
BBX 10 18 2 0
BITMAP
0600
0C00
1800
0000
C180
C300
C200
C400
C800
D800
D000
F800
DC00
CE00
C600
C300
C380
C1C0
ENDCHAR
STARTCHAR uni1E31
ENCODING 7729
SWIDTH 602 0
DWIDTH 12 0
BBX 10 18 2 0
BITMAP
1800
3000
6000
0000
C000
C000
C000
C100
C200
C400
C800
D000
F800
DC00
CE00
C700
C380
C1C0
ENDCHAR
STARTCHAR uni1E32
ENCODING 7730
SWIDTH 602 0
DWIDTH 12 0
BBX 10 17 2 -3
BITMAP
C180
C300
C200
C400
C800
D800
D000
F800
DC00
CE00
C600
C300
C380
C1C0
0000
0C00
0C00
ENDCHAR
STARTCHAR uni1E33
ENCODING 7731
SWIDTH 602 0
DWIDTH 12 0
BBX 10 17 2 -3
BITMAP
C000
C000
C000
C100
C200
C400
C800
D000
F800
DC00
CE00
C700
C380
C1C0
0000
0C00
0C00
ENDCHAR
STARTCHAR uni1E34
ENCODING 7732
SWIDTH 602 0
DWIDTH 12 0
BBX 10 16 2 -2
BITMAP
C180
C300
C200
C400
C800
D800
D000
F800
DC00
CE00
C600
C300
C380
C1C0
0000
3F00
ENDCHAR
STARTCHAR uni1E35
ENCODING 7733
SWIDTH 602 0
DWIDTH 12 0
BBX 10 16 2 -2
BITMAP
C000
C000
C000
C100
C200
C400
C800
D000
F800
DC00
CE00
C700
C380
C1C0
0000
3F00
ENDCHAR
STARTCHAR uni1E36
ENCODING 7734
SWIDTH 602 0
DWIDTH 12 0
BBX 9 17 2 -3
BITMAP
C000
C000
C000
C000
C000
C000
C000
C000
C000
C000
C000
C000
C000
FF80
0000
1800
1800
ENDCHAR
STARTCHAR uni1E37
ENCODING 7735
SWIDTH 602 0
DWIDTH 12 0
BBX 6 17 2 -3
BITMAP
FC
0C
0C
0C
0C
0C
0C
0C
0C
0C
0C
0C
0C
0C
00
18
18
ENDCHAR
STARTCHAR uni1E38
ENCODING 7736
SWIDTH 602 0
DWIDTH 12 0
BBX 10 19 1 -3
BITMAP
FC00
0000
6000
6000
6000
6000
6000
6000
6000
6000
6000
6000
6000
6000
6000
7FC0
0000
0C00
0C00
ENDCHAR
STARTCHAR uni1E39
ENCODING 7737
SWIDTH 602 0
DWIDTH 12 0
BBX 7 19 2 -3
BITMAP
7E
00
FC
0C
0C
0C
0C
0C
0C
0C
0C
0C
0C
0C
0C
0C
00
18
18
ENDCHAR
STARTCHAR uni1E3A
ENCODING 7738
SWIDTH 602 0
DWIDTH 12 0
BBX 9 16 2 -2
BITMAP
C000
C000
C000
C000
C000
C000
C000
C000
C000
C000
C000
C000
C000
FF80
0000
7E00
ENDCHAR
STARTCHAR uni1E3B
ENCODING 7739
SWIDTH 602 0
DWIDTH 12 0
BBX 7 16 2 -2
BITMAP
FC
0C
0C
0C
0C
0C
0C
0C
0C
0C
0C
0C
0C
0C
00
7E
ENDCHAR
STARTCHAR uni1E3C
ENCODING 7740
SWIDTH 602 0
DWIDTH 12 0
BBX 9 18 2 -4
BITMAP
C000
C000
C000
C000
C000
C000
C000
C000
C000
C000
C000
C000
C000
FF80
0000
3800
6C00
C600
ENDCHAR
STARTCHAR uni1E3D
ENCODING 7741
SWIDTH 602 0
DWIDTH 12 0
BBX 8 18 2 -4
BITMAP
FC
0C
0C
0C
0C
0C
0C
0C
0C
0C
0C
0C
0C
0C
00
1C
36
63
ENDCHAR
STARTCHAR uni1E3E
ENCODING 7742
SWIDTH 602 0
DWIDTH 12 0
BBX 10 18 1 0
BITMAP
0300
0600
0C00
0000
C0C0
C0C0
E1C0
A140
A140
A140
9240
9240
9240
9240
8C40
8C40
8C40
8040
ENDCHAR
STARTCHAR uni1E3F
ENCODING 7743
SWIDTH 602 0
DWIDTH 12 0
BBX 11 15 1 0
BITMAP
0300
0600
0C00
0000
B9C0
A720
C620
8420
8420
8420
8420
8420
8420
8420
8420
ENDCHAR
STARTCHAR uni1E40
ENCODING 7744
SWIDTH 602 0
DWIDTH 12 0
BBX 10 17 1 0
BITMAP
0C00
0C00
0000
C0C0
C0C0
E1C0
A140
A140
A140
9240
9240
9240
9240
8C40
8C40
8C40
8040
ENDCHAR
STARTCHAR uni1E41
ENCODING 7745
SWIDTH 602 0
DWIDTH 12 0
BBX 11 14 1 0
BITMAP
0C00
0C00
0000
B9C0
A720
C620
8420
8420
8420
8420
8420
8420
8420
8420
ENDCHAR
STARTCHAR uni1E42
ENCODING 7746
SWIDTH 602 0
DWIDTH 12 0
BBX 10 17 1 -3
BITMAP
C0C0
C0C0
E1C0
A140
A140
A140
9240
9240
9240
9240
8C40
8C40
8C40
8040
0000
0C00
0C00
ENDCHAR
STARTCHAR uni1E43
ENCODING 7747
SWIDTH 602 0
DWIDTH 12 0
BBX 11 14 1 -3
BITMAP
B9C0
A720
C620
8420
8420
8420
8420
8420
8420
8420
8420
0000
0600
0600
ENDCHAR
STARTCHAR uni1E44
ENCODING 7748
SWIDTH 602 0
DWIDTH 12 0
BBX 9 17 1 0
BITMAP
1800
1800
0000
C080
E080
E080
F080
B080
9880
9880
8C80
8E80
8680
8780
8380
8180
8180
ENDCHAR
STARTCHAR uni1E45
ENCODING 7749
SWIDTH 602 0
DWIDTH 12 0
BBX 9 14 2 0
BITMAP
1800
1800
0000
CF00
DF80
F180
C180
C180
C180
C180
C180
C180
C180
C180
ENDCHAR
STARTCHAR uni1E46
ENCODING 7750
SWIDTH 602 0
DWIDTH 12 0
BBX 9 17 1 -3
BITMAP
C080
E080
E080
F080
B080
9880
9880
8C80
8E80
8680
8780
8380
8180
8180
0000
0C00
0C00
ENDCHAR
STARTCHAR uni1E47
ENCODING 7751
SWIDTH 602 0
DWIDTH 12 0
BBX 9 14 2 -3
BITMAP
CF00
DF80
F180
C180
C180
C180
C180
C180
C180
C180
C180
0000
0C00
0C00
ENDCHAR
STARTCHAR uni1E48
ENCODING 7752
SWIDTH 602 0
DWIDTH 12 0
BBX 9 16 1 -2
BITMAP
C080
E080
E080
F080
B080
9880
9880
8C80
8E80
8680
8780
8380
8180
8180
0000
3F00
ENDCHAR
STARTCHAR uni1E49
ENCODING 7753
SWIDTH 602 0
DWIDTH 12 0
BBX 9 13 2 -2
BITMAP
CF00
DF80
F180
C180
C180
C180
C180
C180
C180
C180
C180
0000
3F00
ENDCHAR
STARTCHAR uni1E4A
ENCODING 7754
SWIDTH 602 0
DWIDTH 12 0
BBX 9 18 1 -4
BITMAP
C080
E080
E080
F080
B080
9880
9880
8C80
8E80
8680
8780
8380
8180
8180
0000
0E00
1B00
3180
ENDCHAR
STARTCHAR uni1E4B
ENCODING 7755
SWIDTH 602 0
DWIDTH 12 0
BBX 9 15 2 -4
BITMAP
CF00
DF80
F180
C180
C180
C180
C180
C180
C180
C180
C180
0000
1C00
3600
6300
ENDCHAR
STARTCHAR uni1E4C
ENCODING 7756
SWIDTH 602 0
DWIDTH 12 0
BBX 11 21 0 0
BITMAP
0300
0600
0C00
0000
3D80
3780
0000
1F00
3180
60C0
60C0
C060
C060
C060
C060
C060
C060
60C0
60C0
3180
1F00
ENDCHAR
STARTCHAR uni1E4D
ENCODING 7757
SWIDTH 602 0
DWIDTH 12 0
BBX 10 18 1 0
BITMAP
0600
0C00
1800
0000
7B00
6F00
0000
1E00
7380
6180
C0C0
C0C0
C0C0
C0C0
C0C0
6180
7380
1E00
ENDCHAR
STARTCHAR uni1E4E
ENCODING 7758
SWIDTH 602 0
DWIDTH 12 0
BBX 11 19 0 0
BITMAP
1980
0000
3D80
3780
0000
1F00
3180
60C0
60C0
C060
C060
C060
C060
C060
C060
60C0
60C0
3180
1F00
ENDCHAR
STARTCHAR uni1E4F
ENCODING 7759
SWIDTH 602 0
DWIDTH 12 0
BBX 10 16 1 0
BITMAP
3300
0000
7B00
6F00
0000
1E00
7380
6180
C0C0
C0C0
C0C0
C0C0
C0C0
6180
7380
1E00
ENDCHAR
STARTCHAR uni1E50
ENCODING 7760
SWIDTH 602 0
DWIDTH 12 0
BBX 11 20 0 0
BITMAP
1800
0C00
0600
0000
1F80
0000
1F00
3180
60C0
60C0
C060
C060
C060
C060
C060
C060
60C0
60C0
3180
1F00
ENDCHAR
STARTCHAR uni1E51
ENCODING 7761
SWIDTH 602 0
DWIDTH 12 0
BBX 10 17 1 0
BITMAP
3000
1800
0C00
0000
3F00
0000
1E00
7380
6180
C0C0
C0C0
C0C0
C0C0
C0C0
6180
7380
1E00
ENDCHAR
STARTCHAR uni1E52
ENCODING 7762
SWIDTH 602 0
DWIDTH 12 0
BBX 11 20 0 0
BITMAP
0300
0600
0C00
0000
1F80
0000
1F00
3180
60C0
60C0
C060
C060
C060
C060
C060
C060
60C0
60C0
3180
1F00
ENDCHAR
STARTCHAR uni1E53
ENCODING 7763
SWIDTH 602 0
DWIDTH 12 0
BBX 10 17 1 0
BITMAP
0300
0600
0C00
0000
3F00
0000
1E00
7380
6180
C0C0
C0C0
C0C0
C0C0
C0C0
6180
7380
1E00
ENDCHAR
STARTCHAR uni1E54
ENCODING 7764
SWIDTH 602 0
DWIDTH 12 0
BBX 9 18 2 0
BITMAP
0600
0C00
1800
0000
FE00
C380
C180
C180
C180
C180
C300
FC00
C000
C000
C000
C000
C000
C000
ENDCHAR
STARTCHAR uni1E55
ENCODING 7765
SWIDTH 602 0
DWIDTH 12 0
BBX 9 19 2 -4
BITMAP
0600
0C00
1800
0000
DE00
F300
E180
C180
C180
C180
C180
C180
C300
E300
DE00
C000
C000
C000
C000
ENDCHAR
STARTCHAR uni1E56
ENCODING 7766
SWIDTH 602 0
DWIDTH 12 0
BBX 9 17 2 0
BITMAP
1800
1800
0000
FE00
C380
C180
C180
C180
C180
C300
FC00
C000
C000
C000
C000
C000
C000
ENDCHAR
STARTCHAR uni1E57
ENCODING 7767
SWIDTH 602 0
DWIDTH 12 0
BBX 9 18 2 -4
BITMAP
1800
1800
0000
DE00
F300
E180
C180
C180
C180
C180
C180
C300
E300
DE00
C000
C000
C000
C000
ENDCHAR
STARTCHAR uni1E58
ENCODING 7768
SWIDTH 602 0
DWIDTH 12 0
BBX 10 17 2 0
BITMAP
1800
1800
0000
FC00
C700
C300
C300
C300
C700
FE00
CC00
CC00
C600
C700
C300
C180
C1C0
ENDCHAR
STARTCHAR uni1E59
ENCODING 7769
SWIDTH 602 0
DWIDTH 12 0
BBX 8 14 3 0
BITMAP
18
18
00
DF
F1
E1
C0
C0
C0
C0
C0
C0
C0
C0
ENDCHAR
STARTCHAR uni1E5A
ENCODING 7770
SWIDTH 602 0
DWIDTH 12 0
BBX 10 17 2 -3
BITMAP
FC00
C700
C300
C300
C300
C700
FE00
CC00
CC00
C600
C700
C300
C180
C1C0
0000
0C00
0C00
ENDCHAR
STARTCHAR uni1E5B
ENCODING 7771
SWIDTH 602 0
DWIDTH 12 0
BBX 8 14 3 -3
BITMAP
DF
F1
E1
C0
C0
C0
C0
C0
C0
C0
C0
00
60
60
ENDCHAR
STARTCHAR uni1E5C
ENCODING 7772
SWIDTH 602 0
DWIDTH 12 0
BBX 10 19 2 -3
BITMAP
7E00
0000
FC00
C700
C300
C300
C300
C700
FE00
CC00
CC00
C600
C700
C300
C180
C1C0
0000
0C00
0C00
ENDCHAR
STARTCHAR uni1E5D
ENCODING 7773
SWIDTH 602 0
DWIDTH 12 0
BBX 8 16 3 -3
BITMAP
7E
00
DF
F1
E1
C0
C0
C0
C0
C0
C0
C0
C0
00
60
60
ENDCHAR
STARTCHAR uni1E5E
ENCODING 7774
SWIDTH 602 0
DWIDTH 12 0
BBX 10 16 2 -2
BITMAP
FC00
C700
C300
C300
C300
C700
FE00
CC00
CC00
C600
C700
C300
C180
C1C0
0000
3F00
ENDCHAR
STARTCHAR uni1E5F
ENCODING 7775
SWIDTH 602 0
DWIDTH 12 0
BBX 9 13 2 -2
BITMAP
6F80
7880
7080
6000
6000
6000
6000
6000
6000
6000
6000
0000
FC00
ENDCHAR
STARTCHAR uni1E60
ENCODING 7776
SWIDTH 602 0
DWIDTH 12 0
BBX 9 17 2 0
BITMAP
1800
1800
0000
3F00
6100
C000
C000
E000
7000
3C00
0F00
0380
0180
0180
0180
8300
7E00
ENDCHAR
STARTCHAR uni1E61
ENCODING 7777
SWIDTH 602 0
DWIDTH 12 0
BBX 8 14 2 0
BITMAP
18
18
00
3E
62
C0
C0
F8
3E
0F
03
03
86
FC
ENDCHAR
STARTCHAR uni1E62
ENCODING 7778
SWIDTH 602 0
DWIDTH 12 0
BBX 9 17 2 -3
BITMAP
3F00
6100
C000
C000
E000
7000
3C00
0F00
0380
0180
0180
0180
8300
7E00
0000
0C00
0C00
ENDCHAR
STARTCHAR uni1E63
ENCODING 7779
SWIDTH 602 0
DWIDTH 12 0
BBX 8 14 2 -3
BITMAP
3E
62
C0
C0
F8
3E
0F
03
03
86
FC
00
18
18
ENDCHAR
STARTCHAR uni1E64
ENCODING 7780
SWIDTH 602 0
DWIDTH 12 0
BBX 9 21 2 0
BITMAP
0C00
0C00
0000
0600
0C00
1800
0000
3F00
6100
C000
C000
E000
7000
3C00
0F00
0380
0180
0180
0180
8300
7E00
ENDCHAR
STARTCHAR uni1E65
ENCODING 7781
SWIDTH 602 0
DWIDTH 12 0
BBX 8 18 2 0
BITMAP
18
18
00
0C
18
30
00
3E
62
C0
C0
F8
3E
0F
03
03
86
FC
ENDCHAR
STARTCHAR uni1E66
ENCODING 7782
SWIDTH 602 0
DWIDTH 12 0
BBX 9 21 2 0
BITMAP
0C00
0C00
0000
6300
3600
1C00
0000
3F00
6100
C000
C000
E000
7000
3C00
0F00
0380
0180
0180
0180
8300
7E00
ENDCHAR
STARTCHAR uni1E67
ENCODING 7783
SWIDTH 602 0
DWIDTH 12 0
BBX 8 18 2 0
BITMAP
18
18
00
C6
6C
38
00
3E
62
C0
C0
F8
3E
0F
03
03
86
FC
ENDCHAR
STARTCHAR uni1E68
ENCODING 7784
SWIDTH 602 0
DWIDTH 12 0
BBX 9 20 2 -3
BITMAP
1800
1800
0000
3F00
6100
C000
C000
E000
7000
3C00
0F00
0380
0180
0180
0180
8300
7E00
0000
0C00
0C00
ENDCHAR
STARTCHAR uni1E69
ENCODING 7785
SWIDTH 602 0
DWIDTH 12 0
BBX 8 17 2 -3
BITMAP
30
30
00
3E
62
C0
C0
F8
3E
0F
03
03
86
FC
00
18
18
ENDCHAR
STARTCHAR uni1E6A
ENCODING 7786
SWIDTH 602 0
DWIDTH 12 0
BBX 12 17 0 0
BITMAP
0600
0600
0000
FFF0
0600
0600
0600
0600
0600
0600
0600
0600
0600
0600
0600
0600
0600
ENDCHAR
STARTCHAR uni1E6B
ENCODING 7787
SWIDTH 602 0
DWIDTH 12 0
BBX 10 16 1 0
BITMAP
0C00
0C00
0000
1800
1800
FFC0
1800
1800
1800
1800
1800
1800
1800
1800
1C00
0FC0
ENDCHAR
STARTCHAR uni1E6C
ENCODING 7788
SWIDTH 602 0
DWIDTH 12 0
BBX 12 17 0 -3
BITMAP
FFF0
0600
0600
0600
0600
0600
0600
0600
0600
0600
0600
0600
0600
0600
0000
0600
0600
ENDCHAR
STARTCHAR uni1E6D
ENCODING 7789
SWIDTH 602 0
DWIDTH 12 0
BBX 10 16 1 -3
BITMAP
1800
1800
FFC0
1800
1800
1800
1800
1800
1800
1800
1800
1C00
0FC0
0000
0C00
0C00
ENDCHAR
STARTCHAR uni1E6E
ENCODING 7790
SWIDTH 602 0
DWIDTH 12 0
BBX 12 16 0 -2
BITMAP
FFF0
0600
0600
0600
0600
0600
0600
0600
0600
0600
0600
0600
0600
0600
0000
1F80
ENDCHAR
STARTCHAR uni1E6F
ENCODING 7791
SWIDTH 602 0
DWIDTH 12 0
BBX 10 15 1 -2
BITMAP
1800
1800
FFC0
1800
1800
1800
1800
1800
1800
1800
1800
1C00
0FC0
0000
3F00
ENDCHAR
STARTCHAR uni1E70
ENCODING 7792
SWIDTH 602 0
DWIDTH 12 0
BBX 12 18 0 -4
BITMAP
FFF0
0600
0600
0600
0600
0600
0600
0600
0600
0600
0600
0600
0600
0600
0000
0700
0D80
18C0
ENDCHAR
STARTCHAR uni1E71
ENCODING 7793
SWIDTH 602 0
DWIDTH 12 0
BBX 10 17 1 -4
BITMAP
1800
1800
FFC0
1800
1800
1800
1800
1800
1800
1800
1800
1C00
0FC0
0000
0E00
1B00
3180
ENDCHAR
STARTCHAR uni1E72
ENCODING 7794
SWIDTH 602 0
DWIDTH 12 0
BBX 9 16 2 -2
BITMAP
C080
C080
C080
C080
C080
C080
C080
C080
C080
C080
C080
C080
6100
3E00
0000
6600
ENDCHAR
STARTCHAR uni1E73
ENCODING 7795
SWIDTH 602 0
DWIDTH 12 0
BBX 9 13 1 -2
BITMAP
C180
C180
C180
C180
C180
C180
C180
C180
C780
7D80
7980
0000
3300
ENDCHAR
STARTCHAR uni1E74
ENCODING 7796
SWIDTH 602 0
DWIDTH 12 0
BBX 9 17 2 -3
BITMAP
C080
C080
C080
C080
C080
C080
C080
C080
C080
C080
C080
C080
6100
3E00
0000
7B00
6F00
ENDCHAR
STARTCHAR uni1E75
ENCODING 7797
SWIDTH 602 0
DWIDTH 12 0
BBX 9 14 1 -3
BITMAP
C180
C180
C180
C180
C180
C180
C180
C180
C780
7D80
7980
0000
7B00
6F00
ENDCHAR
STARTCHAR uni1E76
ENCODING 7798
SWIDTH 602 0
DWIDTH 12 0
BBX 9 18 2 -4
BITMAP
C080
C080
C080
C080
C080
C080
C080
C080
C080
C080
C080
C080
6100
3E00
0000
1C00
3600
6300
ENDCHAR
STARTCHAR uni1E77
ENCODING 7799
SWIDTH 602 0
DWIDTH 12 0
BBX 9 15 1 -4
BITMAP
C180
C180
C180
C180
C180
C180
C180
C180
C780
7D80
7980
0000
1C00
3600
6300
ENDCHAR
STARTCHAR uni1E78
ENCODING 7800
SWIDTH 602 0
DWIDTH 12 0
BBX 9 21 2 0
BITMAP
0600
0C00
1800
0000
F600
DE00
0000
C080
C080
C080
C080
C080
C080
C080
C080
C080
C080
C080
C080
6100
3E00
ENDCHAR
STARTCHAR uni1E79
ENCODING 7801
SWIDTH 602 0
DWIDTH 12 0
BBX 9 18 1 0
BITMAP
0600
0C00
1800
0000
7B00
6F00
0000
C180
C180
C180
C180
C180
C180
C180
C180
C780
7D80
7980
ENDCHAR
STARTCHAR uni1E7A
ENCODING 7802
SWIDTH 602 0
DWIDTH 12 0
BBX 9 18 2 0
BITMAP
6600
0000
7E00
0000
C080
C080
C080
C080
C080
C080
C080
C080
C080
C080
C080
C080
6100
3E00
ENDCHAR
STARTCHAR uni1E7B
ENCODING 7803
SWIDTH 602 0
DWIDTH 12 0
BBX 9 15 1 0
BITMAP
3300
0000
3F00
0000
C180
C180
C180
C180
C180
C180
C180
C180
C780
7D80
7980
ENDCHAR
STARTCHAR uni1E7C
ENCODING 7804
SWIDTH 602 0
DWIDTH 12 0
BBX 12 17 0 0
BITMAP
3D80
3780
0000
C030
6020
6020
6040
3040
3040
3080
1880
1880
1900
0D00
0F00
0E00
0600
ENDCHAR
STARTCHAR uni1E7D
ENCODING 7805
SWIDTH 602 0
DWIDTH 12 0
BBX 11 14 0 0
BITMAP
7B00
6F00
0000
C060
6040
6040
7080
3080
3100
1900
1B00
1E00
0E00
0C00
ENDCHAR
STARTCHAR uni1E7E
ENCODING 7806
SWIDTH 602 0
DWIDTH 12 0
BBX 12 17 0 -3
BITMAP
C030
6020
6020
6040
3040
3040
3080
1880
1880
1900
0D00
0F00
0E00
0600
0000
0600
0600
ENDCHAR
STARTCHAR uni1E7F
ENCODING 7807
SWIDTH 602 0
DWIDTH 12 0
BBX 11 14 0 -3
BITMAP
C060
6040
6040
7080
3080
3100
1900
1B00
1E00
0E00
0C00
0000
0C00
0C00
ENDCHAR
STARTCHAR Wgrave
ENCODING 7808
SWIDTH 602 0
DWIDTH 12 0
BBX 12 18 0 0
BITMAP
1800
0C00
0600
0000
8010
8610
8610
CE30
CB20
CB20
CB20
4B20
5160
51E0
71E0
71C0
60C0
60C0
ENDCHAR
STARTCHAR wgrave
ENCODING 7809
SWIDTH 602 0
DWIDTH 12 0
BBX 12 15 0 0
BITMAP
1800
0C00
0600
0000
C010
C610
C620
6620
6920
6920
6960
6940
71C0
30C0
30C0
ENDCHAR
STARTCHAR Wacute
ENCODING 7810
SWIDTH 602 0
DWIDTH 12 0
BBX 12 18 0 0
BITMAP
0180
0300
0600
0000
8010
8610
8610
CE30
CB20
CB20
CB20
4B20
5160
51E0
71E0
71C0
60C0
60C0
ENDCHAR
STARTCHAR wacute
ENCODING 7811
SWIDTH 602 0
DWIDTH 12 0
BBX 12 15 0 0
BITMAP
0300
0600
0C00
0000
C010
C610
C620
6620
6920
6920
6960
6940
71C0
30C0
30C0
ENDCHAR
STARTCHAR Wdieresis
ENCODING 7812
SWIDTH 602 0
DWIDTH 12 0
BBX 12 16 0 0
BITMAP
1980
0000
8010
8610
8610
CE30
CB20
CB20
CB20
4B20
5160
51E0
71E0
71C0
60C0
60C0
ENDCHAR
STARTCHAR wdieresis
ENCODING 7813
SWIDTH 602 0
DWIDTH 12 0
BBX 12 13 0 0
BITMAP
3300
0000
C010
C610
C620
6620
6920
6920
6960
6940
71C0
30C0
30C0
ENDCHAR
STARTCHAR uni1E86
ENCODING 7814
SWIDTH 602 0
DWIDTH 12 0
BBX 12 17 0 0
BITMAP
0600
0600
0000
8010
8610
8610
CE30
CB20
CB20
CB20
4B20
5160
51E0
71E0
71C0
60C0
60C0
ENDCHAR
STARTCHAR uni1E87
ENCODING 7815
SWIDTH 602 0
DWIDTH 12 0
BBX 12 14 0 0
BITMAP
0C00
0C00
0000
C010
C610
C620
6620
6920
6920
6960
6940
71C0
30C0
30C0
ENDCHAR
STARTCHAR uni1E88
ENCODING 7816
SWIDTH 602 0
DWIDTH 12 0
BBX 12 17 0 -3
BITMAP
8010
8610
8610
CE30
CB20
CB20
CB20
4B20
5160
51E0
71E0
71C0
60C0
60C0
0000
0600
0600
ENDCHAR
STARTCHAR uni1E89
ENCODING 7817
SWIDTH 602 0
DWIDTH 12 0
BBX 12 14 0 -3
BITMAP
C010
C610
C620
6620
6920
6920
6960
6940
71C0
30C0
30C0
0000
0600
0600
ENDCHAR
STARTCHAR uni1E8A
ENCODING 7818
SWIDTH 602 0
DWIDTH 12 0
BBX 12 17 0 0
BITMAP
0C00
0C00
0000
E020
7040
30C0
1880
1D00
0F00
0600
0700
0B00
1980
11C0
20C0
6060
C070
ENDCHAR
STARTCHAR uni1E8B
ENCODING 7819
SWIDTH 602 0
DWIDTH 12 0
BBX 10 14 1 0
BITMAP
1800
1800
0000
E080
6100
3100
3A00
1C00
0C00
1E00
1700
2300
6180
C1C0
ENDCHAR
STARTCHAR uni1E8C
ENCODING 7820
SWIDTH 602 0
DWIDTH 12 0
BBX 12 16 0 0
BITMAP
3300
0000
E020
7040
30C0
1880
1D00
0F00
0600
0700
0B00
1980
11C0
20C0
6060
C070
ENDCHAR
STARTCHAR uni1E8D
ENCODING 7821
SWIDTH 602 0
DWIDTH 12 0
BBX 10 13 1 0
BITMAP
6600
0000
E080
6100
3100
3A00
1C00
0C00
1E00
1700
2300
6180
C1C0
ENDCHAR
STARTCHAR uni1E8E
ENCODING 7822
SWIDTH 602 0
DWIDTH 12 0
BBX 12 17 0 0
BITMAP
0C00
0C00
0000
E030
6020
7040
3080
1880
1D00
0F00
0600
0600
0600
0600
0600
0600
0600
ENDCHAR
STARTCHAR uni1E8F
ENCODING 7823
SWIDTH 602 0
DWIDTH 12 0
BBX 11 18 1 -4
BITMAP
0C00
0C00
0000
C060
6040
6040
7080
3080
3100
1900
1A00
0E00
0E00
0C00
0400
0800
1800
7000
ENDCHAR
STARTCHAR uni1E90
ENCODING 7824
SWIDTH 602 0
DWIDTH 12 0
BBX 10 18 1 0
BITMAP
0E00
1B00
3180
0000
FFC0
01C0
0180
0380
0700
0600
0E00
1C00
1800
3000
7000
6000
C000
FFC0
ENDCHAR
STARTCHAR uni1E91
ENCODING 7825
SWIDTH 602 0
DWIDTH 12 0
BBX 9 15 1 0
BITMAP
1C00
3600
6300
0000
FF80
0100
0200
0600
0400
0800
1000
2000
6000
4000
FF80
ENDCHAR
STARTCHAR uni1E92
ENCODING 7826
SWIDTH 602 0
DWIDTH 12 0
BBX 10 17 1 -3
BITMAP
FFC0
01C0
0180
0380
0700
0600
0E00
1C00
1800
3000
7000
6000
C000
FFC0
0000
1800
1800
ENDCHAR
STARTCHAR uni1E93
ENCODING 7827
SWIDTH 602 0
DWIDTH 12 0
BBX 9 14 1 -3
BITMAP
FF80
0100
0200
0600
0400
0800
1000
2000
6000
4000
FF80
0000
1800
1800
ENDCHAR
STARTCHAR uni1E94
ENCODING 7828
SWIDTH 602 0
DWIDTH 12 0
BBX 10 16 1 -2
BITMAP
FFC0
01C0
0180
0380
0700
0600
0E00
1C00
1800
3000
7000
6000
C000
FFC0
0000
7E00
ENDCHAR
STARTCHAR uni1E95
ENCODING 7829
SWIDTH 602 0
DWIDTH 12 0
BBX 9 13 1 -2
BITMAP
FF80
0100
0200
0600
0400
0800
1000
2000
6000
4000
FF80
0000
7E00
ENDCHAR
STARTCHAR uni1E96
ENCODING 7830
SWIDTH 602 0
DWIDTH 12 0
BBX 9 16 2 -2
BITMAP
C000
C000
C000
CF00
DF80
F180
C180
C180
C180
C180
C180
C180
C180
C180
0000
3F00
ENDCHAR
STARTCHAR uni1E97
ENCODING 7831
SWIDTH 602 0
DWIDTH 12 0
BBX 10 15 1 0
BITMAP
3300
0000
1800
1800
FFC0
1800
1800
1800
1800
1800
1800
1800
1800
1C00
0FC0
ENDCHAR
STARTCHAR uni1E98
ENCODING 7832
SWIDTH 602 0
DWIDTH 12 0
BBX 12 15 0 0
BITMAP
0E00
0A00
0E00
0000
C010
C610
C620
6620
6920
6920
6960
6940
71C0
30C0
30C0
ENDCHAR
STARTCHAR uni1E99
ENCODING 7833
SWIDTH 602 0
DWIDTH 12 0
BBX 11 19 1 -4
BITMAP
1C00
1400
1C00
0000
C060
6040
6040
7080
3080
3100
1900
1A00
0E00
0E00
0C00
0400
0800
1800
7000
ENDCHAR
STARTCHAR uni1EA0
ENCODING 7840
SWIDTH 602 0
DWIDTH 12 0
BBX 12 17 0 -3
BITMAP
0600
0700
0B00
0B00
0980
1180
1180
10C0
20C0
3FC0
2060
4060
4070
C030
0000
0300
0300
ENDCHAR
STARTCHAR uni1EA1
ENCODING 7841
SWIDTH 602 0
DWIDTH 12 0
BBX 10 14 1 -3
BITMAP
7E00
4300
0300
0300
0300
3F00
6300
C300
C300
C700
7DC0
0000
0C00
0C00
ENDCHAR
STARTCHAR uni1EA4
ENCODING 7844
SWIDTH 602 0
DWIDTH 12 0
BBX 12 22 0 0
BITMAP
0180
0300
0600
0000
0700
0D80
18C0
0000
0600
0700
0B00
0B00
0980
1180
1180
10C0
20C0
3FC0
2060
4060
4070
C030
ENDCHAR
STARTCHAR uni1EA5
ENCODING 7845
SWIDTH 602 0
DWIDTH 12 0
BBX 10 19 1 0
BITMAP
0600
0C00
1800
0000
1C00
3600
6300
0000
7E00
4300
0300
0300
0300
3F00
6300
C300
C300
C700
7DC0
ENDCHAR
STARTCHAR uni1EA6
ENCODING 7846
SWIDTH 602 0
DWIDTH 12 0
BBX 12 22 0 0
BITMAP
0C00
0600
0300
0000
0700
0D80
18C0
0000
0600
0700
0B00
0B00
0980
1180
1180
10C0
20C0
3FC0
2060
4060
4070
C030
ENDCHAR
STARTCHAR uni1EA7
ENCODING 7847
SWIDTH 602 0
DWIDTH 12 0
BBX 10 19 1 0
BITMAP
3000
1800
0C00
0000
1C00
3600
6300
0000
7E00
4300
0300
0300
0300
3F00
6300
C300
C300
C700
7DC0
ENDCHAR
STARTCHAR uni1EAA
ENCODING 7850
SWIDTH 602 0
DWIDTH 12 0
BBX 12 21 0 0
BITMAP
1EC0
1BC0
0000
0700
0D80
18C0
0000
0600
0700
0B00
0B00
0980
1180
1180
10C0
20C0
3FC0
2060
4060
4070
C030
ENDCHAR
STARTCHAR uni1EAB
ENCODING 7851
SWIDTH 602 0
DWIDTH 12 0
BBX 10 18 1 0
BITMAP
7B00
6F00
0000
1C00
3600
6300
0000
7E00
4300
0300
0300
0300
3F00
6300
C300
C300
C700
7DC0
ENDCHAR
STARTCHAR uni1EAC
ENCODING 7852
SWIDTH 602 0
DWIDTH 12 0
BBX 12 21 0 -3
BITMAP
0700
0D80
18C0
0000
0600
0700
0B00
0B00
0980
1180
1180
10C0
20C0
3FC0
2060
4060
4070
C030
0000
0300
0300
ENDCHAR
STARTCHAR uni1EAD
ENCODING 7853
SWIDTH 602 0
DWIDTH 12 0
BBX 10 18 1 -3
BITMAP
0E00
1B00
3180
0000
7E00
4300
0300
0300
0300
3F00
6300
C300
C300
C700
7DC0
0000
0C00
0C00
ENDCHAR
STARTCHAR uni1EAE
ENCODING 7854
SWIDTH 602 0
DWIDTH 12 0
BBX 12 22 0 0
BITMAP
0180
0300
0600
0000
10C0
0D80
0700
0000
0600
0700
0B00
0B00
0980
1180
1180
10C0
20C0
3FC0
2060
4060
4070
C030
ENDCHAR
STARTCHAR uni1EAF
ENCODING 7855
SWIDTH 602 0
DWIDTH 12 0
BBX 10 19 1 0
BITMAP
0600
0C00
1800
0000
4300
3600
1C00
0000
7E00
4300
0300
0300
0300
3F00
6300
C300
C300
C700
7DC0
ENDCHAR
STARTCHAR uni1EB0
ENCODING 7856
SWIDTH 602 0
DWIDTH 12 0
BBX 12 22 0 0
BITMAP
0C00
0600
0300
0000
10C0
0D80
0700
0000
0600
0700
0B00
0B00
0980
1180
1180
10C0
20C0
3FC0
2060
4060
4070
C030
ENDCHAR
STARTCHAR uni1EB1
ENCODING 7857
SWIDTH 602 0
DWIDTH 12 0
BBX 10 19 1 0
BITMAP
3000
1800
0C00
0000
4300
3600
1C00
0000
7E00
4300
0300
0300
0300
3F00
6300
C300
C300
C700
7DC0
ENDCHAR
STARTCHAR uni1EB4
ENCODING 7860
SWIDTH 602 0
DWIDTH 12 0
BBX 12 21 0 0
BITMAP
1EC0
1BC0
0000
10C0
0D80
0700
0000
0600
0700
0B00
0B00
0980
1180
1180
10C0
20C0
3FC0
2060
4060
4070
C030
ENDCHAR
STARTCHAR uni1EB5
ENCODING 7861
SWIDTH 602 0
DWIDTH 12 0
BBX 10 18 1 0
BITMAP
7B00
6F00
0000
4300
3600
1C00
0000
7E00
4300
0300
0300
0300
3F00
6300
C300
C300
C700
7DC0
ENDCHAR
STARTCHAR uni1EB6
ENCODING 7862
SWIDTH 602 0
DWIDTH 12 0
BBX 12 21 0 -3
BITMAP
10C0
0D80
0700
0000
0600
0700
0B00
0B00
0980
1180
1180
10C0
20C0
3FC0
2060
4060
4070
C030
0000
0300
0300
ENDCHAR
STARTCHAR uni1EB7
ENCODING 7863
SWIDTH 602 0
DWIDTH 12 0
BBX 10 18 1 -3
BITMAP
2180
1B00
0E00
0000
7E00
4300
0300
0300
0300
3F00
6300
C300
C300
C700
7DC0
0000
0C00
0C00
ENDCHAR
STARTCHAR uni1EB8
ENCODING 7864
SWIDTH 602 0
DWIDTH 12 0
BBX 9 17 2 -3
BITMAP
FF80
C000
C000
C000
C000
C000
FF00
C000
C000
C000
C000
C000
C000
FF80
0000
1800
1800
ENDCHAR
STARTCHAR uni1EB9
ENCODING 7865
SWIDTH 602 0
DWIDTH 12 0
BBX 9 14 2 -3
BITMAP
1E00
6300
6180
C180
C180
FF80
C000
C000
4000
6080
1F80
0000
0C00
0C00
ENDCHAR
STARTCHAR uni1EBC
ENCODING 7868
SWIDTH 602 0
DWIDTH 12 0
BBX 9 17 2 0
BITMAP
F600
DE00
0000
FF80
C000
C000
C000
C000
C000
FF00
C000
C000
C000
C000
C000
C000
FF80
ENDCHAR
STARTCHAR uni1EBD
ENCODING 7869
SWIDTH 602 0
DWIDTH 12 0
BBX 9 14 2 0
BITMAP
7B00
6F00
0000
1E00
6300
6180
C180
C180
FF80
C000
C000
4000
6080
1F80
ENDCHAR
STARTCHAR uni1EBE
ENCODING 7870
SWIDTH 602 0
DWIDTH 12 0
BBX 9 22 2 0
BITMAP
0600
0C00
1800
0000
1C00
3600
6300
0000
FF80
C000
C000
C000
C000
C000
FF00
C000
C000
C000
C000
C000
C000
FF80
ENDCHAR
STARTCHAR uni1EBF
ENCODING 7871
SWIDTH 602 0
DWIDTH 12 0
BBX 9 19 2 0
BITMAP
0600
0C00
1800
0000
1C00
3600
6300
0000
1E00
6300
6180
C180
C180
FF80
C000
C000
4000
6080
1F80
ENDCHAR
STARTCHAR uni1EC0
ENCODING 7872
SWIDTH 602 0
DWIDTH 12 0
BBX 9 22 2 0
BITMAP
3000
1800
0C00
0000
1C00
3600
6300
0000
FF80
C000
C000
C000
C000
C000
FF00
C000
C000
C000
C000
C000
C000
FF80
ENDCHAR
STARTCHAR uni1EC1
ENCODING 7873
SWIDTH 602 0
DWIDTH 12 0
BBX 9 19 2 0
BITMAP
3000
1800
0C00
0000
1C00
3600
6300
0000
1E00
6300
6180
C180
C180
FF80
C000
C000
4000
6080
1F80
ENDCHAR
STARTCHAR uni1EC4
ENCODING 7876
SWIDTH 602 0
DWIDTH 12 0
BBX 9 21 2 0
BITMAP
7B00
6F00
0000
1C00
3600
6300
0000
FF80
C000
C000
C000
C000
C000
FF00
C000
C000
C000
C000
C000
C000
FF80
ENDCHAR
STARTCHAR uni1EC5
ENCODING 7877
SWIDTH 602 0
DWIDTH 12 0
BBX 9 18 2 0
BITMAP
7B00
6F00
0000
1C00
3600
6300
0000
1E00
6300
6180
C180
C180
FF80
C000
C000
4000
6080
1F80
ENDCHAR
STARTCHAR uni1EC6
ENCODING 7878
SWIDTH 602 0
DWIDTH 12 0
BBX 9 21 2 -3
BITMAP
3800
6C00
C600
0000
FF80
C000
C000
C000
C000
C000
FF00
C000
C000
C000
C000
C000
C000
FF80
0000
1800
1800
ENDCHAR
STARTCHAR uni1EC7
ENCODING 7879
SWIDTH 602 0
DWIDTH 12 0
BBX 9 18 2 -3
BITMAP
1C00
3600
6300
0000
1E00
6300
6180
C180
C180
FF80
C000
C000
4000
6080
1F80
0000
0C00
0C00
ENDCHAR
STARTCHAR uni1ECA
ENCODING 7882
SWIDTH 602 0
DWIDTH 12 0
BBX 8 17 2 -3
BITMAP
FF
18
18
18
18
18
18
18
18
18
18
18
18
FF
00
18
18
ENDCHAR
STARTCHAR uni1ECB
ENCODING 7883
SWIDTH 602 0
DWIDTH 12 0
BBX 6 17 2 -3
BITMAP
0C
0C
00
FC
0C
0C
0C
0C
0C
0C
0C
0C
0C
0C
00
18
18
ENDCHAR
STARTCHAR uni1ECC
ENCODING 7884
SWIDTH 602 0
DWIDTH 12 0
BBX 11 17 0 -3
BITMAP
1F00
3180
60C0
60C0
C060
C060
C060
C060
C060
C060
60C0
60C0
3180
1F00
0000
0600
0600
ENDCHAR
STARTCHAR uni1ECD
ENCODING 7885
SWIDTH 602 0
DWIDTH 12 0
BBX 10 14 1 -3
BITMAP
1E00
7380
6180
C0C0
C0C0
C0C0
C0C0
C0C0
6180
7380
1E00
0000
0C00
0C00
ENDCHAR
STARTCHAR uni1ED0
ENCODING 7888
SWIDTH 602 0
DWIDTH 12 0
BBX 11 22 0 0
BITMAP
0300
0600
0C00
0000
0E00
1B00
3180
0000
1F00
3180
60C0
60C0
C060
C060
C060
C060
C060
C060
60C0
60C0
3180
1F00
ENDCHAR
STARTCHAR uni1ED1
ENCODING 7889
SWIDTH 602 0
DWIDTH 12 0
BBX 10 19 1 0
BITMAP
0600
0C00
1800
0000
1C00
3600
6300
0000
1E00
7380
6180
C0C0
C0C0
C0C0
C0C0
C0C0
6180
7380
1E00
ENDCHAR
STARTCHAR uni1ED2
ENCODING 7890
SWIDTH 602 0
DWIDTH 12 0
BBX 11 22 0 0
BITMAP
1800
0C00
0600
0000
0E00
1B00
3180
0000
1F00
3180
60C0
60C0
C060
C060
C060
C060
C060
C060
60C0
60C0
3180
1F00
ENDCHAR
STARTCHAR uni1ED3
ENCODING 7891
SWIDTH 602 0
DWIDTH 12 0
BBX 10 19 1 0
BITMAP
3000
1800
0C00
0000
1C00
3600
6300
0000
1E00
7380
6180
C0C0
C0C0
C0C0
C0C0
C0C0
6180
7380
1E00
ENDCHAR
STARTCHAR uni1ED6
ENCODING 7894
SWIDTH 602 0
DWIDTH 12 0
BBX 11 21 0 0
BITMAP
3D80
3780
0000
0E00
1B00
3180
0000
1F00
3180
60C0
60C0
C060
C060
C060
C060
C060
C060
60C0
60C0
3180
1F00
ENDCHAR
STARTCHAR uni1ED7
ENCODING 7895
SWIDTH 602 0
DWIDTH 12 0
BBX 10 18 1 0
BITMAP
7B00
6F00
0000
1C00
3600
6300
0000
1E00
7380
6180
C0C0
C0C0
C0C0
C0C0
C0C0
6180
7380
1E00
ENDCHAR
STARTCHAR uni1ED8
ENCODING 7896
SWIDTH 602 0
DWIDTH 12 0
BBX 11 21 0 -3
BITMAP
0E00
1B00
3180
0000
1F00
3180
60C0
60C0
C060
C060
C060
C060
C060
C060
60C0
60C0
3180
1F00
0000
0600
0600
ENDCHAR
STARTCHAR uni1ED9
ENCODING 7897
SWIDTH 602 0
DWIDTH 12 0
BBX 10 18 1 -3
BITMAP
0E00
1B00
3180
0000
1E00
7380
6180
C0C0
C0C0
C0C0
C0C0
C0C0
6180
7380
1E00
0000
0C00
0C00
ENDCHAR
STARTCHAR uni1EDA
ENCODING 7898
SWIDTH 602 0
DWIDTH 12 0
BBX 13 18 0 0
BITMAP
00C0
0180
0300
0000
1F38
31B8
60D8
60F0
C060
C060
C060
C060
C060
C060
60C0
60C0
3180
1F00
ENDCHAR
STARTCHAR uni1EDB
ENCODING 7899
SWIDTH 602 0
DWIDTH 12 0
BBX 12 15 1 0
BITMAP
0180
0300
0600
0000
1E70
73F0
61B0
C0E0
C0C0
C0C0
C0C0
C0C0
6180
7380
1E00
ENDCHAR
STARTCHAR uni1EDC
ENCODING 7900
SWIDTH 602 0
DWIDTH 12 0
BBX 13 18 0 0
BITMAP
0600
0300
0180
0000
1F38
31B8
60D8
60F0
C060
C060
C060
C060
C060
C060
60C0
60C0
3180
1F00
ENDCHAR
STARTCHAR uni1EDD
ENCODING 7901
SWIDTH 602 0
DWIDTH 12 0
BBX 12 15 1 0
BITMAP
0C00
0600
0300
0000
1E70
73F0
61B0
C0E0
C0C0
C0C0
C0C0
C0C0
6180
7380
1E00
ENDCHAR
STARTCHAR uni1EE0
ENCODING 7904
SWIDTH 602 0
DWIDTH 12 0
BBX 13 17 0 0
BITMAP
0F60
0DE0
0000
1F38
31B8
60D8
60F0
C060
C060
C060
C060
C060
C060
60C0
60C0
3180
1F00
ENDCHAR
STARTCHAR uni1EE1
ENCODING 7905
SWIDTH 602 0
DWIDTH 12 0
BBX 12 14 1 0
BITMAP
1EC0
1BC0
0000
1E70
73F0
61B0
C0E0
C0C0
C0C0
C0C0
C0C0
6180
7380
1E00
ENDCHAR
STARTCHAR uni1EE2
ENCODING 7906
SWIDTH 602 0
DWIDTH 12 0
BBX 13 17 0 -3
BITMAP
1F38
31B8
60D8
60F0
C060
C060
C060
C060
C060
C060
60C0
60C0
3180
1F00
0000
0600
0600
ENDCHAR
STARTCHAR uni1EE3
ENCODING 7907
SWIDTH 602 0
DWIDTH 12 0
BBX 12 14 1 -3
BITMAP
1E70
73F0
61B0
C0E0
C0C0
C0C0
C0C0
C0C0
6180
7380
1E00
0000
0C00
0C00
ENDCHAR
STARTCHAR uni1EE4
ENCODING 7908
SWIDTH 602 0
DWIDTH 12 0
BBX 9 17 2 -3
BITMAP
C080
C080
C080
C080
C080
C080
C080
C080
C080
C080
C080
C080
6100
3E00
0000
1800
1800
ENDCHAR
STARTCHAR uni1EE5
ENCODING 7909
SWIDTH 602 0
DWIDTH 12 0
BBX 9 14 1 -3
BITMAP
C180
C180
C180
C180
C180
C180
C180
C180
C780
7D80
7980
0000
0C00
0C00
ENDCHAR
STARTCHAR uni1EE8
ENCODING 7912
SWIDTH 602 0
DWIDTH 12 0
BBX 11 18 2 0
BITMAP
0300
0600
0C00
0000
C0E0
C0E0
C0E0
C0C0
C080
C080
C080
C080
C080
C080
C080
C080
6100
3E00
ENDCHAR
STARTCHAR uni1EE9
ENCODING 7913
SWIDTH 602 0
DWIDTH 12 0
BBX 11 15 1 0
BITMAP
0180
0300
0600
0000
C1E0
C1E0
C1E0
C1C0
C180
C180
C180
C180
C780
7D80
7980
ENDCHAR
STARTCHAR uni1EEA
ENCODING 7914
SWIDTH 602 0
DWIDTH 12 0
BBX 11 18 2 0
BITMAP
1800
0C00
0600
0000
C0E0
C0E0
C0E0
C0C0
C080
C080
C080
C080
C080
C080
C080
C080
6100
3E00
ENDCHAR
STARTCHAR uni1EEB
ENCODING 7915
SWIDTH 602 0
DWIDTH 12 0
BBX 11 15 1 0
BITMAP
1800
0C00
0600
0000
C1E0
C1E0
C1E0
C1C0
C180
C180
C180
C180
C780
7D80
7980
ENDCHAR
STARTCHAR uni1EEE
ENCODING 7918
SWIDTH 602 0
DWIDTH 12 0
BBX 11 17 2 0
BITMAP
3D80
3780
0000
C0E0
C0E0
C0E0
C0C0
C080
C080
C080
C080
C080
C080
C080
C080
6100
3E00
ENDCHAR
STARTCHAR uni1EEF
ENCODING 7919
SWIDTH 602 0
DWIDTH 12 0
BBX 11 14 1 0
BITMAP
3D80
3780
0000
C1E0
C1E0
C1E0
C1C0
C180
C180
C180
C180
C780
7D80
7980
ENDCHAR
STARTCHAR uni1EF0
ENCODING 7920
SWIDTH 602 0
DWIDTH 12 0
BBX 11 17 2 -3
BITMAP
C0E0
C0E0
C0E0
C0C0
C080
C080
C080
C080
C080
C080
C080
C080
6100
3E00
0000
1800
1800
ENDCHAR
STARTCHAR uni1EF1
ENCODING 7921
SWIDTH 602 0
DWIDTH 12 0
BBX 11 14 1 -3
BITMAP
C1E0
C1E0
C1E0
C1C0
C180
C180
C180
C180
C780
7D80
7980
0000
0C00
0C00
ENDCHAR
STARTCHAR Ygrave
ENCODING 7922
SWIDTH 602 0
DWIDTH 12 0
BBX 12 18 0 0
BITMAP
1800
0C00
0600
0000
E030
6020
7040
3080
1880
1D00
0F00
0600
0600
0600
0600
0600
0600
0600
ENDCHAR
STARTCHAR ygrave
ENCODING 7923
SWIDTH 602 0
DWIDTH 12 0
BBX 11 19 1 -4
BITMAP
3000
1800
0C00
0000
C060
6040
6040
7080
3080
3100
1900
1A00
0E00
0E00
0C00
0400
0800
1800
7000
ENDCHAR
STARTCHAR uni1EF4
ENCODING 7924
SWIDTH 602 0
DWIDTH 12 0
BBX 12 17 0 -3
BITMAP
E030
6020
7040
3080
1880
1D00
0F00
0600
0600
0600
0600
0600
0600
0600
0000
0600
0600
ENDCHAR
STARTCHAR uni1EF5
ENCODING 7925
SWIDTH 602 0
DWIDTH 12 0
BBX 11 18 1 -7
BITMAP
C060
6040
6040
7080
3080
3100
1900
1A00
0E00
0E00
0C00
0400
0800
1800
7000
0000
1800
1800
ENDCHAR
STARTCHAR uni1EF8
ENCODING 7928
SWIDTH 602 0
DWIDTH 12 0
BBX 12 17 0 0
BITMAP
3D80
3780
0000
E030
6020
7040
3080
1880
1D00
0F00
0600
0600
0600
0600
0600
0600
0600
ENDCHAR
STARTCHAR uni1EF9
ENCODING 7929
SWIDTH 602 0
DWIDTH 12 0
BBX 11 18 1 -4
BITMAP
7B00
6F00
0000
C060
6040
6040
7080
3080
3100
1900
1A00
0E00
0E00
0C00
0400
0800
1800
7000
ENDCHAR
STARTCHAR uni2000
ENCODING 8192
SWIDTH 602 0
DWIDTH 12 0
BBX 1 1 0 0
BITMAP
00
ENDCHAR
STARTCHAR uni2001
ENCODING 8193
SWIDTH 602 0
DWIDTH 12 0
BBX 1 1 0 0
BITMAP
00
ENDCHAR
STARTCHAR uni2002
ENCODING 8194
SWIDTH 602 0
DWIDTH 12 0
BBX 1 1 0 0
BITMAP
00
ENDCHAR
STARTCHAR uni2003
ENCODING 8195
SWIDTH 602 0
DWIDTH 12 0
BBX 1 1 0 0
BITMAP
00
ENDCHAR
STARTCHAR uni2004
ENCODING 8196
SWIDTH 602 0
DWIDTH 12 0
BBX 1 1 0 0
BITMAP
00
ENDCHAR
STARTCHAR uni2005
ENCODING 8197
SWIDTH 602 0
DWIDTH 12 0
BBX 1 1 0 0
BITMAP
00
ENDCHAR
STARTCHAR uni2006
ENCODING 8198
SWIDTH 602 0
DWIDTH 12 0
BBX 1 1 0 0
BITMAP
00
ENDCHAR
STARTCHAR uni2007
ENCODING 8199
SWIDTH 602 0
DWIDTH 12 0
BBX 1 1 0 0
BITMAP
00
ENDCHAR
STARTCHAR uni2008
ENCODING 8200
SWIDTH 602 0
DWIDTH 12 0
BBX 1 1 0 0
BITMAP
00
ENDCHAR
STARTCHAR uni2009
ENCODING 8201
SWIDTH 602 0
DWIDTH 12 0
BBX 1 1 0 0
BITMAP
00
ENDCHAR
STARTCHAR uni200A
ENCODING 8202
SWIDTH 602 0
DWIDTH 12 0
BBX 1 1 0 0
BITMAP
00
ENDCHAR
STARTCHAR uni2010
ENCODING 8208
SWIDTH 602 0
DWIDTH 12 0
BBX 8 1 2 6
BITMAP
FF
ENDCHAR
STARTCHAR uni2011
ENCODING 8209
SWIDTH 602 0
DWIDTH 12 0
BBX 8 1 2 6
BITMAP
FF
ENDCHAR
STARTCHAR figuredash
ENCODING 8210
SWIDTH 602 0
DWIDTH 12 0
BBX 9 1 1 6
BITMAP
FF80
ENDCHAR
STARTCHAR endash
ENCODING 8211
SWIDTH 602 0
DWIDTH 12 0
BBX 9 1 1 6
BITMAP
FF80
ENDCHAR
STARTCHAR emdash
ENCODING 8212
SWIDTH 602 0
DWIDTH 12 0
BBX 11 1 0 6
BITMAP
FFE0
ENDCHAR
STARTCHAR afii00208
ENCODING 8213
SWIDTH 602 0
DWIDTH 12 0
BBX 11 1 0 6
BITMAP
FFE0
ENDCHAR
STARTCHAR quoteleft
ENCODING 8216
SWIDTH 602 0
DWIDTH 12 0
BBX 3 5 4 9
BITMAP
60
C0
80
E0
E0
ENDCHAR
STARTCHAR quoteright
ENCODING 8217
SWIDTH 602 0
DWIDTH 12 0
BBX 3 5 4 9
BITMAP
E0
E0
60
C0
80
ENDCHAR
STARTCHAR quotesinglbase
ENCODING 8218
SWIDTH 602 0
DWIDTH 12 0
BBX 3 6 4 -3
BITMAP
E0
E0
E0
20
60
C0
ENDCHAR
STARTCHAR quotereversed
ENCODING 8219
SWIDTH 602 0
DWIDTH 12 0
BBX 3 5 4 9
BITMAP
E0
E0
C0
60
20
ENDCHAR
STARTCHAR quotedblleft
ENCODING 8220
SWIDTH 602 0
DWIDTH 12 0
BBX 7 4 3 10
BITMAP
C6
84
C6
C6
ENDCHAR
STARTCHAR quotedblright
ENCODING 8221
SWIDTH 602 0
DWIDTH 12 0
BBX 7 4 3 10
BITMAP
C6
C6
42
C6
ENDCHAR
STARTCHAR quotedblbase
ENCODING 8222
SWIDTH 602 0
DWIDTH 12 0
BBX 7 6 3 -3
BITMAP
C6
C6
42
42
42
84
ENDCHAR
STARTCHAR uni201F
ENCODING 8223
SWIDTH 602 0
DWIDTH 12 0
BBX 7 4 3 10
BITMAP
C6
C6
84
C6
ENDCHAR
STARTCHAR dagger
ENCODING 8224
SWIDTH 602 0
DWIDTH 12 0
BBX 7 17 2 -3
BITMAP
10
10
10
10
10
FE
10
10
10
10
10
10
10
10
10
10
10
ENDCHAR
STARTCHAR daggerdbl
ENCODING 8225
SWIDTH 602 0
DWIDTH 12 0
BBX 7 17 2 -3
BITMAP
10
10
10
10
10
FE
10
10
10
10
10
FE
10
10
10
10
10
ENDCHAR
STARTCHAR bullet
ENCODING 8226
SWIDTH 602 0
DWIDTH 12 0
BBX 6 6 3 2
BITMAP
FC
FC
FC
FC
FC
FC
ENDCHAR
STARTCHAR ellipsis
ENCODING 8230
SWIDTH 602 0
DWIDTH 12 0
BBX 10 2 1 0
BITMAP
CCC0
CCC0
ENDCHAR
STARTCHAR perthousand
ENCODING 8240
SWIDTH 602 0
DWIDTH 12 0
BBX 13 14 0 0
BITMAP
6100
9200
9200
9400
9400
6800
0800
1000
1630
2948
2948
4948
4948
8630
ENDCHAR
STARTCHAR guilsinglleft
ENCODING 8249
SWIDTH 602 0
DWIDTH 12 0
BBX 5 9 3 1
BITMAP
08
10
20
60
C0
60
20
10
08
ENDCHAR
STARTCHAR guilsinglright
ENCODING 8250
SWIDTH 602 0
DWIDTH 12 0
BBX 5 9 3 1
BITMAP
80
40
20
30
18
30
20
40
80
ENDCHAR
STARTCHAR uni203D
ENCODING 8253
SWIDTH 602 0
DWIDTH 12 0
BBX 9 14 2 0
BITMAP
FE00
8F00
8D80
0D80
0D00
0E00
0C00
0800
1800
1800
0000
0000
1800
1800
ENDCHAR
STARTCHAR fraction
ENCODING 8260
SWIDTH 602 0
DWIDTH 12 0
BBX 12 14 0 0
BITMAP
0030
0060
0040
0080
0100
0300
0200
0400
0800
0800
1000
2000
6000
C000
ENDCHAR
STARTCHAR oneinferior
ENCODING 8321
SWIDTH 602 0
DWIDTH 12 0
BBX 5 7 -1 -4
BITMAP
E0
A0
20
20
20
20
F8
ENDCHAR
STARTCHAR twoinferior
ENCODING 8322
SWIDTH 602 0
DWIDTH 12 0
BBX 4 7 -2 -4
BITMAP
E0
90
10
20
40
80
F0
ENDCHAR
STARTCHAR threeinferior
ENCODING 8323
SWIDTH 602 0
DWIDTH 12 0
BBX 4 7 -2 -4
BITMAP
E0
10
10
60
10
10
E0
ENDCHAR
STARTCHAR uni20A5
ENCODING 8357
SWIDTH 602 0
DWIDTH 12 0
BBX 11 17 1 -3
BITMAP
0060
0040
0080
B9C0
A720
C720
8620
8620
8420
8C20
8C20
9420
9420
A420
2000
4000
C000
ENDCHAR
STARTCHAR uni20A6
ENCODING 8358
SWIDTH 602 0
DWIDTH 12 0
BBX 10 14 1 0
BITMAP
C080
E080
E080
F080
FFC0
9880
9880
8C80
FFC0
8680
8780
8380
8180
8180
ENDCHAR
STARTCHAR uni20A9
ENCODING 8361
SWIDTH 602 0
DWIDTH 12 0
BBX 12 14 0 0
BITMAP
8010
8610
8610
CE30
FFE0
CB20
CB20
4B20
7FE0
51E0
71E0
71C0
60C0
60C0
ENDCHAR
STARTCHAR Euro
ENCODING 8364
SWIDTH 602 0
DWIDTH 12 0
BBX 13 14 -2 0
BITMAP
01F8
0708
0C00
0C00
FFC0
1800
1800
1800
FFC0
1800
0C00
0C00
0708
01F8
ENDCHAR
STARTCHAR uni20AD
ENCODING 8365
SWIDTH 602 0
DWIDTH 12 0
BBX 10 14 2 0
BITMAP
C180
C300
C200
C400
C800
D800
FFC0
F800
DC00
CE00
C600
C300
C380
C1C0
ENDCHAR
STARTCHAR trademark
ENCODING 8482
SWIDTH 602 0
DWIDTH 12 0
BBX 11 7 0 7
BITMAP
FE60
2660
27E0
27E0
25A0
25A0
2420
ENDCHAR
STARTCHAR uni212A
ENCODING 8490
SWIDTH 602 0
DWIDTH 12 0
BBX 10 14 2 0
BITMAP
C180
C300
C200
C400
C800
D800
D000
F800
DC00
CE00
C600
C300
C380
C1C0
ENDCHAR
STARTCHAR uni212B
ENCODING 8491
SWIDTH 602 0
DWIDTH 12 0
BBX 12 18 0 0
BITMAP
0E00
0A00
0E00
0000
0600
0700
0B00
0B00
0980
1180
1180
10C0
20C0
3FC0
2060
4060
4070
C030
ENDCHAR
STARTCHAR uni2132
ENCODING 8498
SWIDTH 602 0
DWIDTH 12 0
BBX 9 14 2 0
BITMAP
0180
0180
0180
0180
0180
0180
0180
7F80
0180
0180
0180
0180
0180
FF80
ENDCHAR
STARTCHAR universal
ENCODING 8704
SWIDTH 602 0
DWIDTH 12 0
BBX 12 14 0 0
BITMAP
C030
4070
4060
2060
3FC0
20C0
10C0
1180
1180
0980
0B00
0B00
0700
0600
ENDCHAR
STARTCHAR existential
ENCODING 8707
SWIDTH 602 0
DWIDTH 12 0
BBX 9 14 2 0
BITMAP
FF80
0180
0180
0180
0180
0180
7F80
0180
0180
0180
0180
0180
0180
FF80
ENDCHAR
STARTCHAR uni2204
ENCODING 8708
SWIDTH 602 0
DWIDTH 12 0
BBX 11 17 1 -1
BITMAP
0060
0040
7FC0
00C0
01C0
01C0
02C0
06C0
3FC0
0CC0
08C0
10C0
10C0
20C0
20C0
7FC0
C000
ENDCHAR
STARTCHAR minus
ENCODING 8722
SWIDTH 602 0
DWIDTH 12 0
BBX 10 1 1 4
BITMAP
FFC0
ENDCHAR
STARTCHAR fraction
ENCODING 8725
SWIDTH 602 0
DWIDTH 12 0
BBX 12 14 0 0
BITMAP
0030
0060
0040
0080
0100
0300
0200
0400
0800
0800
1000
2000
6000
C000
ENDCHAR
STARTCHAR periodcentered
ENCODING 8729
SWIDTH 602 0
DWIDTH 12 0
BBX 2 2 5 5
BITMAP
C0
C0
ENDCHAR
STARTCHAR uni2236
ENCODING 8758
SWIDTH 602 0
DWIDTH 12 0
BBX 3 11 4 0
BITMAP
E0
E0
E0
00
00
00
00
00
E0
E0
E0
ENDCHAR
STARTCHAR uni2259
ENCODING 8793
SWIDTH 602 0
DWIDTH 12 0
BBX 10 9 1 3
BITMAP
0E00
1B00
3180
0000
FFC0
0000
0000
0000
FFC0
ENDCHAR
STARTCHAR uni225A
ENCODING 8794
SWIDTH 602 0
DWIDTH 12 0
BBX 10 9 1 3
BITMAP
3180
1B00
0E00
0000
FFC0
0000
0000
0000
FFC0
ENDCHAR
STARTCHAR notequal
ENCODING 8800
SWIDTH 602 0
DWIDTH 12 0
BBX 11 17 1 -3
BITMAP
0060
0040
0080
0080
0100
0100
FFC0
0600
0400
0C00
FFC0
1000
1000
2000
2000
4000
C000
ENDCHAR
STARTCHAR equivalence
ENCODING 8801
SWIDTH 602 0
DWIDTH 12 0
BBX 10 5 0 3
BITMAP
FFC0
0000
FFC0
0000
FFC0
ENDCHAR
STARTCHAR uni2262
ENCODING 8802
SWIDTH 602 0
DWIDTH 12 0
BBX 11 17 0 -3
BITMAP
0060
0040
0080
0080
0100
0100
FFC0
0600
FFC0
0C00
FFC0
1000
1000
2000
2000
4000
C000
ENDCHAR
STARTCHAR lessequal
ENCODING 8804
SWIDTH 602 0
DWIDTH 12 0
BBX 9 13 0 -2
BITMAP
0080
0180
0600
1800
6000
C000
6000
1800
0600
0180
0080
0000
FF80
ENDCHAR
STARTCHAR greaterequal
ENCODING 8805
SWIDTH 602 0
DWIDTH 12 0
BBX 9 13 1 -2
BITMAP
8000
C000
3000
0C00
0300
0180
0300
0C00
3000
C000
8000
0000
FF80
ENDCHAR
STARTCHAR uni226E
ENCODING 8814
SWIDTH 602 0
DWIDTH 12 0
BBX 11 17 -1 -3
BITMAP
0060
0040
0080
00C0
01C0
0300
0E00
3600
6400
3C00
0C00
1300
10C0
2040
2000
4000
C000
ENDCHAR
STARTCHAR uni226F
ENCODING 8815
SWIDTH 602 0
DWIDTH 12 0
BBX 11 17 0 -3
BITMAP
0060
0040
0080
4080
6100
1900
0600
0780
04C0
0D80
0E00
1800
7000
6000
2000
4000
C000
ENDCHAR
STARTCHAR uni2270
ENCODING 8816
SWIDTH 602 0
DWIDTH 12 0
BBX 11 17 -1 -4
BITMAP
0060
0040
00C0
00C0
0300
0D00
3200
6600
3400
0C00
0B00
10C0
1040
2000
7FC0
4000
C000
ENDCHAR
STARTCHAR uni2271
ENCODING 8817
SWIDTH 602 0
DWIDTH 12 0
BBX 11 17 0 -4
BITMAP
0060
0040
4080
6080
1900
0700
0380
06C0
0580
0E00
1800
7000
5000
2000
7FC0
4000
C000
ENDCHAR
STARTCHAR SF100000
ENCODING 9472
SWIDTH 602 0
DWIDTH 12 0
BBX 12 1 0 7
BITMAP
FFF0
ENDCHAR
STARTCHAR uni2501
ENCODING 9473
SWIDTH 602 0
DWIDTH 12 0
BBX 12 3 0 6
BITMAP
FFF0
FFF0
FFF0
ENDCHAR
STARTCHAR SF110000
ENCODING 9474
SWIDTH 602 0
DWIDTH 12 0
BBX 1 22 5 -4
BITMAP
80
80
80
80
80
80
80
80
80
80
80
80
80
80
80
80
80
80
80
80
80
80
ENDCHAR
STARTCHAR uni2503
ENCODING 9475
SWIDTH 602 0
DWIDTH 12 0
BBX 3 22 4 -4
BITMAP
E0
E0
E0
E0
E0
E0
E0
E0
E0
E0
E0
E0
E0
E0
E0
E0
E0
E0
E0
E0
E0
E0
ENDCHAR
STARTCHAR SF010000
ENCODING 9484
SWIDTH 602 0
DWIDTH 12 0
BBX 7 12 5 -4
BITMAP
FE
80
80
80
80
80
80
80
80
80
80
80
ENDCHAR
STARTCHAR uni250D
ENCODING 9485
SWIDTH 602 0
DWIDTH 12 0
BBX 8 13 4 -4
BITMAP
FF
FF
FF
40
40
40
40
40
40
40
40
40
40
ENDCHAR
STARTCHAR uni250E
ENCODING 9486
SWIDTH 602 0
DWIDTH 12 0
BBX 8 13 4 -4
BITMAP
E0
FF
E0
E0
E0
E0
E0
E0
E0
E0
E0
E0
E0
ENDCHAR
STARTCHAR uni250F
ENCODING 9487
SWIDTH 602 0
DWIDTH 12 0
BBX 8 13 4 -4
BITMAP
FF
FF
FF
E0
E0
E0
E0
E0
E0
E0
E0
E0
E0
ENDCHAR
STARTCHAR SF030000
ENCODING 9488
SWIDTH 602 0
DWIDTH 12 0
BBX 6 12 0 -4
BITMAP
FC
04
04
04
04
04
04
04
04
04
04
04
ENDCHAR
STARTCHAR uni2511
ENCODING 9489
SWIDTH 602 0
DWIDTH 12 0
BBX 7 13 0 -4
BITMAP
FE
FE
FE
04
04
04
04
04
04
04
04
04
04
ENDCHAR
STARTCHAR uni2512
ENCODING 9490
SWIDTH 602 0
DWIDTH 12 0
BBX 7 13 0 -4
BITMAP
0E
FE
0E
0E
0E
0E
0E
0E
0E
0E
0E
0E
0E
ENDCHAR
STARTCHAR uni2513
ENCODING 9491
SWIDTH 602 0
DWIDTH 12 0
BBX 7 13 0 -4
BITMAP
FE
FE
FE
0E
0E
0E
0E
0E
0E
0E
0E
0E
0E
ENDCHAR
STARTCHAR SF020000
ENCODING 9492
SWIDTH 602 0
DWIDTH 12 0
BBX 7 11 5 7
BITMAP
80
80
80
80
80
80
80
80
80
80
FE
ENDCHAR
STARTCHAR uni2515
ENCODING 9493
SWIDTH 602 0
DWIDTH 12 0
BBX 8 12 4 6
BITMAP
40
40
40
40
40
40
40
40
40
FF
FF
FF
ENDCHAR
STARTCHAR uni2516
ENCODING 9494
SWIDTH 602 0
DWIDTH 12 0
BBX 8 12 4 6
BITMAP
E0
E0
E0
E0
E0
E0
E0
E0
E0
E0
FF
E0
ENDCHAR
STARTCHAR uni2517
ENCODING 9495
SWIDTH 602 0
DWIDTH 12 0
BBX 8 12 4 6
BITMAP
E0
E0
E0
E0
E0
E0
E0
E0
E0
FF
FF
FF
ENDCHAR
STARTCHAR SF040000
ENCODING 9496
SWIDTH 602 0
DWIDTH 12 0
BBX 6 11 0 7
BITMAP
04
04
04
04
04
04
04
04
04
04
FC
ENDCHAR
STARTCHAR uni2519
ENCODING 9497
SWIDTH 602 0
DWIDTH 12 0
BBX 7 12 0 6
BITMAP
04
04
04
04
04
04
04
04
04
FE
FE
FE
ENDCHAR
STARTCHAR uni251A
ENCODING 9498
SWIDTH 602 0
DWIDTH 12 0
BBX 7 12 0 6
BITMAP
0E
0E
0E
0E
0E
0E
0E
0E
0E
0E
FE
0E
ENDCHAR
STARTCHAR uni251B
ENCODING 9499
SWIDTH 602 0
DWIDTH 12 0
BBX 7 12 0 6
BITMAP
0E
0E
0E
0E
0E
0E
0E
0E
0E
FE
FE
FE
ENDCHAR
STARTCHAR SF080000
ENCODING 9500
SWIDTH 602 0
DWIDTH 12 0
BBX 7 22 5 -4
BITMAP
80
80
80
80
80
80
80
80
80
80
FE
80
80
80
80
80
80
80
80
80
80
80
ENDCHAR
STARTCHAR uni251D
ENCODING 9501
SWIDTH 602 0
DWIDTH 12 0
BBX 8 22 4 -4
BITMAP
40
40
40
40
40
40
40
40
40
FF
FF
FF
40
40
40
40
40
40
40
40
40
40
ENDCHAR
STARTCHAR uni251E
ENCODING 9502
SWIDTH 602 0
DWIDTH 12 0
BBX 8 22 4 -4
BITMAP
E0
E0
E0
E0
E0
E0
E0
E0
E0
E0
FF
E0
40
40
40
40
40
40
40
40
40
40
ENDCHAR
STARTCHAR uni251F
ENCODING 9503
SWIDTH 602 0
DWIDTH 12 0
BBX 8 22 4 -4
BITMAP
40
40
40
40
40
40
40
40
40
E0
FF
E0
E0
E0
E0
E0
E0
E0
E0
E0
E0
E0
ENDCHAR
STARTCHAR uni2520
ENCODING 9504
SWIDTH 602 0
DWIDTH 12 0
BBX 8 22 4 -4
BITMAP
E0
E0
E0
E0
E0
E0
E0
E0
E0
E0
FF
E0
E0
E0
E0
E0
E0
E0
E0
E0
E0
E0
ENDCHAR
STARTCHAR uni2521
ENCODING 9505
SWIDTH 602 0
DWIDTH 12 0
BBX 8 22 4 -4
BITMAP
E0
E0
E0
E0
E0
E0
E0
E0
E0
FF
FF
FF
40
40
40
40
40
40
40
40
40
40
ENDCHAR
STARTCHAR uni2522
ENCODING 9506
SWIDTH 602 0
DWIDTH 12 0
BBX 8 22 4 -4
BITMAP
40
40
40
40
40
40
40
40
40
FF
FF
FF
E0
E0
E0
E0
E0
E0
E0
E0
E0
E0
ENDCHAR
STARTCHAR uni2523
ENCODING 9507
SWIDTH 602 0
DWIDTH 12 0
BBX 8 22 4 -4
BITMAP
E0
E0
E0
E0
E0
E0
E0
E0
E0
FF
FF
FF
E0
E0
E0
E0
E0
E0
E0
E0
E0
E0
ENDCHAR
STARTCHAR SF090000
ENCODING 9508
SWIDTH 602 0
DWIDTH 12 0
BBX 6 22 0 -4
BITMAP
04
04
04
04
04
04
04
04
04
04
FC
04
04
04
04
04
04
04
04
04
04
04
ENDCHAR
STARTCHAR uni2525
ENCODING 9509
SWIDTH 602 0
DWIDTH 12 0
BBX 7 22 0 -4
BITMAP
04
04
04
04
04
04
04
04
04
FE
FE
FE
04
04
04
04
04
04
04
04
04
04
ENDCHAR
STARTCHAR uni2526
ENCODING 9510
SWIDTH 602 0
DWIDTH 12 0
BBX 7 22 0 -4
BITMAP
0E
0E
0E
0E
0E
0E
0E
0E
0E
0E
FE
0E
04
04
04
04
04
04
04
04
04
04
ENDCHAR
STARTCHAR uni2527
ENCODING 9511
SWIDTH 602 0
DWIDTH 12 0
BBX 7 22 0 -4
BITMAP
04
04
04
04
04
04
04
04
04
0E
FE
0E
0E
0E
0E
0E
0E
0E
0E
0E
0E
0E
ENDCHAR
STARTCHAR uni2528
ENCODING 9512
SWIDTH 602 0
DWIDTH 12 0
BBX 7 22 0 -4
BITMAP
0E
0E
0E
0E
0E
0E
0E
0E
0E
0E
FE
0E
0E
0E
0E
0E
0E
0E
0E
0E
0E
0E
ENDCHAR
STARTCHAR uni2529
ENCODING 9513
SWIDTH 602 0
DWIDTH 12 0
BBX 7 22 0 -4
BITMAP
0E
0E
0E
0E
0E
0E
0E
0E
0E
FE
FE
FE
04
04
04
04
04
04
04
04
04
04
ENDCHAR
STARTCHAR uni252A
ENCODING 9514
SWIDTH 602 0
DWIDTH 12 0
BBX 7 22 0 -4
BITMAP
04
04
04
04
04
04
04
04
04
FE
FE
FE
0E
0E
0E
0E
0E
0E
0E
0E
0E
0E
ENDCHAR
STARTCHAR uni252B
ENCODING 9515
SWIDTH 602 0
DWIDTH 12 0
BBX 7 22 0 -4
BITMAP
0E
0E
0E
0E
0E
0E
0E
0E
0E
FE
FE
FE
0E
0E
0E
0E
0E
0E
0E
0E
0E
0E
ENDCHAR
STARTCHAR SF060000
ENCODING 9516
SWIDTH 602 0
DWIDTH 12 0
BBX 12 12 0 -4
BITMAP
FFF0
0400
0400
0400
0400
0400
0400
0400
0400
0400
0400
0400
ENDCHAR
STARTCHAR uni252D
ENCODING 9517
SWIDTH 602 0
DWIDTH 12 0
BBX 12 13 0 -4
BITMAP
FE00
FFF0
FE00
0400
0400
0400
0400
0400
0400
0400
0400
0400
0400
ENDCHAR
STARTCHAR uni252E
ENCODING 9518
SWIDTH 602 0
DWIDTH 12 0
BBX 12 13 0 -4
BITMAP
0FF0
FFF0
0FF0
0400
0400
0400
0400
0400
0400
0400
0400
0400
0400
ENDCHAR
STARTCHAR uni252F
ENCODING 9519
SWIDTH 602 0
DWIDTH 12 0
BBX 12 13 0 -4
BITMAP
FFF0
FFF0
FFF0
0400
0400
0400
0400
0400
0400
0400
0400
0400
0400
ENDCHAR
STARTCHAR uni2530
ENCODING 9520
SWIDTH 602 0
DWIDTH 12 0
BBX 12 13 0 -4
BITMAP
0E00
FFF0
0E00
0E00
0E00
0E00
0E00
0E00
0E00
0E00
0E00
0E00
0E00
ENDCHAR
STARTCHAR uni2531
ENCODING 9521
SWIDTH 602 0
DWIDTH 12 0
BBX 12 13 0 -4
BITMAP
FE00
FFF0
FE00
0E00
0E00
0E00
0E00
0E00
0E00
0E00
0E00
0E00
0E00
ENDCHAR
STARTCHAR uni2532
ENCODING 9522
SWIDTH 602 0
DWIDTH 12 0
BBX 12 13 0 -4
BITMAP
0FF0
FFF0
0FF0
0E00
0E00
0E00
0E00
0E00
0E00
0E00
0E00
0E00
0E00
ENDCHAR
STARTCHAR uni2533
ENCODING 9523
SWIDTH 602 0
DWIDTH 12 0
BBX 12 13 0 -4
BITMAP
FFF0
FFF0
FFF0
0E00
0E00
0E00
0E00
0E00
0E00
0E00
0E00
0E00
0E00
ENDCHAR
STARTCHAR SF070000
ENCODING 9524
SWIDTH 602 0
DWIDTH 12 0
BBX 12 11 0 7
BITMAP
0400
0400
0400
0400
0400
0400
0400
0400
0400
0400
FFF0
ENDCHAR
STARTCHAR uni2535
ENCODING 9525
SWIDTH 602 0
DWIDTH 12 0
BBX 12 12 0 6
BITMAP
0400
0400
0400
0400
0400
0400
0400
0400
0400
FE00
FFF0
FE00
ENDCHAR
STARTCHAR uni2536
ENCODING 9526
SWIDTH 602 0
DWIDTH 12 0
BBX 12 12 0 6
BITMAP
0400
0400
0400
0400
0400
0400
0400
0400
0400
0FF0
FFF0
0FF0
ENDCHAR
STARTCHAR uni2537
ENCODING 9527
SWIDTH 602 0
DWIDTH 12 0
BBX 12 12 0 6
BITMAP
0400
0400
0400
0400
0400
0400
0400
0400
0400
FFF0
FFF0
FFF0
ENDCHAR
STARTCHAR uni2538
ENCODING 9528
SWIDTH 602 0
DWIDTH 12 0
BBX 12 12 0 6
BITMAP
0E00
0E00
0E00
0E00
0E00
0E00
0E00
0E00
0E00
0E00
FFF0
0E00
ENDCHAR
STARTCHAR uni2539
ENCODING 9529
SWIDTH 602 0
DWIDTH 12 0
BBX 12 12 0 6
BITMAP
0E00
0E00
0E00
0E00
0E00
0E00
0E00
0E00
0E00
FE00
FFF0
FE00
ENDCHAR
STARTCHAR uni253A
ENCODING 9530
SWIDTH 602 0
DWIDTH 12 0
BBX 12 12 0 6
BITMAP
0E00
0E00
0E00
0E00
0E00
0E00
0E00
0E00
0E00
0FF0
FFF0
0FF0
ENDCHAR
STARTCHAR uni253B
ENCODING 9531
SWIDTH 602 0
DWIDTH 12 0
BBX 12 12 0 6
BITMAP
0E00
0E00
0E00
0E00
0E00
0E00
0E00
0E00
0E00
FFF0
FFF0
FFF0
ENDCHAR
STARTCHAR SF050000
ENCODING 9532
SWIDTH 602 0
DWIDTH 12 0
BBX 12 22 0 -4
BITMAP
0400
0400
0400
0400
0400
0400
0400
0400
0400
0400
FFF0
0400
0400
0400
0400
0400
0400
0400
0400
0400
0400
0400
ENDCHAR
STARTCHAR uni253D
ENCODING 9533
SWIDTH 602 0
DWIDTH 12 0
BBX 12 22 0 -4
BITMAP
0400
0400
0400
0400
0400
0400
0400
0400
0400
FE00
FFF0
FE00
0400
0400
0400
0400
0400
0400
0400
0400
0400
0400
ENDCHAR
STARTCHAR uni253E
ENCODING 9534
SWIDTH 602 0
DWIDTH 12 0
BBX 12 22 0 -4
BITMAP
0400
0400
0400
0400
0400
0400
0400
0400
0400
0FF0
FFF0
0FF0
0400
0400
0400
0400
0400
0400
0400
0400
0400
0400
ENDCHAR
STARTCHAR uni253F
ENCODING 9535
SWIDTH 602 0
DWIDTH 12 0
BBX 12 22 0 -4
BITMAP
0400
0400
0400
0400
0400
0400
0400
0400
0400
FFF0
FFF0
FFF0
0400
0400
0400
0400
0400
0400
0400
0400
0400
0400
ENDCHAR
STARTCHAR uni2540
ENCODING 9536
SWIDTH 602 0
DWIDTH 12 0
BBX 12 22 0 -4
BITMAP
0E00
0E00
0E00
0E00
0E00
0E00
0E00
0E00
0E00
0E00
FFF0
0E00
0400
0400
0400
0400
0400
0400
0400
0400
0400
0400
ENDCHAR
STARTCHAR uni2541
ENCODING 9537
SWIDTH 602 0
DWIDTH 12 0
BBX 12 22 0 -4
BITMAP
0400
0400
0400
0400
0400
0400
0400
0400
0400
0E00
FFF0
0E00
0E00
0E00
0E00
0E00
0E00
0E00
0E00
0E00
0E00
0E00
ENDCHAR
STARTCHAR uni2542
ENCODING 9538
SWIDTH 602 0
DWIDTH 12 0
BBX 12 22 0 -4
BITMAP
0E00
0E00
0E00
0E00
0E00
0E00
0E00
0E00
0E00
0E00
FFF0
0E00
0E00
0E00
0E00
0E00
0E00
0E00
0E00
0E00
0E00
0E00
ENDCHAR
STARTCHAR uni2543
ENCODING 9539
SWIDTH 602 0
DWIDTH 12 0
BBX 12 22 0 -4
BITMAP
0E00
0E00
0E00
0E00
0E00
0E00
0E00
0E00
0E00
FE00
FFF0
FE00
0400
0400
0400
0400
0400
0400
0400
0400
0400
0400
ENDCHAR
STARTCHAR uni2544
ENCODING 9540
SWIDTH 602 0
DWIDTH 12 0
BBX 12 22 0 -4
BITMAP
0E00
0E00
0E00
0E00
0E00
0E00
0E00
0E00
0E00
0FF0
FFF0
0FF0
0400
0400
0400
0400
0400
0400
0400
0400
0400
0400
ENDCHAR
STARTCHAR uni2545
ENCODING 9541
SWIDTH 602 0
DWIDTH 12 0
BBX 12 22 0 -4
BITMAP
0400
0400
0400
0400
0400
0400
0400
0400
0400
FE00
FFF0
FE00
0E00
0E00
0E00
0E00
0E00
0E00
0E00
0E00
0E00
0E00
ENDCHAR
STARTCHAR uni2546
ENCODING 9542
SWIDTH 602 0
DWIDTH 12 0
BBX 12 22 0 -4
BITMAP
0400
0400
0400
0400
0400
0400
0400
0400
0400
0FF0
FFF0
0FF0
0E00
0E00
0E00
0E00
0E00
0E00
0E00
0E00
0E00
0E00
ENDCHAR
STARTCHAR uni2547
ENCODING 9543
SWIDTH 602 0
DWIDTH 12 0
BBX 12 22 0 -4
BITMAP
0E00
0E00
0E00
0E00
0E00
0E00
0E00
0E00
0E00
FFF0
FFF0
FFF0
0400
0400
0400
0400
0400
0400
0400
0400
0400
0400
ENDCHAR
STARTCHAR uni2548
ENCODING 9544
SWIDTH 602 0
DWIDTH 12 0
BBX 12 22 0 -4
BITMAP
0400
0400
0400
0400
0400
0400
0400
0400
0400
FFF0
FFF0
FFF0
0E00
0E00
0E00
0E00
0E00
0E00
0E00
0E00
0E00
0E00
ENDCHAR
STARTCHAR uni2549
ENCODING 9545
SWIDTH 602 0
DWIDTH 12 0
BBX 12 22 0 -4
BITMAP
0E00
0E00
0E00
0E00
0E00
0E00
0E00
0E00
0E00
FE00
FFF0
FE00
0E00
0E00
0E00
0E00
0E00
0E00
0E00
0E00
0E00
0E00
ENDCHAR
STARTCHAR uni254A
ENCODING 9546
SWIDTH 602 0
DWIDTH 12 0
BBX 12 22 0 -4
BITMAP
0E00
0E00
0E00
0E00
0E00
0E00
0E00
0E00
0E00
0FF0
FFF0
0FF0
0E00
0E00
0E00
0E00
0E00
0E00
0E00
0E00
0E00
0E00
ENDCHAR
STARTCHAR uni254B
ENCODING 9547
SWIDTH 602 0
DWIDTH 12 0
BBX 12 22 0 -4
BITMAP
0E00
0E00
0E00
0E00
0E00
0E00
0E00
0E00
0E00
FFF0
FFF0
FFF0
0E00
0E00
0E00
0E00
0E00
0E00
0E00
0E00
0E00
0E00
ENDCHAR
STARTCHAR uni254C
ENCODING 9548
SWIDTH 602 0
DWIDTH 12 0
BBX 12 22 0 -4
BITMAP
0000
0000
0000
0000
0000
0000
0000
0000
0000
0000
FBF0
0000
0000
0000
0000
0000
0000
0000
0000
0000
0000
0000
ENDCHAR
STARTCHAR uni254D
ENCODING 9549
SWIDTH 602 0
DWIDTH 12 0
BBX 12 22 0 -4
BITMAP
0000
0000
0000
0000
0000
0000
0000
0000
0000
FBF0
FBF0
FBF0
0000
0000
0000
0000
0000
0000
0000
0000
0000
0000
ENDCHAR
STARTCHAR uni254E
ENCODING 9550
SWIDTH 602 0
DWIDTH 12 0
BBX 12 22 0 -4
BITMAP
0400
0400
0400
0400
0400
0400
0400
0400
0400
0400
0000
0400
0400
0400
0400
0400
0400
0400
0400
0400
0400
0400
ENDCHAR
STARTCHAR uni254F
ENCODING 9551
SWIDTH 602 0
DWIDTH 12 0
BBX 12 22 0 -4
BITMAP
0E00
0E00
0E00
0E00
0E00
0E00
0E00
0E00
0E00
0E00
0000
0E00
0E00
0E00
0E00
0E00
0E00
0E00
0E00
0E00
0E00
0E00
ENDCHAR
STARTCHAR SF430000
ENCODING 9552
SWIDTH 602 0
DWIDTH 12 0
BBX 12 3 0 6
BITMAP
FFF0
0000
FFF0
ENDCHAR
STARTCHAR SF240000
ENCODING 9553
SWIDTH 602 0
DWIDTH 12 0
BBX 3 22 4 -4
BITMAP
A0
A0
A0
A0
A0
A0
A0
A0
A0
A0
A0
A0
A0
A0
A0
A0
A0
A0
A0
A0
A0
A0
ENDCHAR
STARTCHAR SF390000
ENCODING 9556
SWIDTH 602 0
DWIDTH 12 0
BBX 8 13 4 -4
BITMAP
FF
80
BF
A0
A0
A0
A0
A0
A0
A0
A0
A0
A0
ENDCHAR
STARTCHAR SF250000
ENCODING 9559
SWIDTH 602 0
DWIDTH 12 0
BBX 7 13 0 -4
BITMAP
FE
02
FA
0A
0A
0A
0A
0A
0A
0A
0A
0A
0A
ENDCHAR
STARTCHAR SF380000
ENCODING 9562
SWIDTH 602 0
DWIDTH 12 0
BBX 8 12 4 6
BITMAP
A0
A0
A0
A0
A0
A0
A0
A0
A0
BF
80
FF
ENDCHAR
STARTCHAR SF260000
ENCODING 9565
SWIDTH 602 0
DWIDTH 12 0
BBX 7 12 0 6
BITMAP
0A
0A
0A
0A
0A
0A
0A
0A
0A
FA
02
FE
ENDCHAR
STARTCHAR SF420000
ENCODING 9568
SWIDTH 602 0
DWIDTH 12 0
BBX 8 22 4 -4
BITMAP
A0
A0
A0
A0
A0
A0
A0
A0
A0
BF
80
BF
A0
A0
A0
A0
A0
A0
A0
A0
A0
A0
ENDCHAR
STARTCHAR SF230000
ENCODING 9571
SWIDTH 602 0
DWIDTH 12 0
BBX 7 22 0 -4
BITMAP
0A
0A
0A
0A
0A
0A
0A
0A
0A
FA
02
FA
0A
0A
0A
0A
0A
0A
0A
0A
0A
0A
ENDCHAR
STARTCHAR SF410000
ENCODING 9574
SWIDTH 602 0
DWIDTH 12 0
BBX 12 13 0 -4
BITMAP
FFF0
0000
FBF0
0A00
0A00
0A00
0A00
0A00
0A00
0A00
0A00
0A00
0A00
ENDCHAR
STARTCHAR SF400000
ENCODING 9577
SWIDTH 602 0
DWIDTH 12 0
BBX 12 12 0 6
BITMAP
0A00
0A00
0A00
0A00
0A00
0A00
0A00
0A00
0A00
FBF0
0000
FFF0
ENDCHAR
STARTCHAR SF540000
ENCODING 9578
SWIDTH 602 0
DWIDTH 12 0
BBX 12 22 0 -4
BITMAP
0400
0400
0400
0400
0400
0400
0400
0400
0400
FFF0
0400
FFF0
0400
0400
0400
0400
0400
0400
0400
0400
0400
0400
ENDCHAR
STARTCHAR SF530000
ENCODING 9579
SWIDTH 602 0
DWIDTH 12 0
BBX 12 22 0 -4
BITMAP
0A00
0A00
0A00
0A00
0A00
0A00
0A00
0A00
0A00
0A00
FFF0
0A00
0A00
0A00
0A00
0A00
0A00
0A00
0A00
0A00
0A00
0A00
ENDCHAR
STARTCHAR SF440000
ENCODING 9580
SWIDTH 602 0
DWIDTH 12 0
BBX 12 22 0 -4
BITMAP
0A00
0A00
0A00
0A00
0A00
0A00
0A00
0A00
0A00
FBF0
0000
FBF0
0A00
0A00
0A00
0A00
0A00
0A00
0A00
0A00
0A00
0A00
ENDCHAR
STARTCHAR uni2574
ENCODING 9588
SWIDTH 602 0
DWIDTH 12 0
BBX 6 1 0 7
BITMAP
FC
ENDCHAR
STARTCHAR uni2575
ENCODING 9589
SWIDTH 602 0
DWIDTH 12 0
BBX 1 11 5 7
BITMAP
80
80
80
80
80
80
80
80
80
80
80
ENDCHAR
STARTCHAR uni2576
ENCODING 9590
SWIDTH 602 0
DWIDTH 12 0
BBX 7 1 5 7
BITMAP
FE
ENDCHAR
STARTCHAR uni2577
ENCODING 9591
SWIDTH 602 0
DWIDTH 12 0
BBX 1 12 5 -4
BITMAP
80
80
80
80
80
80
80
80
80
80
80
80
ENDCHAR
STARTCHAR uni2578
ENCODING 9592
SWIDTH 602 0
DWIDTH 12 0
BBX 7 3 0 6
BITMAP
FE
FE
FE
ENDCHAR
STARTCHAR uni2579
ENCODING 9593
SWIDTH 602 0
DWIDTH 12 0
BBX 3 12 4 6
BITMAP
E0
E0
E0
E0
E0
E0
E0
E0
E0
E0
E0
E0
ENDCHAR
STARTCHAR uni257A
ENCODING 9594
SWIDTH 602 0
DWIDTH 12 0
BBX 8 3 4 6
BITMAP
FF
FF
FF
ENDCHAR
STARTCHAR uni257B
ENCODING 9595
SWIDTH 602 0
DWIDTH 12 0
BBX 3 13 4 -4
BITMAP
E0
E0
E0
E0
E0
E0
E0
E0
E0
E0
E0
E0
E0
ENDCHAR
STARTCHAR uni257C
ENCODING 9596
SWIDTH 602 0
DWIDTH 12 0
BBX 12 3 0 6
BITMAP
0FF0
FFF0
0FF0
ENDCHAR
STARTCHAR uni257D
ENCODING 9597
SWIDTH 602 0
DWIDTH 12 0
BBX 3 22 4 -4
BITMAP
40
40
40
40
40
40
40
40
40
E0
E0
E0
E0
E0
E0
E0
E0
E0
E0
E0
E0
E0
ENDCHAR
STARTCHAR uni257E
ENCODING 9598
SWIDTH 602 0
DWIDTH 12 0
BBX 12 3 0 6
BITMAP
FE00
FFF0
FE00
ENDCHAR
STARTCHAR uni257F
ENCODING 9599
SWIDTH 602 0
DWIDTH 12 0
BBX 3 22 4 -4
BITMAP
E0
E0
E0
E0
E0
E0
E0
E0
E0
E0
E0
E0
40
40
40
40
40
40
40
40
40
40
ENDCHAR
STARTCHAR upblock
ENCODING 9600
SWIDTH 602 0
DWIDTH 12 0
BBX 12 23 0 -4
BITMAP
FFF0
FFF0
FFF0
FFF0
FFF0
FFF0
FFF0
FFF0
FFF0
FFF0
FFF0
0000
0000
0000
0000
0000
0000
0000
0000
0000
0000
0000
0000
ENDCHAR
STARTCHAR uni2581
ENCODING 9601
SWIDTH 602 0
DWIDTH 12 0
BBX 12 3 0 -4
BITMAP
FFF0
FFF0
FFF0
ENDCHAR
STARTCHAR uni2582
ENCODING 9602
SWIDTH 602 0
DWIDTH 12 0
BBX 12 6 0 -4
BITMAP
FFF0
FFF0
FFF0
FFF0
FFF0
FFF0
ENDCHAR
STARTCHAR uni2583
ENCODING 9603
SWIDTH 602 0
DWIDTH 12 0
BBX 12 9 0 -4
BITMAP
FFF0
FFF0
FFF0
FFF0
FFF0
FFF0
FFF0
FFF0
FFF0
ENDCHAR
STARTCHAR dnblock
ENCODING 9604
SWIDTH 602 0
DWIDTH 12 0
BBX 12 12 0 -4
BITMAP
FFF0
FFF0
FFF0
FFF0
FFF0
FFF0
FFF0
FFF0
FFF0
FFF0
FFF0
FFF0
ENDCHAR
STARTCHAR uni2585
ENCODING 9605
SWIDTH 602 0
DWIDTH 12 0
BBX 12 14 0 -4
BITMAP
FFF0
FFF0
FFF0
FFF0
FFF0
FFF0
FFF0
FFF0
FFF0
FFF0
FFF0
FFF0
FFF0
FFF0
ENDCHAR
STARTCHAR uni2586
ENCODING 9606
SWIDTH 602 0
DWIDTH 12 0
BBX 12 17 0 -4
BITMAP
FFF0
FFF0
FFF0
FFF0
FFF0
FFF0
FFF0
FFF0
FFF0
FFF0
FFF0
FFF0
FFF0
FFF0
FFF0
FFF0
FFF0
ENDCHAR
STARTCHAR uni2587
ENCODING 9607
SWIDTH 602 0
DWIDTH 12 0
BBX 12 20 0 -4
BITMAP
FFF0
FFF0
FFF0
FFF0
FFF0
FFF0
FFF0
FFF0
FFF0
FFF0
FFF0
FFF0
FFF0
FFF0
FFF0
FFF0
FFF0
FFF0
FFF0
FFF0
ENDCHAR
STARTCHAR block
ENCODING 9608
SWIDTH 602 0
DWIDTH 12 0
BBX 12 23 0 -4
BITMAP
FFF0
FFF0
FFF0
FFF0
FFF0
FFF0
FFF0
FFF0
FFF0
FFF0
FFF0
FFF0
FFF0
FFF0
FFF0
FFF0
FFF0
FFF0
FFF0
FFF0
FFF0
FFF0
FFF0
ENDCHAR
STARTCHAR uni2589
ENCODING 9609
SWIDTH 602 0
DWIDTH 12 0
BBX 11 23 0 -4
BITMAP
FFE0
FFE0
FFE0
FFE0
FFE0
FFE0
FFE0
FFE0
FFE0
FFE0
FFE0
FFE0
FFE0
FFE0
FFE0
FFE0
FFE0
FFE0
FFE0
FFE0
FFE0
FFE0
FFE0
ENDCHAR
STARTCHAR uni258A
ENCODING 9610
SWIDTH 602 0
DWIDTH 12 0
BBX 9 23 0 -4
BITMAP
FF80
FF80
FF80
FF80
FF80
FF80
FF80
FF80
FF80
FF80
FF80
FF80
FF80
FF80
FF80
FF80
FF80
FF80
FF80
FF80
FF80
FF80
FF80
ENDCHAR
STARTCHAR uni258B
ENCODING 9611
SWIDTH 602 0
DWIDTH 12 0
BBX 8 23 0 -4
BITMAP
FF
FF
FF
FF
FF
FF
FF
FF
FF
FF
FF
FF
FF
FF
FF
FF
FF
FF
FF
FF
FF
FF
FF
ENDCHAR
STARTCHAR lfblock
ENCODING 9612
SWIDTH 602 0
DWIDTH 12 0
BBX 6 23 0 -4
BITMAP
FC
FC
FC
FC
FC
FC
FC
FC
FC
FC
FC
FC
FC
FC
FC
FC
FC
FC
FC
FC
FC
FC
FC
ENDCHAR
STARTCHAR uni258D
ENCODING 9613
SWIDTH 602 0
DWIDTH 12 0
BBX 5 23 0 -4
BITMAP
F8
F8
F8
F8
F8
F8
F8
F8
F8
F8
F8
F8
F8
F8
F8
F8
F8
F8
F8
F8
F8
F8
F8
ENDCHAR
STARTCHAR uni258E
ENCODING 9614
SWIDTH 602 0
DWIDTH 12 0
BBX 3 23 0 -4
BITMAP
E0
E0
E0
E0
E0
E0
E0
E0
E0
E0
E0
E0
E0
E0
E0
E0
E0
E0
E0
E0
E0
E0
E0
ENDCHAR
STARTCHAR uni258F
ENCODING 9615
SWIDTH 602 0
DWIDTH 12 0
BBX 2 23 0 -4
BITMAP
C0
C0
C0
C0
C0
C0
C0
C0
C0
C0
C0
C0
C0
C0
C0
C0
C0
C0
C0
C0
C0
C0
C0
ENDCHAR
STARTCHAR rtblock
ENCODING 9616
SWIDTH 602 0
DWIDTH 12 0
BBX 12 23 0 -4
BITMAP
03F0
03F0
03F0
03F0
03F0
03F0
03F0
03F0
03F0
03F0
03F0
03F0
03F0
03F0
03F0
03F0
03F0
03F0
03F0
03F0
03F0
03F0
03F0
ENDCHAR
STARTCHAR ltshade
ENCODING 9617
SWIDTH 602 0
DWIDTH 12 0
BBX 12 23 0 -4
BITMAP
0000
5550
0000
AAA0
0000
5550
0000
AAA0
0000
5550
0000
AAA0
0000
5550
0000
AAA0
0000
5550
0000
AAA0
0000
5550
0000
ENDCHAR
STARTCHAR shade
ENCODING 9618
SWIDTH 602 0
DWIDTH 12 0
BBX 12 23 0 -4
BITMAP
5550
AAA0
5550
AAA0
5550
AAA0
5550
AAA0
5550
AAA0
5550
AAA0
5550
AAA0
5550
AAA0
5550
AAA0
5550
AAA0
5550
AAA0
5550
ENDCHAR
STARTCHAR dkshade
ENCODING 9619
SWIDTH 602 0
DWIDTH 12 0
BBX 12 23 0 -4
BITMAP
FFF0
AAA0
FFF0
5550
FFF0
AAA0
FFF0
5550
FFF0
AAA0
FFF0
5550
FFF0
AAA0
FFF0
5550
FFF0
AAA0
FFF0
5550
FFF0
AAA0
FFF0
ENDCHAR
STARTCHAR uni2594
ENCODING 9620
SWIDTH 602 0
DWIDTH 12 0
BBX 12 23 0 -4
BITMAP
FFF0
FFF0
FFF0
0000
0000
0000
0000
0000
0000
0000
0000
0000
0000
0000
0000
0000
0000
0000
0000
0000
0000
0000
0000
ENDCHAR
STARTCHAR uni2595
ENCODING 9621
SWIDTH 602 0
DWIDTH 12 0
BBX 12 23 0 -4
BITMAP
0070
0070
0070
0070
0070
0070
0070
0070
0070
0070
0070
0070
0070
0070
0070
0070
0070
0070
0070
0070
0070
0070
0070
ENDCHAR
STARTCHAR fi
ENCODING -1
SWIDTH 602 0
DWIDTH 12 0
BBX 9 16 1 0
BITMAP
3800
7C00
7D80
6180
6000
FF80
6180
6180
6180
6180
6180
6180
6180
6180
6180
6180
ENDCHAR
STARTCHAR fl
ENCODING -1
SWIDTH 602 0
DWIDTH 12 0
BBX 9 16 1 0
BITMAP
3F80
6180
6180
6180
6180
F980
6180
6180
6180
6180
6180
6180
6180
6180
6180
6180
ENDCHAR
ENDFONT
